{
.appVersion = "1075";
DisplayStrings = (
"/thoThung-thai/noNen-thai"
);
copyright = "Copyright © 2018 by Cadson Demak Co.,Ltd.. All rights reserved.";
customParameters = (
{
name = vendorID;
value = CDK;
},
{
name = description;
value = "Copyright (c) 2018, Cadson Demak (info@cadsondemak.com)";
},
{
name = license;

glyphs = (
{
glyphname = A;
lastChange = "2018-02-28 04:48:13 +0000";
layers = (
{
anchors = (
{
name = bottom;
position = "{378, 0}";
},
{
name = ogonek;
position = "{706, 10}";
},
{
name = top;
position = "{465, 700}";
}
);
layerId = "0B1DFD06-3317-40CA-B510-4969A0718C16";
paths = (
{
closed = 1;
nodes = (
"130 -11 OFFCURVE",
"197 57 OFFCURVE",
"284 251 CURVE SMOOTH",
"326 345 OFFCURVE",
"419 555 OFFCURVE",
"461 650 CURVE",
"448 650 LINE",
"457 547 OFFCURVE",
"487 409 OFFCURVE",
"521 271 CURVE",
"537 287 LINE",
"509 284 OFFCURVE",
"465 283 OFFCURVE",
"393 283 CURVE SMOOTH",
"339 283 OFFCURVE",
"216 294 OFFCURVE",
"184 306 CURVE",
"179 298 OFFCURVE",
"174 285 OFFCURVE",
"174 274 CURVE SMOOTH",
"174 255 OFFCURVE",
"196 245 OFFCURVE",
"256 245 CURVE SMOOTH",
"331 245 OFFCURVE",
"471 246 OFFCURVE",
"495 246 CURVE SMOOTH",
"520 246 OFFCURVE",
"532 240 OFFCURVE",
"540 212 CURVE SMOOTH",
"570 105 OFFCURVE",
"622 -6 OFFCURVE",
"691 -6 CURVE SMOOTH",
"739 -6 OFFCURVE",
"796 42 OFFCURVE",
"796 85 CURVE SMOOTH",
"796 97 OFFCURVE",
"790 110 OFFCURVE",
"784 114 CURVE",
"759 76 OFFCURVE",
"734 52 OFFCURVE",
"706 52 CURVE SMOOTH",
"633 52 OFFCURVE",
"592 211 OFFCURVE",
"561 334 CURVE SMOOTH",
"536 433 OFFCURVE",
"516 539 OFFCURVE",
"506 610 CURVE SMOOTH",
"499 658 OFFCURVE",
"495 705 OFFCURVE",
"507 735 CURVE",
"499 737 OFFCURVE",
"485 740 OFFCURVE",
"475 740 CURVE SMOOTH",
"456 740 OFFCURVE",
"446 730 OFFCURVE",
"435 706 CURVE SMOOTH",
"386 600 OFFCURVE",
"306 404 OFFCURVE",
"240 259 CURVE SMOOTH",
"165 94 OFFCURVE",
"112 36 OFFCURVE",
"33 36 CURVE SMOOTH",
"-10 36 OFFCURVE",
"-39 62 OFFCURVE",
"-42 114 CURVE",
"-57 106 OFFCURVE",
"-68 92 OFFCURVE",
"-68 63 CURVE SMOOTH",
"-68 22 OFFCURVE",
"-35 -11 OFFCURVE",
"21 -11 CURVE SMOOTH"
);
}
);
width = 760;
},
{
anchors = (
{
name = bottom;
position = "{343, 0}";
},
{
name = ogonek;
position = "{681, 10}";
},
{
name = top;
position = "{595, 700}";
}
);
layerId = "4C458150-A1D2-4ED7-A293-C8767657F79E";
paths = (
{
closed = 1;
nodes = (
"162 -11 OFFCURVE",
"223 96 OFFCURVE",
"324 256 CURVE SMOOTH",
"409 391 OFFCURVE",
"504 551 OFFCURVE",
"563 650 CURVE",
"555 655 LINE",
"557 628 OFFCURVE",
"560 362 OFFCURVE",
"562 286 CURVE",
"538 285 OFFCURVE",
"494 283 OFFCURVE",
"436 283 CURVE SMOOTH",
"382 283 OFFCURVE",
"260 294 OFFCURVE",
"230 306 CURVE",
"224 299 OFFCURVE",
"216 286 OFFCURVE",
"217 271 CURVE SMOOTH",
"218 255 OFFCURVE",
"299 245 OFFCURVE",
"373 245 CURVE SMOOTH",
"448 245 OFFCURVE",
"507 246 OFFCURVE",
"531 246 CURVE SMOOTH",
"556 246 OFFCURVE",
"567 240 OFFCURVE",
"570 212 CURVE SMOOTH",
"581 109 OFFCURVE",
"613 -6 OFFCURVE",
"683 -6 CURVE SMOOTH",
"727 -6 OFFCURVE",
"806 41 OFFCURVE",
"806 91 CURVE SMOOTH",
"806 98 OFFCURVE",
"804 104 OFFCURVE",
"802 109 CURVE",
"772 74 OFFCURVE",
"731 47 OFFCURVE",
"703 47 CURVE SMOOTH",
"630 47 OFFCURVE",
"622 211 OFFCURVE",
"613 334 CURVE SMOOTH",
"606 433 OFFCURVE",
"605 539 OFFCURVE",
"606 610 CURVE SMOOTH",
"606 658 OFFCURVE",
"612 705 OFFCURVE",
"629 735 CURVE",
"622 737 OFFCURVE",
"608 740 OFFCURVE",
"598 740 CURVE SMOOTH",
"579 740 OFFCURVE",
"568 734 OFFCURVE",
"553 710 CURVE SMOOTH",
"473 580 OFFCURVE",
"367 405 OFFCURVE",
"278 259 CURVE SMOOTH",
"191 117 OFFCURVE",
"126 36 OFFCURVE",
"42 36 CURVE SMOOTH",
"-3 36 OFFCURVE",
"-33 75 OFFCURVE",
"-33 132 CURVE",
"-50 124 OFFCURVE",
"-68 100 OFFCURVE",
"-66 71 CURVE SMOOTH",
"-63 31 OFFCURVE",
"-22 -11 OFFCURVE",
"32 -11 CURVE SMOOTH"
);
}
);
width = 802;
},
{
anchors = (
{
name = bottom;
position = "{378, 0}";
},
{
name = ogonek;
position = "{706, 10}";
},
{
name = top;
position = "{465, 700}";
}
);
layerId = "D07BE892-06F6-46A5-91A1-F9C5A6E66C70";
paths = (
{
closed = 1;
nodes = (
"140 -11 OFFCURVE",
"211 61 OFFCURVE",
"293 258 CURVE SMOOTH",
"332 352 OFFCURVE",
"411 543 OFFCURVE",
"458 638 CURVE",
"431 638 LINE",
"431 499 OFFCURVE",
"469 328 OFFCURVE",
"483 259 CURVE",
"516 285 LINE",
"492 286 OFFCURVE",
"471 283 OFFCURVE",
"393 283 CURVE SMOOTH",
"339 283 OFFCURVE",
"216 294 OFFCURVE",
"184 306 CURVE",
"179 301 OFFCURVE",
"177 286 OFFCURVE",
"177 270 CURVE SMOOTH",
"177 244 OFFCURVE",
"197 235 OFFCURVE",
"257 235 CURVE SMOOTH",
"331 235 OFFCURVE",
"428 236 OFFCURVE",
"455 236 CURVE SMOOTH",
"480 236 OFFCURVE",
"492 230 OFFCURVE",
"500 202 CURVE SMOOTH",
"529 99 OFFCURVE",
"572 -6 OFFCURVE",
"671 -6 CURVE SMOOTH",
"726 -6 OFFCURVE",
"796 39 OFFCURVE",
"796 93 CURVE SMOOTH",
"796 109 OFFCURVE",
"787 119 OFFCURVE",
"779 124 CURVE",
"761 91 OFFCURVE",
"738 68 OFFCURVE",
"701 68 CURVE SMOOTH",
"628 68 OFFCURVE",
"592 211 OFFCURVE",
"561 334 CURVE SMOOTH",
"536 433 OFFCURVE",
"516 539 OFFCURVE",
"506 610 CURVE SMOOTH",
"499 658 OFFCURVE",
"495 705 OFFCURVE",
"507 735 CURVE",
"499 737 OFFCURVE",
"485 740 OFFCURVE",
"475 740 CURVE SMOOTH",
"456 740 OFFCURVE",
"446 730 OFFCURVE",
"435 706 CURVE SMOOTH",
"386 600 OFFCURVE",
"309 410 OFFCURVE",
"238 266 CURVE SMOOTH",
"156 101 OFFCURVE",
"112 53 OFFCURVE",
"33 53 CURVE SMOOTH",
"-1 53 OFFCURVE",
"-19 78 OFFCURVE",
"-22 120 CURVE",
"-52 112 OFFCURVE",
"-68 92 OFFCURVE",
"-68 63 CURVE SMOOTH",
"-68 22 OFFCURVE",
"-25 -11 OFFCURVE",
"31 -11 CURVE SMOOTH"
);
}
);
width = 760;
}
);
note = A;
unicode = 0041;
},
{
glyphname = B;
lastChange = "2018-02-28 09:27:40 +0000";
layers = (
{
layerId = "0B1DFD06-3317-40CA-B510-4969A0718C16";
paths = (
{
closed = 1;
nodes = (
"571 -16 OFFCURVE",
"675 78 OFFCURVE",
"675 179 CURVE SMOOTH",
"675 326 OFFCURVE",
"539 370 OFFCURVE",
"458 376 CURVE",
"461 366 LINE",
"577 401 OFFCURVE",
"619 459 OFFCURVE",
"619 533 CURVE SMOOTH",
"619 662 OFFCURVE",
"499 701 OFFCURVE",
"264 701 CURVE SMOOTH",
"175 701 OFFCURVE",
"130 704 OFFCURVE",
"63 704 CURVE SMOOTH",
"7 704 OFFCURVE",
"1 711 OFFCURVE",
"-13 718 CURVE",
"-17 709 OFFCURVE",
"-20 694 OFFCURVE",
"-20 676 CURVE SMOOTH",
"-20 656 OFFCURVE",
"-8 651 OFFCURVE",
"15 651 CURVE SMOOTH",
"44 651 OFFCURVE",
"128 669 OFFCURVE",
"175 669 CURVE SMOOTH",
"187 669 OFFCURVE",
"194 661 OFFCURVE",
"194 651 CURVE SMOOTH",
"194 434 OFFCURVE",
"191 295 OFFCURVE",
"178 86 CURVE SMOOTH",
"176 53 OFFCURVE",
"176 33 OFFCURVE",
"162 5 CURVE",
"176 0 OFFCURVE",
"188 -3 OFFCURVE",
"202 -3 CURVE SMOOTH",
"230 -3 OFFCURVE",
"238 22 OFFCURVE",
"237 41 CURVE SMOOTH",
"230 213 OFFCURVE",
"230 391 OFFCURVE",
"243 558 CURVE SMOOTH",
"250 647 OFFCURVE",
"254 670 OFFCURVE",
"317 670 CURVE SMOOTH",
"429 670 OFFCURVE",
"559 641 OFFCURVE",
"559 531 CURVE SMOOTH",
"559 443 OFFCURVE",
"495 387 OFFCURVE",
"394 387 CURVE SMOOTH",
"368 387 OFFCURVE",
"338 390 OFFCURVE",
"321 391 CURVE",
"315 385 OFFCURVE",
"317 373 OFFCURVE",
"320 361 CURVE SMOOTH",
"323 345 OFFCURVE",
"330 338 OFFCURVE",
"336 337 CURVE",
"367 341 OFFCURVE",
"403 341 OFFCURVE",
"433 341 CURVE SMOOTH",
"541 341 OFFCURVE",
"610 281 OFFCURVE",
"610 188 CURVE SMOOTH",
"610 98 OFFCURVE",
"539 27 OFFCURVE",
"422 26 CURVE SMOOTH",
"333 25 OFFCURVE",
"277 45 OFFCURVE",
"215 100 CURVE",
"209 94 OFFCURVE",
"197 83 OFFCURVE",
"197 63 CURVE SMOOTH",
"197 29 OFFCURVE",
"305 -18 OFFCURVE",
"427 -17 CURVE SMOOTH"
);
}
);
width = 730;
},
{
layerId = "4C458150-A1D2-4ED7-A293-C8767657F79E";
paths = (
{
closed = 1;
nodes = (
"573 -17 OFFCURVE",
"656 109 OFFCURVE",
"656 203 CURVE SMOOTH",
"656 319 OFFCURVE",
"529 370 OFFCURVE",
"459 376 CURVE",
"460 366 LINE",
"572 401 OFFCURVE",
"623 485 OFFCURVE",
"623 563 CURVE SMOOTH",
"623 680 OFFCURVE",
"498 700 OFFCURVE",
"303 700 CURVE SMOOTH",
"282 700 OFFCURVE",
"213 703 OFFCURVE",
"146 703 CURVE SMOOTH",
"85 703 OFFCURVE",
"80 710 OFFCURVE",
"72 717 CURVE",
"69 708 OFFCURVE",
"65 687 OFFCURVE",
"66 671 CURVE SMOOTH",
"67 655 OFFCURVE",
"80 648 OFFCURVE",
"97 648 CURVE SMOOTH",
"126 648 OFFCURVE",
"206 668 OFFCURVE",
"243 668 CURVE SMOOTH",
"252 668 OFFCURVE",
"256 665 OFFCURVE",
"256 655 CURVE SMOOTH",
"256 617 OFFCURVE",
"161 224 OFFCURVE",
"130 96 CURVE SMOOTH",
"122 63 OFFCURVE",
"113 42 OFFCURVE",
"98 15 CURVE",
"105 12 OFFCURVE",
"115 7 OFFCURVE",
"124 7 CURVE SMOOTH",
"146 7 OFFCURVE",
"164 12 OFFCURVE",
"173 62 CURVE SMOOTH",
"197 198 OFFCURVE",
"249 445 OFFCURVE",
"282 564 CURVE SMOOTH",
"305 646 OFFCURVE",
"308 669 OFFCURVE",
"371 669 CURVE SMOOTH",
"470 669 OFFCURVE",
"561 650 OFFCURVE",
"561 551 CURVE SMOOTH",
"561 455 OFFCURVE",
"498 387 OFFCURVE",
"397 387 CURVE SMOOTH",
"371 387 OFFCURVE",
"341 390 OFFCURVE",
"325 391 CURVE",
"318 385 OFFCURVE",
"317 373 OFFCURVE",
"318 361 CURVE SMOOTH",
"319 345 OFFCURVE",
"324 338 OFFCURVE",
"330 337 CURVE",
"362 341 OFFCURVE",
"398 341 OFFCURVE",
"428 341 CURVE SMOOTH",
"531 341 OFFCURVE",
"593 287 OFFCURVE",
"593 212 CURVE SMOOTH",
"593 105 OFFCURVE",
"506 24 OFFCURVE",
"370 24 CURVE SMOOTH",
"269 24 OFFCURVE",
"208 61 OFFCURVE",
"167 97 CURVE",
"151 94 OFFCURVE",
"144 85 OFFCURVE",
"144 73 CURVE SMOOTH",
"144 38 OFFCURVE",
"251 -17 OFFCURVE",
"375 -17 CURVE SMOOTH"
);
}
);
width = 730;
},
{
layerId = "D07BE892-06F6-46A5-91A1-F9C5A6E66C70";
paths = (
{
closed = 1;
nodes = (
"601 -16 OFFCURVE",
"685 78 OFFCURVE",
"685 179 CURVE SMOOTH",
"685 326 OFFCURVE",
"549 370 OFFCURVE",
"458 376 CURVE",
"461 366 LINE",
"587 391 OFFCURVE",
"629 459 OFFCURVE",
"629 533 CURVE SMOOTH",
"629 662 OFFCURVE",
"489 700 OFFCURVE",
"294 700 CURVE SMOOTH",
"205 700 OFFCURVE",
"130 700 OFFCURVE",
"63 700 CURVE SMOOTH",
"7 700 OFFCURVE",
"1 707 OFFCURVE",
"-13 714 CURVE",
"-17 705 OFFCURVE",
"-20 685 OFFCURVE",
"-20 667 CURVE SMOOTH",
"-20 647 OFFCURVE",
"-8 642 OFFCURVE",
"15 642 CURVE SMOOTH",
"44 642 OFFCURVE",
"107 655 OFFCURVE",
"154 655 CURVE SMOOTH",
"166 655 OFFCURVE",
"174 647 OFFCURVE",
"174 637 CURVE SMOOTH",
"174 420 OFFCURVE",
"171 295 OFFCURVE",
"158 86 CURVE SMOOTH",
"156 53 OFFCURVE",
"156 33 OFFCURVE",
"142 5 CURVE",
"156 0 OFFCURVE",
"188 -3 OFFCURVE",
"202 -3 CURVE SMOOTH",
"230 -3 OFFCURVE",
"258 22 OFFCURVE",
"257 41 CURVE SMOOTH",
"250 213 OFFCURVE",
"259 387 OFFCURVE",
"263 554 CURVE SMOOTH",
"265 643 OFFCURVE",
"275 656 OFFCURVE",
"347 656 CURVE SMOOTH",
"459 656 OFFCURVE",
"529 611 OFFCURVE",
"529 521 CURVE SMOOTH",
"529 443 OFFCURVE",
"470 392 OFFCURVE",
"394 392 CURVE SMOOTH",
"368 392 OFFCURVE",
"338 395 OFFCURVE",
"321 396 CURVE",
"315 390 OFFCURVE",
"317 378 OFFCURVE",
"320 366 CURVE SMOOTH",
"324 350 OFFCURVE",
"330 333 OFFCURVE",
"336 332 CURVE",
"367 336 OFFCURVE",
"393 336 OFFCURVE",
"423 336 CURVE SMOOTH",
"531 336 OFFCURVE",
"580 281 OFFCURVE",
"580 188 CURVE SMOOTH",
"580 98 OFFCURVE",
"539 37 OFFCURVE",
"422 36 CURVE SMOOTH",
"333 35 OFFCURVE",
"277 55 OFFCURVE",
"215 110 CURVE",
"209 104 OFFCURVE",
"197 83 OFFCURVE",
"197 63 CURVE SMOOTH",
"197 29 OFFCURVE",
"305 -18 OFFCURVE",
"427 -17 CURVE SMOOTH"
);
}
);
width = 730;
}
);
note = B;
unicode = 0042;
},
{
glyphname = C;
lastChange = "2018-02-28 09:51:34 +0000";
layers = (
{
anchors = (
{
name = bottom;
position = "{385, 0}";
},
{
name = top;
position = "{400, 680}";
}
);
hints = (
{
horizontal = 1;
origin = "{0, 15}";
target = "{0, 24}";
},
{
horizontal = 1;
origin = "{0, 9}";
target = "{0, 30}";
},
{
origin = "{0, 12}";
target = "{0, 27}";
},
{
origin = "{0, 36}";
target = "{0, 0}";
},
{
origin = "{0, 21}";
target = "{0, 18}";
}
);
layerId = "0B1DFD06-3317-40CA-B510-4969A0718C16";
paths = (
{
closed = 1;
nodes = (
"633 504 LINE",
"630 526 OFFCURVE",
"628 550 OFFCURVE",
"628 573 CURVE SMOOTH",
"628 600 OFFCURVE",
"630 625 OFFCURVE",
"634 644 CURVE",
"596 690 OFFCURVE",
"496 716 OFFCURVE",
"401 716 CURVE SMOOTH",
"178 716 OFFCURVE",
"56 550 OFFCURVE",
"56 329 CURVE SMOOTH",
"56 129 OFFCURVE",
"177 -17 OFFCURVE",
"369 -17 CURVE SMOOTH",
"559 -17 OFFCURVE",
"680 129 OFFCURVE",
"680 222 CURVE SMOOTH",
"680 259 OFFCURVE",
"665 275 OFFCURVE",
"646 275 CURVE",
"621 124 OFFCURVE",
"521 31 OFFCURVE",
"371 31 CURVE SMOOTH",
"219 31 OFFCURVE",
"114 160 OFFCURVE",
"114 325 CURVE SMOOTH",
"114 518 OFFCURVE",
"215 674 OFFCURVE",
"402 674 CURVE SMOOTH",
"513 674 OFFCURVE",
"568 645 OFFCURVE",
"589 577 CURVE SMOOTH",
"595 558 OFFCURVE",
"606 513 OFFCURVE",
"608 500 CURVE"
);
}
);
width = 740;
},
{
anchors = (
{
name = bottom;
position = "{343, 0}";
},
{
name = top;
position = "{496, 700}";
}
);
layerId = "4C458150-A1D2-4ED7-A293-C8767657F79E";
paths = (
{
closed = 1;
nodes = (
"680 504 LINE",
"682 551 OFFCURVE",
"693 609 OFFCURVE",
"706 644 CURVE",
"676 690 OFFCURVE",
"591 716 OFFCURVE",
"506 716 CURVE SMOOTH",
"265 716 OFFCURVE",
"75 491 OFFCURVE",
"75 246 CURVE SMOOTH",
"75 70 OFFCURVE",
"203 -17 OFFCURVE",
"344 -17 CURVE SMOOTH",
"545 -17 OFFCURVE",
"713 157 OFFCURVE",
"713 258 CURVE SMOOTH",
"713 284 OFFCURVE",
"702 295 OFFCURVE",
"686 295 CURVE",
"621 124 OFFCURVE",
"495 31 OFFCURVE",
"345 31 CURVE SMOOTH",
"236 31 OFFCURVE",
"133 105 OFFCURVE",
"133 250 CURVE SMOOTH",
"133 461 OFFCURVE",
"298 674 OFFCURVE",
"499 674 CURVE SMOOTH",
"600 674 OFFCURVE",
"638 644 OFFCURVE",
"649 577 CURVE SMOOTH",
"652 558 OFFCURVE",
"655 513 OFFCURVE",
"655 500 CURVE"
);
}
);
width = 760;
},
{
anchors = (
{
name = bottom;
position = "{395, 0}";
},
{
name = top;
position = "{400, 680}";
}
);
hints = (
{
horizontal = 1;
origin = "{0, 15}";
target = "{0, 24}";
},
{
horizontal = 1;
origin = "{0, 9}";
target = "{0, 30}";
},
{
origin = "{0, 12}";
target = "{0, 27}";
},
{
origin = "{0, 36}";
target = "{0, 0}";
},
{
origin = "{0, 21}";
target = "{0, 18}";
}
);
layerId = "D07BE892-06F6-46A5-91A1-F9C5A6E66C70";
paths = (
{
closed = 1;
nodes = (
"643 484 LINE",
"641 506 OFFCURVE",
"640 530 OFFCURVE",
"640 553 CURVE SMOOTH",
"640 575 OFFCURVE",
"643 610 OFFCURVE",
"653 629 CURVE",
"615 675 OFFCURVE",
"516 716 OFFCURVE",
"401 716 CURVE SMOOTH",
"190 716 OFFCURVE",
"56 560 OFFCURVE",
"56 339 CURVE SMOOTH",
"56 113 OFFCURVE",
"203 -17 OFFCURVE",
"389 -17 CURVE SMOOTH",
"569 -17 OFFCURVE",
"680 89 OFFCURVE",
"680 192 CURVE SMOOTH",
"680 239 OFFCURVE",
"665 265 OFFCURVE",
"626 265 CURVE",
"611 144 OFFCURVE",
"541 41 OFFCURVE",
"391 41 CURVE SMOOTH",
"259 41 OFFCURVE",
"154 144 OFFCURVE",
"154 335 CURVE SMOOTH",
"154 528 OFFCURVE",
"235 664 OFFCURVE",
"402 664 CURVE SMOOTH",
"503 664 OFFCURVE",
"556 619 OFFCURVE",
"588 557 CURVE SMOOTH",
"600 534 OFFCURVE",
"609 504 OFFCURVE",
"611 480 CURVE"
);
}
);
width = 760;
}
);
note = C;
unicode = 0043;
},
{
glyphname = D;
lastChange = "2018-02-28 09:58:25 +0000";
layers = (
{
anchors = (
{
name = bottom;
position = "{418, 0}";
},
{
name = center;
position = "{418, 350}";
},
{
name = top;
position = "{418, 680}";
}
);
layerId = "0B1DFD06-3317-40CA-B510-4969A0718C16";
paths = (
{
closed = 1;
nodes = (
"635 -13 OFFCURVE",
"760 133 OFFCURVE",
"760 335 CURVE SMOOTH",
"760 587 OFFCURVE",
"619 707 OFFCURVE",
"349 707 CURVE SMOOTH",
"244 707 OFFCURVE",
"172 696 OFFCURVE",
"51 696 CURVE SMOOTH",
"21 696 OFFCURVE",
"-7 698 OFFCURVE",
"-21 705 CURVE",
"-23 701 OFFCURVE",
"-26 691 OFFCURVE",
"-26 682 CURVE SMOOTH",
"-26 657 OFFCURVE",
"-12 644 OFFCURVE",
"8 644 CURVE SMOOTH",
"76 644 OFFCURVE",
"141 665 OFFCURVE",
"173 665 CURVE SMOOTH",
"187 665 OFFCURVE",
"190 661 OFFCURVE",
"190 645 CURVE SMOOTH",
"190 546 OFFCURVE",
"190 134 OFFCURVE",
"184 69 CURVE SMOOTH",
"182 46 OFFCURVE",
"177 37 OFFCURVE",
"169 23 CURVE",
"181 16 OFFCURVE",
"194 8 OFFCURVE",
"213 8 CURVE SMOOTH",
"266 8 OFFCURVE",
"295 -13 OFFCURVE",
"423 -13 CURVE SMOOTH"
);
},
{
closed = 1;
nodes = (
"354 30 OFFCURVE",
"316 36 OFFCURVE",
"265 55 CURVE SMOOTH",
"249 61 OFFCURVE",
"243 75 OFFCURVE",
"243 88 CURVE SMOOTH",
"243 96 OFFCURVE",
"243 107 OFFCURVE",
"243 114 CURVE SMOOTH",
"243 277 OFFCURVE",
"251 544 OFFCURVE",
"251 639 CURVE SMOOTH",
"251 658 OFFCURVE",
"257 670 OFFCURVE",
"339 670 CURVE SMOOTH",
"584 670 OFFCURVE",
"701 560 OFFCURVE",
"701 330 CURVE SMOOTH",
"701 157 OFFCURVE",
"592 30 OFFCURVE",
"419 30 CURVE SMOOTH"
);
}
);
width = 820;
},
{
anchors = (
{
name = bottom;
position = "{424, 0}";
},
{
name = center;
position = "{486, 350}";
},
{
name = top;
position = "{569, 700}";
}
);
layerId = "4C458150-A1D2-4ED7-A293-C8767657F79E";
paths = (
{
closed = 1;
nodes = (
"607 -13 OFFCURVE",
"777 133 OFFCURVE",
"777 377 CURVE SMOOTH",
"777 628 OFFCURVE",
"598 705 OFFCURVE",
"405 705 CURVE SMOOTH",
"290 705 OFFCURVE",
"216 694 OFFCURVE",
"105 694 CURVE SMOOTH",
"75 694 OFFCURVE",
"50 701 OFFCURVE",
"35 709 CURVE",
"32 700 OFFCURVE",
"30 691 OFFCURVE",
"30 683 CURVE SMOOTH",
"30 655 OFFCURVE",
"45 644 OFFCURVE",
"65 644 CURVE SMOOTH",
"128 644 OFFCURVE",
"202 662 OFFCURVE",
"237 662 CURVE SMOOTH",
"248 662 OFFCURVE",
"256 654 OFFCURVE",
"256 645 CURVE SMOOTH",
"256 597 OFFCURVE",
"168 171 OFFCURVE",
"152 96 CURVE SMOOTH",
"147 73 OFFCURVE",
"140 64 OFFCURVE",
"129 50 CURVE",
"140 43 OFFCURVE",
"151 35 OFFCURVE",
"170 35 CURVE SMOOTH",
"223 35 OFFCURVE",
"284 -13 OFFCURVE",
"412 -13 CURVE SMOOTH"
);
},
{
closed = 1;
nodes = (
"339 30 OFFCURVE",
"277 50 OFFCURVE",
"231 81 CURVE SMOOTH",
"219 89 OFFCURVE",
"214 96 OFFCURVE",
"214 107 CURVE SMOOTH",
"214 111 OFFCURVE",
"219 138 OFFCURVE",
"221 147 CURVE SMOOTH",
"252 307 OFFCURVE",
"276 430 OFFCURVE",
"318 639 CURVE SMOOTH",
"322 659 OFFCURVE",
"339 668 OFFCURVE",
"388 668 CURVE SMOOTH",
"568 668 OFFCURVE",
"720 609 OFFCURVE",
"720 381 CURVE SMOOTH",
"720 179 OFFCURVE",
"580 30 OFFCURVE",
"406 30 CURVE SMOOTH"
);
}
);
width = 820;
},
{
anchors = (
{
name = bottom;
position = "{418, 0}";
},
{
name = center;
position = "{418, 350}";
},
{
name = top;
position = "{418, 680}";
}
);
layerId = "D07BE892-06F6-46A5-91A1-F9C5A6E66C70";
paths = (
{
closed = 1;
nodes = (
"635 -13 OFFCURVE",
"770 123 OFFCURVE",
"770 345 CURVE SMOOTH",
"770 567 OFFCURVE",
"629 707 OFFCURVE",
"369 707 CURVE SMOOTH",
"264 707 OFFCURVE",
"172 694 OFFCURVE",
"51 694 CURVE SMOOTH",
"21 694 OFFCURVE",
"-3 697 OFFCURVE",
"-19 703 CURVE",
"-24 691 OFFCURVE",
"-26 672 OFFCURVE",
"-26 660 CURVE SMOOTH",
"-26 636 OFFCURVE",
"-13 624 OFFCURVE",
"12 624 CURVE SMOOTH",
"56 624 OFFCURVE",
"132 645 OFFCURVE",
"151 645 CURVE SMOOTH",
"165 645 OFFCURVE",
"170 637 OFFCURVE",
"170 621 CURVE SMOOTH",
"170 522 OFFCURVE",
"170 129 OFFCURVE",
"164 64 CURVE SMOOTH",
"162 41 OFFCURVE",
"157 32 OFFCURVE",
"149 18 CURVE",
"161 11 OFFCURVE",
"174 3 OFFCURVE",
"193 3 CURVE SMOOTH",
"246 3 OFFCURVE",
"295 -13 OFFCURVE",
"423 -13 CURVE SMOOTH"
);
},
{
closed = 1;
nodes = (
"363 40 OFFCURVE",
"315 50 OFFCURVE",
"285 63 CURVE SMOOTH",
"269 70 OFFCURVE",
"263 75 OFFCURVE",
"263 91 CURVE SMOOTH",
"263 103 OFFCURVE",
"263 128 OFFCURVE",
"263 150 CURVE SMOOTH",
"263 313 OFFCURVE",
"271 524 OFFCURVE",
"271 619 CURVE SMOOTH",
"271 653 OFFCURVE",
"277 660 OFFCURVE",
"369 660 CURVE SMOOTH",
"574 660 OFFCURVE",
"671 540 OFFCURVE",
"671 340 CURVE SMOOTH",
"671 147 OFFCURVE",
"566 40 OFFCURVE",
"416 40 CURVE SMOOTH"
);
}
);
width = 830;
}
);
note = D;
unicode = 0044;
},
{
glyphname = E;
lastChange = "2018-03-02 07:47:31 +0000";
layers = (
{
anchors = (
{
name = bottom;
position = "{407, 0}";
},
{
name = ogonek;
position = "{666, 33}";
},
{
name = top;
position = "{407, 680}";
},
{
name = topleft;
position = "{24, 700}";
}
);
layerId = "0B1DFD06-3317-40CA-B510-4969A0718C16";
paths = (
{
closed = 1;
nodes = (
"473 -13 OFFCURVE",
"543 -4 OFFCURVE",
"638 15 CURVE SMOOTH",
"673 22 OFFCURVE",
"676 36 OFFCURVE",
"676 72 CURVE SMOOTH",
"676 92 OFFCURVE",
"678 104 OFFCURVE",
"683 113 CURVE",
"682 115 OFFCURVE",
"679 117 OFFCURVE",
"675 118 CURVE",
"607 42 OFFCURVE",
"456 32 OFFCURVE",
"357 32 CURVE SMOOTH",
"231 32 OFFCURVE",
"216 65 OFFCURVE",
"216 210 CURVE SMOOTH",
"216 307 OFFCURVE",
"227 546 OFFCURVE",
"242 644 CURVE SMOOTH",
"244 657 OFFCURVE",
"252 661 OFFCURVE",
"270 661 CURVE SMOOTH",
"347 661 OFFCURVE",
"486 657 OFFCURVE",
"571 646 CURVE SMOOTH",
"595 643 OFFCURVE",
"602 626 OFFCURVE",
"609 611 CURVE",
"619 613 LINE",
"617 635 OFFCURVE",
"632 677 OFFCURVE",
"634 687 CURVE",
"629 694 OFFCURVE",
"619 702 OFFCURVE",
"611 702 CURVE SMOOTH",
"511 702 OFFCURVE",
"260 701 OFFCURVE",
"216 701 CURVE SMOOTH",
"149 701 OFFCURVE",
"91 703 OFFCURVE",
"23 708 CURVE",
"20 703 OFFCURVE",
"17 684 OFFCURVE",
"17 667 CURVE SMOOTH",
"17 658 OFFCURVE",
"17 650 OFFCURVE",
"19 644 CURVE",
"23 643 LINE",
"62 656 OFFCURVE",
"108 659 OFFCURVE",
"154 659 CURVE SMOOTH",
"179 659 OFFCURVE",
"181 647 OFFCURVE",
"181 573 CURVE SMOOTH",
"181 443 OFFCURVE",
"164 304 OFFCURVE",
"164 177 CURVE SMOOTH",
"164 13 OFFCURVE",
"196 -13 OFFCURVE",
"365 -13 CURVE SMOOTH"
);
},
{
closed = 1;
nodes = (
"187 349 OFFCURVE",
"497 349 OFFCURVE",
"561 349 CURVE SMOOTH",
"573 349 OFFCURVE",
"578 352 OFFCURVE",
"578 367 CURVE SMOOTH",
"578 382 OFFCURVE",
"580 399 OFFCURVE",
"583 408 CURVE",
"577 413 LINE",
"530 398 OFFCURVE",
"485 395 OFFCURVE",
"346 395 CURVE SMOOTH",
"267 395 OFFCURVE",
"176 395 OFFCURVE",
"149 395 CURVE SMOOTH",
"138 395 OFFCURVE",
"124 367 OFFCURVE",
"124 357 CURVE SMOOTH",
"124 352 OFFCURVE",
"128 349 OFFCURVE",
"139 349 CURVE"
);
}
);
width = 712;
},
{
anchors = (
{
name = bottom;
position = "{383, 0}";
},
{
name = ogonek;
position = "{652, 43}";
},
{
name = top;
position = "{485, 700}";
}
);
layerId = "4C458150-A1D2-4ED7-A293-C8767657F79E";
paths = (
{
closed = 1;
nodes = (
"439 -13 OFFCURVE",
"513 -5 OFFCURVE",
"611 15 CURVE SMOOTH",
"631 19 OFFCURVE",
"645 30 OFFCURVE",
"649 44 CURVE SMOOTH",
"652 55 OFFCURVE",
"657 102 OFFCURVE",
"668 114 CURVE",
"666 117 OFFCURVE",
"663 120 OFFCURVE",
"660 120 CURVE",
"579 44 OFFCURVE",
"430 32 OFFCURVE",
"311 32 CURVE SMOOTH",
"245 32 OFFCURVE",
"204 37 OFFCURVE",
"200 86 CURVE SMOOTH",
"197 140 OFFCURVE",
"218 225 OFFCURVE",
"256 372 CURVE SMOOTH",
"281 465 OFFCURVE",
"307 553 OFFCURVE",
"341 645 CURVE SMOOTH",
"346 658 OFFCURVE",
"354 662 OFFCURVE",
"372 662 CURVE SMOOTH",
"449 662 OFFCURVE",
"561 658 OFFCURVE",
"644 647 CURVE SMOOTH",
"667 644 OFFCURVE",
"672 630 OFFCURVE",
"676 615 CURVE",
"686 614 LINE",
"688 636 OFFCURVE",
"710 678 OFFCURVE",
"714 688 CURVE",
"710 695 OFFCURVE",
"702 703 OFFCURVE",
"694 703 CURVE SMOOTH",
"594 703 OFFCURVE",
"342 702 OFFCURVE",
"298 702 CURVE SMOOTH",
"231 702 OFFCURVE",
"174 704 OFFCURVE",
"107 709 CURVE",
"100 702 OFFCURVE",
"90 664 OFFCURVE",
"91 645 CURVE",
"95 644 LINE",
"136 657 OFFCURVE",
"190 660 OFFCURVE",
"256 660 CURVE SMOOTH",
"261 660 OFFCURVE",
"265 658 OFFCURVE",
"267 655 CURVE SMOOTH",
"275 633 OFFCURVE",
"214 403 OFFCURVE",
"207 374 CURVE SMOOTH",
"170 228 OFFCURVE",
"139 113 OFFCURVE",
"142 63 CURVE SMOOTH",
"145 20 OFFCURVE",
"169 -13 OFFCURVE",
"341 -13 CURVE SMOOTH"
);
},
{
closed = 1;
nodes = (
"224 349 OFFCURVE",
"523 349 OFFCURVE",
"587 349 CURVE SMOOTH",
"596 349 OFFCURVE",
"601 353 OFFCURVE",
"602 360 CURVE SMOOTH",
"606 386 OFFCURVE",
"609 399 OFFCURVE",
"614 408 CURVE",
"608 413 LINE",
"543 395 OFFCURVE",
"484 395 OFFCURVE",
"372 395 CURVE SMOOTH",
"341 395 OFFCURVE",
"215 395 OFFCURVE",
"187 395 CURVE SMOOTH",
"174 395 OFFCURVE",
"156 368 OFFCURVE",
"156 360 CURVE SMOOTH",
"156 352 OFFCURVE",
"164 349 OFFCURVE",
"176 349 CURVE"
);
}
);
width = 712;
},
{
anchors = (
{
name = bottom;
position = "{407, 0}";
},
{
name = ogonek;
position = "{666, 33}";
},
{
name = top;
position = "{407, 680}";
},
{
name = topleft;
position = "{24, 700}";
}
);
layerId = "D07BE892-06F6-46A5-91A1-F9C5A6E66C70";
paths = (
{
closed = 1;
nodes = (
"473 -13 OFFCURVE",
"543 -4 OFFCURVE",
"638 15 CURVE SMOOTH",
"673 22 OFFCURVE",
"676 56 OFFCURVE",
"676 92 CURVE SMOOTH",
"676 112 OFFCURVE",
"678 124 OFFCURVE",
"683 133 CURVE",
"682 135 OFFCURVE",
"679 137 OFFCURVE",
"675 138 CURVE",
"607 62 OFFCURVE",
"456 46 OFFCURVE",
"357 46 CURVE SMOOTH",
"247 46 OFFCURVE",
"236 65 OFFCURVE",
"236 210 CURVE SMOOTH",
"236 307 OFFCURVE",
"247 536 OFFCURVE",
"262 634 CURVE SMOOTH",
"264 647 OFFCURVE",
"272 651 OFFCURVE",
"290 651 CURVE SMOOTH",
"367 651 OFFCURVE",
"486 637 OFFCURVE",
"571 626 CURVE SMOOTH",
"595 623 OFFCURVE",
"602 606 OFFCURVE",
"609 591 CURVE",
"619 593 LINE",
"617 615 OFFCURVE",
"632 677 OFFCURVE",
"634 687 CURVE",
"629 694 OFFCURVE",
"619 702 OFFCURVE",
"611 702 CURVE SMOOTH",
"511 702 OFFCURVE",
"260 701 OFFCURVE",
"216 701 CURVE SMOOTH",
"149 701 OFFCURVE",
"91 703 OFFCURVE",
"23 708 CURVE",
"20 703 OFFCURVE",
"17 684 OFFCURVE",
"17 667 CURVE SMOOTH",
"17 658 OFFCURVE",
"17 640 OFFCURVE",
"19 634 CURVE",
"23 633 LINE",
"62 646 OFFCURVE",
"88 649 OFFCURVE",
"134 649 CURVE SMOOTH",
"159 649 OFFCURVE",
"161 637 OFFCURVE",
"161 573 CURVE SMOOTH",
"161 443 OFFCURVE",
"144 273 OFFCURVE",
"144 177 CURVE SMOOTH",
"144 13 OFFCURVE",
"196 -13 OFFCURVE",
"365 -13 CURVE SMOOTH"
);
},
{
closed = 1;
nodes = (
"187 349 OFFCURVE",
"497 344 OFFCURVE",
"561 344 CURVE SMOOTH",
"573 344 OFFCURVE",
"578 347 OFFCURVE",
"578 362 CURVE SMOOTH",
"578 377 OFFCURVE",
"580 409 OFFCURVE",
"583 418 CURVE",
"577 423 LINE",
"530 408 OFFCURVE",
"485 405 OFFCURVE",
"346 405 CURVE SMOOTH",
"267 405 OFFCURVE",
"176 405 OFFCURVE",
"149 405 CURVE SMOOTH",
"138 405 OFFCURVE",
"124 367 OFFCURVE",
"124 357 CURVE SMOOTH",
"124 352 OFFCURVE",
"128 349 OFFCURVE",
"139 349 CURVE"
);
}
);
width = 712;
}
);
note = E;
unicode = 0045;
},
{
glyphname = F;
lastChange = "2018-03-02 07:47:28 +0000";
layers = (
{
layerId = "0B1DFD06-3317-40CA-B510-4969A0718C16";
paths = (
{
closed = 1;
nodes = (
"146 -2 OFFCURVE",
"172 1 OFFCURVE",
"187 7 CURVE",
"182 24 OFFCURVE",
"181 57 OFFCURVE",
"181 78 CURVE SMOOTH",
"181 95 OFFCURVE",
"188 622 OFFCURVE",
"188 639 CURVE SMOOTH",
"188 653 OFFCURVE",
"194 662 OFFCURVE",
"212 662 CURVE SMOOTH",
"276 662 OFFCURVE",
"445 645 OFFCURVE",
"517 645 CURVE SMOOTH",
"526 645 OFFCURVE",
"529 651 OFFCURVE",
"529 662 CURVE SMOOTH",
"529 675 OFFCURVE",
"529 706 OFFCURVE",
"535 716 CURVE",
"533 719 OFFCURVE",
"529 722 OFFCURVE",
"525 722 CURVE",
"493 705 OFFCURVE",
"453 700 OFFCURVE",
"267 700 CURVE SMOOTH",
"213 700 OFFCURVE",
"137 701 OFFCURVE",
"37 707 CURVE",
"34 695 OFFCURVE",
"30 672 OFFCURVE",
"30 666 CURVE SMOOTH",
"30 661 OFFCURVE",
"34 659 OFFCURVE",
"43 659 CURVE SMOOTH",
"58 659 OFFCURVE",
"106 663 OFFCURVE",
"120 662 CURVE SMOOTH",
"131 661 OFFCURVE",
"134 655 OFFCURVE",
"134 639 CURVE SMOOTH",
"134 492 OFFCURVE",
"123 265 OFFCURVE",
"123 51 CURVE SMOOTH",
"123 41 OFFCURVE",
"122 31 OFFCURVE",
"122 23 CURVE SMOOTH",
"122 8 OFFCURVE",
"124 -2 OFFCURVE",
"133 -2 CURVE SMOOTH"
);
},
{
closed = 1;
nodes = (
"511 335 OFFCURVE",
"512 367 OFFCURVE",
"518 382 CURVE",
"513 386 LINE",
"459 369 OFFCURVE",
"387 362 OFFCURVE",
"311 362 CURVE SMOOTH",
"246 362 OFFCURVE",
"205 365 OFFCURVE",
"170 368 CURVE",
"167 325 LINE",
"248 325 OFFCURVE",
"479 323 OFFCURVE",
"511 323 CURVE"
);
}
);
width = 580;
},
{
layerId = "4C458150-A1D2-4ED7-A293-C8767657F79E";
paths = (
{
closed = 1;
nodes = (
"112 -4 OFFCURVE",
"136 -3 OFFCURVE",
"146 3 CURVE",
"146 7 OFFCURVE",
"145 12 OFFCURVE",
"145 19 CURVE SMOOTH",
"145 37 OFFCURVE",
"148 57 OFFCURVE",
"152 74 CURVE SMOOTH",
"156 91 OFFCURVE",
"266 630 OFFCURVE",
"270 641 CURVE SMOOTH",
"275 655 OFFCURVE",
"278 662 OFFCURVE",
"296 662 CURVE SMOOTH",
"360 662 OFFCURVE",
"530 648 OFFCURVE",
"602 648 CURVE SMOOTH",
"611 648 OFFCURVE",
"615 654 OFFCURVE",
"617 665 CURVE SMOOTH",
"619 678 OFFCURVE",
"622 707 OFFCURVE",
"631 719 CURVE",
"629 722 OFFCURVE",
"626 724 OFFCURVE",
"622 725 CURVE",
"580 701 OFFCURVE",
"547 700 OFFCURVE",
"361 700 CURVE SMOOTH",
"307 700 OFFCURVE",
"234 701 OFFCURVE",
"134 707 CURVE",
"125 692 OFFCURVE",
"121 672 OFFCURVE",
"121 666 CURVE SMOOTH",
"121 663 OFFCURVE",
"124 661 OFFCURVE",
"133 661 CURVE SMOOTH",
"145 661 OFFCURVE",
"175 664 OFFCURVE",
"194 664 CURVE SMOOTH",
"211 664 OFFCURVE",
"216 658 OFFCURVE",
"216 644 CURVE SMOOTH",
"216 620 OFFCURVE",
"135 262 OFFCURVE",
"89 47 CURVE SMOOTH",
"86 33 OFFCURVE",
"83 20 OFFCURVE",
"83 11 CURVE SMOOTH",
"83 0 OFFCURVE",
"87 -4 OFFCURVE",
"100 -4 CURVE SMOOTH"
);
},
{
closed = 1;
nodes = (
"541 339 OFFCURVE",
"550 375 OFFCURVE",
"554 382 CURVE",
"550 386 LINE",
"493 369 OFFCURVE",
"420 362 OFFCURVE",
"344 362 CURVE SMOOTH",
"279 362 OFFCURVE",
"239 364 OFFCURVE",
"204 367 CURVE",
"193 325 LINE",
"274 325 OFFCURVE",
"509 323 OFFCURVE",
"541 323 CURVE"
);
}
);
width = 563;
},
{
layerId = "D07BE892-06F6-46A5-91A1-F9C5A6E66C70";
paths = (
{
closed = 1;
nodes = (
"174 -2 OFFCURVE",
"195 5 OFFCURVE",
"208 12 CURVE",
"203 29 OFFCURVE",
"201 62 OFFCURVE",
"201 83 CURVE SMOOTH",
"201 100 OFFCURVE",
"208 602 OFFCURVE",
"208 619 CURVE SMOOTH",
"208 633 OFFCURVE",
"214 642 OFFCURVE",
"232 642 CURVE SMOOTH",
"296 642 OFFCURVE",
"445 625 OFFCURVE",
"517 625 CURVE SMOOTH",
"526 625 OFFCURVE",
"529 631 OFFCURVE",
"529 642 CURVE SMOOTH",
"529 655 OFFCURVE",
"529 706 OFFCURVE",
"535 716 CURVE",
"533 719 OFFCURVE",
"529 722 OFFCURVE",
"525 722 CURVE",
"493 705 OFFCURVE",
"453 700 OFFCURVE",
"267 700 CURVE SMOOTH",
"213 700 OFFCURVE",
"117 701 OFFCURVE",
"17 707 CURVE",
"14 695 OFFCURVE",
"10 662 OFFCURVE",
"10 656 CURVE SMOOTH",
"10 651 OFFCURVE",
"14 649 OFFCURVE",
"23 649 CURVE SMOOTH",
"38 649 OFFCURVE",
"86 653 OFFCURVE",
"100 652 CURVE SMOOTH",
"111 651 OFFCURVE",
"114 645 OFFCURVE",
"114 629 CURVE SMOOTH",
"114 482 OFFCURVE",
"103 248 OFFCURVE",
"103 96 CURVE SMOOTH",
"103 76 OFFCURVE",
"102 52 OFFCURVE",
"102 33 CURVE SMOOTH",
"102 12 OFFCURVE",
"111 -2 OFFCURVE",
"147 -2 CURVE SMOOTH"
);
},
{
closed = 1;
nodes = (
"511 330 OFFCURVE",
"512 377 OFFCURVE",
"518 392 CURVE",
"513 396 LINE",
"459 379 OFFCURVE",
"387 372 OFFCURVE",
"311 372 CURVE SMOOTH",
"246 372 OFFCURVE",
"205 375 OFFCURVE",
"170 378 CURVE",
"167 325 LINE",
"248 325 OFFCURVE",
"479 318 OFFCURVE",
"511 318 CURVE"
);
}
);
width = 580;
}
);
note = F;
unicode = 0046;
},
{
glyphname = G;
lastChange = "2018-02-28 09:52:13 +0000";
layers = (
{
anchors = (
{
name = bottom;
position = "{391, 0}";
},
{
name = top;
position = "{404, 680}";
}
);
hints = (
{
horizontal = 1;
origin = "{0, 67}";
target = "{0, 60}";
},
{
horizontal = 1;
origin = "{0, 53}";
target = "{0, 26}";
},
{
horizontal = 1;
origin = "{0, 20}";
target = "{0, 14}";
},
{
horizontal = 1;
origin = "{0, 14}";
target = "{0, 32}";
},
{
origin = "{0, 50}";
target = "{0, 29}";
},
{
place = "{767, 71}";
},
{
origin = "{0, 23}";
target = "{0, 8}";
}
);
layerId = "0B1DFD06-3317-40CA-B510-4969A0718C16";
paths = (
{
closed = 1;
nodes = (
"511 -414 OFFCURVE",
"578 -282 OFFCURVE",
"600 -226 CURVE SMOOTH",
"650 -102 OFFCURVE",
"672 122 OFFCURVE",
"672 280 CURVE SMOOTH",
"672 309 OFFCURVE",
"681 317 OFFCURVE",
"713 326 CURVE",
"713 336 OFFCURVE",
"707 353 OFFCURVE",
"702 362 CURVE",
"639 339 OFFCURVE",
"529 337 OFFCURVE",
"443 337 CURVE",
"439 325 OFFCURVE",
"436 309 OFFCURVE",
"436 296 CURVE",
"495 300 OFFCURVE",
"554 306 OFFCURVE",
"589 306 CURVE SMOOTH",
"611 306 OFFCURVE",
"620 286 OFFCURVE",
"620 253 CURVE SMOOTH",
"620 144 OFFCURVE",
"553 24 OFFCURVE",
"386 24 CURVE SMOOTH",
"205 24 OFFCURVE",
"122 157 OFFCURVE",
"122 343 CURVE SMOOTH",
"122 521 OFFCURVE",
"228 667 OFFCURVE",
"404 667 CURVE SMOOTH",
"500 667 OFFCURVE",
"588 635 OFFCURVE",
"618 555 CURVE SMOOTH",
"624 539 OFFCURVE",
"634 498 OFFCURVE",
"637 484 CURVE",
"642 487 OFFCURVE",
"656 489 OFFCURVE",
"663 489 CURVE",
"662 558 OFFCURVE",
"667 600 OFFCURVE",
"674 639 CURVE",
"608 684 OFFCURVE",
"488 713 OFFCURVE",
"415 713 CURVE SMOOTH",
"169 713 OFFCURVE",
"62 537 OFFCURVE",
"62 343 CURVE SMOOTH",
"62 137 OFFCURVE",
"168 -21 OFFCURVE",
"386 -21 CURVE SMOOTH",
"536 -21 OFFCURVE",
"611 62 OFFCURVE",
"628 136 CURVE",
"623 155 LINE",
"593 -218 OFFCURVE",
"500 -372 OFFCURVE",
"294 -372 CURVE SMOOTH",
"235 -372 OFFCURVE",
"162 -357 OFFCURVE",
"131 -339 CURVE",
"138 -353 LINE SMOOTH",
"147 -371 OFFCURVE",
"218 -414 OFFCURVE",
"307 -414 CURVE SMOOTH"
);
}
);
width = 775;
},
{
anchors = (
{
name = bottom;
position = "{395, 0}";
},
{
name = top;
position = "{554, 700}";
}
);
hints = (
{
horizontal = 1;
origin = "{0, 67}";
target = "{0, 60}";
},
{
horizontal = 1;
origin = "{0, 53}";
target = "{0, 26}";
},
{
horizontal = 1;
origin = "{0, 20}";
target = "{0, 14}";
},
{
horizontal = 1;
origin = "{0, 14}";
target = "{0, 32}";
},
{
origin = "{0, 50}";
target = "{0, 29}";
},
{
place = "{741, 45}";
},
{
origin = "{0, 23}";
target = "{0, 8}";
}
);
layerId = "4C458150-A1D2-4ED7-A293-C8767657F79E";
paths = (
{
closed = 1;
nodes = (
"348 -414 OFFCURVE",
"439 -336 OFFCURVE",
"500 -238 CURVE SMOOTH",
"568 -128 OFFCURVE",
"657 122 OFFCURVE",
"695 280 CURVE SMOOTH",
"702 309 OFFCURVE",
"711 317 OFFCURVE",
"744 326 CURVE",
"747 332 OFFCURVE",
"742 358 OFFCURVE",
"739 362 CURVE",
"672 339 OFFCURVE",
"558 337 OFFCURVE",
"472 337 CURVE",
"465 323 OFFCURVE",
"464 309 OFFCURVE",
"465 296 CURVE",
"525 300 OFFCURVE",
"582 306 OFFCURVE",
"617 306 CURVE SMOOTH",
"635 306 OFFCURVE",
"640 297 OFFCURVE",
"640 269 CURVE SMOOTH",
"640 194 OFFCURVE",
"537 24 OFFCURVE",
"364 24 CURVE SMOOTH",
"220 24 OFFCURVE",
"148 112 OFFCURVE",
"148 256 CURVE SMOOTH",
"148 476 OFFCURVE",
"293 667 OFFCURVE",
"505 667 CURVE SMOOTH",
"601 667 OFFCURVE",
"674 635 OFFCURVE",
"689 555 CURVE SMOOTH",
"692 539 OFFCURVE",
"695 498 OFFCURVE",
"696 484 CURVE",
"701 487 OFFCURVE",
"716 489 OFFCURVE",
"723 489 CURVE",
"729 558 OFFCURVE",
"736 593 OFFCURVE",
"750 632 CURVE",
"702 677 OFFCURVE",
"607 713 OFFCURVE",
"524 713 CURVE SMOOTH",
"232 713 OFFCURVE",
"86 484 OFFCURVE",
"86 270 CURVE SMOOTH",
"86 91 OFFCURVE",
"170 -21 OFFCURVE",
"356 -21 CURVE SMOOTH",
"495 -21 OFFCURVE",
"591 67 OFFCURVE",
"631 141 CURVE",
"626 160 LINE",
"511 -200 OFFCURVE",
"381 -374 OFFCURVE",
"160 -374 CURVE SMOOTH",
"111 -374 OFFCURVE",
"56 -357 OFFCURVE",
"28 -339 CURVE",
"34 -354 LINE SMOOTH",
"47 -386 OFFCURVE",
"101 -414 OFFCURVE",
"170 -414 CURVE SMOOTH"
);
}
);
width = 775;
},
{
anchors = (
{
name = bottom;
position = "{401, 0}";
},
{
name = top;
position = "{414, 680}";
}
);
hints = (
{
horizontal = 1;
origin = "{0, 67}";
target = "{0, 60}";
},
{
horizontal = 1;
origin = "{0, 53}";
target = "{0, 26}";
},
{
horizontal = 1;
origin = "{0, 20}";
target = "{0, 14}";
},
{
horizontal = 1;
origin = "{0, 47}";
target = "{0, 32}";
},
{
origin = "{0, 50}";
target = "{0, 29}";
},
{
place = "{767, 71}";
},
{
origin = "{0, 23}";
target = "{0, 8}";
}
);
layerId = "D07BE892-06F6-46A5-91A1-F9C5A6E66C70";
paths = (
{
closed = 1;
nodes = (
"521 -414 OFFCURVE",
"598 -282 OFFCURVE",
"620 -226 CURVE SMOOTH",
"670 -102 OFFCURVE",
"692 110 OFFCURVE",
"692 268 CURVE SMOOTH",
"692 297 OFFCURVE",
"701 305 OFFCURVE",
"733 314 CURVE",
"733 324 OFFCURVE",
"727 353 OFFCURVE",
"722 362 CURVE",
"659 339 OFFCURVE",
"519 337 OFFCURVE",
"433 337 CURVE",
"429 325 OFFCURVE",
"426 294 OFFCURVE",
"426 281 CURVE",
"485 290 OFFCURVE",
"534 294 OFFCURVE",
"569 294 CURVE SMOOTH",
"597 294 OFFCURVE",
"608 264 OFFCURVE",
"608 233 CURVE SMOOTH",
"608 124 OFFCURVE",
"558 34 OFFCURVE",
"396 34 CURVE SMOOTH",
"215 34 OFFCURVE",
"152 157 OFFCURVE",
"152 343 CURVE SMOOTH",
"152 521 OFFCURVE",
"238 657 OFFCURVE",
"414 657 CURVE SMOOTH",
"510 657 OFFCURVE",
"598 635 OFFCURVE",
"628 555 CURVE SMOOTH",
"634 539 OFFCURVE",
"644 498 OFFCURVE",
"647 484 CURVE",
"652 487 OFFCURVE",
"666 489 OFFCURVE",
"673 489 CURVE",
"672 558 OFFCURVE",
"677 600 OFFCURVE",
"684 639 CURVE",
"618 684 OFFCURVE",
"498 713 OFFCURVE",
"425 713 CURVE SMOOTH",
"179 713 OFFCURVE",
"52 537 OFFCURVE",
"52 343 CURVE SMOOTH",
"52 137 OFFCURVE",
"178 -21 OFFCURVE",
"396 -21 CURVE SMOOTH",
"546 -21 OFFCURVE",
"621 72 OFFCURVE",
"638 146 CURVE",
"603 155 LINE",
"603 -195 OFFCURVE",
"510 -362 OFFCURVE",
"304 -362 CURVE SMOOTH",
"245 -362 OFFCURVE",
"172 -347 OFFCURVE",
"141 -329 CURVE",
"148 -353 LINE SMOOTH",
"154 -373 OFFCURVE",
"228 -414 OFFCURVE",
"317 -414 CURVE SMOOTH"
);
}
);
width = 795;
}
);
note = G;
unicode = 0047;
},
{
glyphname = H;
lastChange = "2018-02-28 04:50:26 +0000";
layers = (
{
anchors = (
{
name = bottom;
position = "{405, 0}";
},
{
name = center;
position = "{405, 350}";
},
{
name = top;
position = "{405, 660}";
},
{
name = topleft;
position = "{36, 700}";
}
);
layerId = "0B1DFD06-3317-40CA-B510-4969A0718C16";
paths = (
{
closed = 1;
nodes = (
"796 -6 OFFCURVE",
"874 27 OFFCURVE",
"849 79 CURVE",
"823 59 OFFCURVE",
"774 41 OFFCURVE",
"726 41 CURVE SMOOTH",
"667 41 OFFCURVE",
"643 53 OFFCURVE",
"635 98 CURVE SMOOTH",
"628 140 OFFCURVE",
"618 219 OFFCURVE",
"625 389 CURVE SMOOTH",
"630 512 OFFCURVE",
"646 676 OFFCURVE",
"664 702 CURVE SMOOTH",
"684 731 OFFCURVE",
"762 760 OFFCURVE",
"794 760 CURVE",
"792 770 OFFCURVE",
"783 787 OFFCURVE",
"766 787 CURVE SMOOTH",
"722 787 OFFCURVE",
"653 760 OFFCURVE",
"618 735 CURVE SMOOTH",
"611 730 OFFCURVE",
"607 719 OFFCURVE",
"605 706 CURVE SMOOTH",
"589 605 OFFCURVE",
"582 483 OFFCURVE",
"577 369 CURVE SMOOTH",
"572 254 OFFCURVE",
"574 148 OFFCURVE",
"586 81 CURVE SMOOTH",
"595 32 OFFCURVE",
"641 -6 OFFCURVE",
"698 -6 CURVE SMOOTH"
);
},
{
closed = 1;
nodes = (
"149 4 OFFCURVE",
"164 7 OFFCURVE",
"175 7 CURVE SMOOTH",
"186 7 OFFCURVE",
"189 11 OFFCURVE",
"190 24 CURVE SMOOTH",
"194 81 OFFCURVE",
"201 197 OFFCURVE",
"210 367 CURVE SMOOTH",
"217 507 OFFCURVE",
"218 607 OFFCURVE",
"230 686 CURVE SMOOTH",
"232 699 OFFCURVE",
"227 706 OFFCURVE",
"216 706 CURVE SMOOTH",
"185 706 OFFCURVE",
"132 696 OFFCURVE",
"25 696 CURVE SMOOTH",
"17 696 OFFCURVE",
"14 693 OFFCURVE",
"16 681 CURVE SMOOTH",
"17 674 OFFCURVE",
"24 665 OFFCURVE",
"31 654 CURVE",
"54 658 OFFCURVE",
"99 662 OFFCURVE",
"121 662 CURVE SMOOTH",
"151 662 OFFCURVE",
"160 656 OFFCURVE",
"166 634 CURVE SMOOTH",
"175 600 OFFCURVE",
"173 512 OFFCURVE",
"165 367 CURVE SMOOTH",
"155 192 OFFCURVE",
"143 83 OFFCURVE",
"126 -5 CURVE",
"132 -7 LINE"
);
},
{
closed = 1;
nodes = (
"230 339 OFFCURVE",
"341 340 OFFCURVE",
"398 340 CURVE SMOOTH",
"484 340 OFFCURVE",
"574 339 OFFCURVE",
"592 337 CURVE",
"595 383 LINE",
"549 381 OFFCURVE",
"487 380 OFFCURVE",
"395 380 CURVE SMOOTH",
"267 380 OFFCURVE",
"155 386 OFFCURVE",
"127 386 CURVE SMOOTH",
"120 386 OFFCURVE",
"117 383 OFFCURVE",
"118 376 CURVE SMOOTH",
"120 359 OFFCURVE",
"144 339 OFFCURVE",
"157 339 CURVE SMOOTH"
);
}
);
width = 800;
},
{
anchors = (
{
name = bottom;
position = "{363, 0}";
},
{
name = center;
position = "{435, 350}";
},
{
name = top;
position = "{506, 700}";
},
{
name = topleft;
position = "{126, 696}";
}
);
layerId = "4C458150-A1D2-4ED7-A293-C8767657F79E";
paths = (
{
closed = 1;
nodes = (
"746 -6 OFFCURVE",
"830 27 OFFCURVE",
"814 79 CURVE",
"785 59 OFFCURVE",
"732 41 OFFCURVE",
"684 41 CURVE SMOOTH",
"625 41 OFFCURVE",
"604 53 OFFCURVE",
"604 98 CURVE SMOOTH",
"604 140 OFFCURVE",
"608 219 OFFCURVE",
"645 389 CURVE SMOOTH",
"672 512 OFFCURVE",
"716 676 OFFCURVE",
"739 702 CURVE SMOOTH",
"765 731 OFFCURVE",
"847 760 OFFCURVE",
"879 760 CURVE",
"879 770 OFFCURVE",
"873 787 OFFCURVE",
"856 787 CURVE SMOOTH",
"812 787 OFFCURVE",
"739 759 OFFCURVE",
"699 735 CURVE SMOOTH",
"691 730 OFFCURVE",
"685 719 OFFCURVE",
"681 706 CURVE SMOOTH",
"650 606 OFFCURVE",
"618 484 OFFCURVE",
"594 370 CURVE SMOOTH",
"569 255 OFFCURVE",
"552 148 OFFCURVE",
"552 81 CURVE SMOOTH",
"552 32 OFFCURVE",
"591 -6 OFFCURVE",
"648 -6 CURVE SMOOTH"
);
},
{
closed = 1;
nodes = (
"116 4 OFFCURVE",
"131 7 OFFCURVE",
"142 7 CURVE SMOOTH",
"153 7 OFFCURVE",
"158 11 OFFCURVE",
"160 24 CURVE SMOOTH",
"177 124 OFFCURVE",
"210 240 OFFCURVE",
"246 367 CURVE SMOOTH",
"286 507 OFFCURVE",
"313 607 OFFCURVE",
"337 686 CURVE SMOOTH",
"341 699 OFFCURVE",
"338 706 OFFCURVE",
"327 706 CURVE SMOOTH",
"296 706 OFFCURVE",
"241 696 OFFCURVE",
"134 696 CURVE SMOOTH",
"126 696 OFFCURVE",
"122 693 OFFCURVE",
"122 681 CURVE SMOOTH",
"122 674 OFFCURVE",
"127 665 OFFCURVE",
"133 654 CURVE",
"156 658 OFFCURVE",
"202 662 OFFCURVE",
"224 662 CURVE SMOOTH",
"254 662 OFFCURVE",
"262 656 OFFCURVE",
"264 634 CURVE SMOOTH",
"267 600 OFFCURVE",
"241 512 OFFCURVE",
"201 367 CURVE SMOOTH",
"134 126 OFFCURVE",
"124 83 OFFCURVE",
"91 -5 CURVE",
"97 -7 LINE"
);
},
{
closed = 1;
nodes = (
"261 339 OFFCURVE",
"352 340 OFFCURVE",
"409 340 CURVE SMOOTH",
"495 340 OFFCURVE",
"585 339 OFFCURVE",
"603 337 CURVE",
"614 383 LINE",
"567 381 OFFCURVE",
"505 380 OFFCURVE",
"413 380 CURVE SMOOTH",
"285 380 OFFCURVE",
"194 386 OFFCURVE",
"166 386 CURVE SMOOTH",
"159 386 OFFCURVE",
"156 383 OFFCURVE",
"156 376 CURVE SMOOTH",
"156 359 OFFCURVE",
"175 339 OFFCURVE",
"188 339 CURVE SMOOTH"
);
}
);
width = 800;
},
{
anchors = (
{
name = bottom;
position = "{405, 0}";
},
{
name = center;
position = "{405, 350}";
},
{
name = top;
position = "{405, 660}";
},
{
name = topleft;
position = "{36, 700}";
}
);
layerId = "D07BE892-06F6-46A5-91A1-F9C5A6E66C70";
paths = (
{
closed = 1;
nodes = (
"796 -6 OFFCURVE",
"874 37 OFFCURVE",
"849 89 CURVE",
"823 69 OFFCURVE",
"774 51 OFFCURVE",
"726 51 CURVE SMOOTH",
"667 51 OFFCURVE",
"643 63 OFFCURVE",
"635 108 CURVE SMOOTH",
"628 150 OFFCURVE",
"608 219 OFFCURVE",
"615 389 CURVE SMOOTH",
"620 512 OFFCURVE",
"646 666 OFFCURVE",
"664 692 CURVE SMOOTH",
"684 721 OFFCURVE",
"762 750 OFFCURVE",
"794 750 CURVE",
"792 760 OFFCURVE",
"783 787 OFFCURVE",
"766 787 CURVE SMOOTH",
"722 787 OFFCURVE",
"613 760 OFFCURVE",
"578 735 CURVE SMOOTH",
"571 730 OFFCURVE",
"567 719 OFFCURVE",
"565 706 CURVE SMOOTH",
"549 605 OFFCURVE",
"542 483 OFFCURVE",
"537 369 CURVE SMOOTH",
"532 254 OFFCURVE",
"534 148 OFFCURVE",
"546 81 CURVE SMOOTH",
"555 32 OFFCURVE",
"641 -6 OFFCURVE",
"698 -6 CURVE SMOOTH"
);
},
{
closed = 1;
nodes = (
"139 4 OFFCURVE",
"194 7 OFFCURVE",
"205 7 CURVE SMOOTH",
"216 7 OFFCURVE",
"219 11 OFFCURVE",
"220 24 CURVE SMOOTH",
"224 81 OFFCURVE",
"231 197 OFFCURVE",
"240 367 CURVE SMOOTH",
"247 507 OFFCURVE",
"248 607 OFFCURVE",
"260 686 CURVE SMOOTH",
"262 699 OFFCURVE",
"257 706 OFFCURVE",
"246 706 CURVE SMOOTH",
"215 706 OFFCURVE",
"122 696 OFFCURVE",
"15 696 CURVE SMOOTH",
"7 696 OFFCURVE",
"4 693 OFFCURVE",
"6 681 CURVE SMOOTH",
"7 674 OFFCURVE",
"14 655 OFFCURVE",
"21 644 CURVE",
"44 648 OFFCURVE",
"89 652 OFFCURVE",
"111 652 CURVE SMOOTH",
"141 652 OFFCURVE",
"150 646 OFFCURVE",
"156 624 CURVE SMOOTH",
"165 590 OFFCURVE",
"168 514 OFFCURVE",
"165 367 CURVE SMOOTH",
"161 195 OFFCURVE",
"133 83 OFFCURVE",
"116 -5 CURVE",
"122 -7 LINE"
);
},
{
closed = 1;
nodes = (
"220 334 OFFCURVE",
"341 335 OFFCURVE",
"398 335 CURVE SMOOTH",
"484 335 OFFCURVE",
"574 334 OFFCURVE",
"592 332 CURVE",
"595 388 LINE",
"549 386 OFFCURVE",
"487 385 OFFCURVE",
"395 385 CURVE SMOOTH",
"267 385 OFFCURVE",
"145 391 OFFCURVE",
"117 391 CURVE SMOOTH",
"110 391 OFFCURVE",
"107 388 OFFCURVE",
"108 381 CURVE SMOOTH",
"110 364 OFFCURVE",
"134 334 OFFCURVE",
"147 334 CURVE SMOOTH"
);
}
);
width = 800;
}
);
note = H;
unicode = 0048;
},
{
glyphname = I;
lastChange = "2018-02-28 04:50:51 +0000";
layers = (
{
anchors = (
{
name = bottom;
position = "{200, 0}";
},
{
name = ogonek;
position = "{225, 10}";
},
{
name = top;
position = "{211, 680}";
},
{
name = topleft;
position = "{74, 700}";
}
);
layerId = "0B1DFD06-3317-40CA-B510-4969A0718C16";
paths = (
{
closed = 1;
nodes = (
"160 -4 OFFCURVE",
"166 -5 OFFCURVE",
"172 -5 CURVE SMOOTH",
"209 -5 OFFCURVE",
"231 5 OFFCURVE",
"231 40 CURVE SMOOTH",
"231 131 OFFCURVE",
"229 231 OFFCURVE",
"229 329 CURVE SMOOTH",
"229 443 OFFCURVE",
"229 554 OFFCURVE",
"233 643 CURVE SMOOTH",
"234 664 OFFCURVE",
"244 669 OFFCURVE",
"287 674 CURVE",
"286 682 OFFCURVE",
"281 701 OFFCURVE",
"273 704 CURVE",
"229 698 OFFCURVE",
"159 693 OFFCURVE",
"65 693 CURVE SMOOTH",
"53 693 OFFCURVE",
"48 685 OFFCURVE",
"48 670 CURVE SMOOTH",
"48 664 OFFCURVE",
"49 657 OFFCURVE",
"50 650 CURVE",
"74 655 OFFCURVE",
"114 657 OFFCURVE",
"141 657 CURVE SMOOTH",
"173 657 OFFCURVE",
"186 651 OFFCURVE",
"187 621 CURVE SMOOTH",
"188 592 OFFCURVE",
"188 546 OFFCURVE",
"188 506 CURVE SMOOTH",
"188 369 OFFCURVE",
"183 191 OFFCURVE",
"173 41 CURVE SMOOTH",
"172 26 OFFCURVE",
"159 19 OFFCURVE",
"141 8 CURVE",
"153 -4 LINE"
);
}
);
width = 394;
},
{
anchors = (
{
name = bottom;
position = "{138, 0}";
},
{
name = ogonek;
position = "{165, 10}";
},
{
name = top;
position = "{283, 700}";
},
{
name = topleft;
position = "{146, 700}";
}
);
layerId = "4C458150-A1D2-4ED7-A293-C8767657F79E";
paths = (
{
closed = 1;
nodes = (
"148 -7 OFFCURVE",
"177 -1 OFFCURVE",
"186 40 CURVE SMOOTH",
"227 228 OFFCURVE",
"273 486 OFFCURVE",
"316 648 CURVE SMOOTH",
"320 663 OFFCURVE",
"343 672 OFFCURVE",
"364 674 CURVE",
"365 682 OFFCURVE",
"363 701 OFFCURVE",
"355 704 CURVE",
"317 698 OFFCURVE",
"247 693 OFFCURVE",
"146 693 CURVE SMOOTH",
"130 693 OFFCURVE",
"123 678 OFFCURVE",
"123 650 CURVE",
"148 655 OFFCURVE",
"193 657 OFFCURVE",
"220 657 CURVE SMOOTH",
"252 657 OFFCURVE",
"260 651 OFFCURVE",
"260 621 CURVE SMOOTH",
"260 558 OFFCURVE",
"174 218 OFFCURVE",
"127 32 CURVE SMOOTH",
"123 17 OFFCURVE",
"109 10 OFFCURVE",
"91 8 CURVE",
"101 -4 LINE"
);
}
);
width = 394;
},
{
anchors = (
{
name = bottom;
position = "{200, 0}";
},
{
name = ogonek;
position = "{225, 10}";
},
{
name = top;
position = "{201, 680}";
},
{
name = topleft;
position = "{74, 700}";
}
);
layerId = "D07BE892-06F6-46A5-91A1-F9C5A6E66C70";
paths = (
{
closed = 1;
nodes = (
"130 -4 OFFCURVE",
"136 -5 OFFCURVE",
"142 -5 CURVE SMOOTH",
"179 -5 OFFCURVE",
"241 5 OFFCURVE",
"241 40 CURVE SMOOTH",
"241 131 OFFCURVE",
"239 231 OFFCURVE",
"239 329 CURVE SMOOTH",
"239 443 OFFCURVE",
"239 544 OFFCURVE",
"243 633 CURVE SMOOTH",
"244 654 OFFCURVE",
"254 659 OFFCURVE",
"297 664 CURVE",
"296 672 OFFCURVE",
"291 701 OFFCURVE",
"283 704 CURVE",
"239 698 OFFCURVE",
"129 693 OFFCURVE",
"35 693 CURVE SMOOTH",
"23 693 OFFCURVE",
"18 685 OFFCURVE",
"18 670 CURVE SMOOTH",
"18 654 OFFCURVE",
"19 647 OFFCURVE",
"20 640 CURVE",
"44 645 OFFCURVE",
"84 647 OFFCURVE",
"111 647 CURVE SMOOTH",
"143 647 OFFCURVE",
"156 641 OFFCURVE",
"157 611 CURVE SMOOTH",
"158 582 OFFCURVE",
"158 546 OFFCURVE",
"158 506 CURVE SMOOTH",
"158 369 OFFCURVE",
"153 191 OFFCURVE",
"143 41 CURVE SMOOTH",
"142 26 OFFCURVE",
"129 19 OFFCURVE",
"111 8 CURVE",
"123 -4 LINE"
);
}
);
width = 394;
}
);
note = I;
unicode = 0049;
},
{
glyphname = J;
lastChange = "2018-03-02 07:30:57 +0000";
layers = (
{
anchors = (
{
name = bottom;
position = "{323, 0}";
},
{
name = top;
position = "{363, 680}";
}
);
layerId = "0B1DFD06-3317-40CA-B510-4969A0718C16";
paths = (
{
closed = 1;
nodes = (
"239 -168 OFFCURVE",
"345 -91 OFFCURVE",
"353 90 CURVE SMOOTH",
"359 223 OFFCURVE",
"367 430 OFFCURVE",
"371 586 CURVE SMOOTH",
"373 664 OFFCURVE",
"378 681 OFFCURVE",
"416 681 CURVE SMOOTH",
"445 681 OFFCURVE",
"491 679 OFFCURVE",
"500 679 CURVE",
"495 700 OFFCURVE",
"486 715 OFFCURVE",
"476 715 CURVE SMOOTH",
"161 715 OFFCURVE",
"-22 649 OFFCURVE",
"-22 526 CURVE SMOOTH",
"-22 460 OFFCURVE",
"20 421 OFFCURVE",
"74 405 CURVE",
"81 405 OFFCURVE",
"89 406 OFFCURVE",
"92 408 CURVE",
"51 428 OFFCURVE",
"27 468 OFFCURVE",
"27 518 CURVE SMOOTH",
"27 612 OFFCURVE",
"151 673 OFFCURVE",
"304 673 CURVE SMOOTH",
"318 673 OFFCURVE",
"325 666 OFFCURVE",
"325 647 CURVE SMOOTH",
"325 500 OFFCURVE",
"313 240 OFFCURVE",
"302 102 CURVE SMOOTH",
"288 -70 OFFCURVE",
"215 -139 OFFCURVE",
"106 -139 CURVE SMOOTH",
"4 -139 OFFCURVE",
"-37 -94 OFFCURVE",
"-74 -37 CURVE",
"-90 -41 LINE",
"-81 -76 OFFCURVE",
"-70 -106 OFFCURVE",
"-57 -135 CURVE",
"-18 -150 OFFCURVE",
"42 -168 OFFCURVE",
"90 -168 CURVE SMOOTH"
);
}
);
width = 500;
},
{
anchors = (
{
name = bottom;
position = "{284, 0}";
},
{
name = top;
position = "{470, 700}";
}
);
layerId = "4C458150-A1D2-4ED7-A293-C8767657F79E";
paths = (
{
closed = 1;
nodes = (
"184 -168 OFFCURVE",
"281 -81 OFFCURVE",
"328 60 CURVE SMOOTH",
"390 245 OFFCURVE",
"435 430 OFFCURVE",
"471 586 CURVE SMOOTH",
"489 664 OFFCURVE",
"495 681 OFFCURVE",
"534 681 CURVE SMOOTH",
"563 681 OFFCURVE",
"599 679 OFFCURVE",
"608 679 CURVE",
"606 700 OFFCURVE",
"600 715 OFFCURVE",
"590 715 CURVE SMOOTH",
"284 715 OFFCURVE",
"46 697 OFFCURVE",
"56 546 CURVE SMOOTH",
"59 499 OFFCURVE",
"92 462 OFFCURVE",
"131 450 CURVE",
"138 450 OFFCURVE",
"146 451 OFFCURVE",
"150 453 CURVE",
"117 471 OFFCURVE",
"104 500 OFFCURVE",
"102 528 CURVE SMOOTH",
"94 645 OFFCURVE",
"274 673 OFFCURVE",
"419 673 CURVE SMOOTH",
"433 673 OFFCURVE",
"439 666 OFFCURVE",
"436 647 CURVE SMOOTH",
"413 500 OFFCURVE",
"344 262 OFFCURVE",
"279 72 CURVE SMOOTH",
"234 -60 OFFCURVE",
"165 -139 OFFCURVE",
"39 -139 CURVE SMOOTH",
"-63 -139 OFFCURVE",
"-109 -94 OFFCURVE",
"-136 -37 CURVE",
"-152 -41 LINE",
"-150 -76 OFFCURVE",
"-144 -106 OFFCURVE",
"-136 -135 CURVE",
"-100 -150 OFFCURVE",
"-30 -168 OFFCURVE",
"18 -168 CURVE SMOOTH"
);
}
);
width = 500;
},
{
anchors = (
{
name = bottom;
position = "{343, 0}";
},
{
name = top;
position = "{383, 680}";
}
);
hints = (
{
horizontal = 1;
origin = "{0, 48}";
target = "{0, 38}";
},
{
horizontal = 1;
origin = "{0, 14}";
target = "{0, 8}";
},
{
origin = "{0, 17}";
target = "{0, 26}";
}
);
layerId = "D07BE892-06F6-46A5-91A1-F9C5A6E66C70";
paths = (
{
closed = 1;
nodes = (
"269 -168 OFFCURVE",
"375 -91 OFFCURVE",
"383 90 CURVE SMOOTH",
"389 223 OFFCURVE",
"383 430 OFFCURVE",
"388 586 CURVE SMOOTH",
"390 654 OFFCURVE",
"395 671 OFFCURVE",
"433 671 CURVE SMOOTH",
"462 671 OFFCURVE",
"511 669 OFFCURVE",
"520 669 CURVE",
"515 690 OFFCURVE",
"506 715 OFFCURVE",
"496 715 CURVE SMOOTH",
"181 715 OFFCURVE",
"-22 649 OFFCURVE",
"-22 526 CURVE SMOOTH",
"-22 460 OFFCURVE",
"40 411 OFFCURVE",
"114 395 CURVE",
"121 395 OFFCURVE",
"131 396 OFFCURVE",
"142 398 CURVE",
"101 418 OFFCURVE",
"67 468 OFFCURVE",
"67 518 CURVE SMOOTH",
"67 612 OFFCURVE",
"148 663 OFFCURVE",
"281 663 CURVE SMOOTH",
"295 663 OFFCURVE",
"302 656 OFFCURVE",
"302 637 CURVE SMOOTH",
"302 490 OFFCURVE",
"303 240 OFFCURVE",
"292 102 CURVE SMOOTH",
"278 -70 OFFCURVE",
"235 -128 OFFCURVE",
"126 -128 CURVE SMOOTH",
"34 -128 OFFCURVE",
"1 -90 OFFCURVE",
"-34 -27 CURVE",
"-50 -31 LINE",
"-46 -55 OFFCURVE",
"-40 -95 OFFCURVE",
"-27 -135 CURVE",
"4 -149 OFFCURVE",
"49 -168 OFFCURVE",
"110 -168 CURVE SMOOTH"
);
}
);
width = 520;
}
);
note = J;
unicode = 004A;
},
{
glyphname = K;
lastChange = "2018-02-28 05:01:49 +0000";
layers = (
{
anchors = (
{
name = bottom;
position = "{384, 0}";
},
{
name = top;
position = "{383, 680}";
}
);
layerId = "0B1DFD06-3317-40CA-B510-4969A0718C16";
paths = (
{
closed = 1;
nodes = (
"256 457 OFFCURVE",
"273 655 CURVE SMOOTH",
"274 664 OFFCURVE",
"281 668 OFFCURVE",
"288 668 CURVE SMOOTH",
"314 668 OFFCURVE",
"350 670 OFFCURVE",
"368 670 CURVE",
"368 679 OFFCURVE",
"368 700 OFFCURVE",
"366 712 CURVE",
"294 706 OFFCURVE",
"231 699 OFFCURVE",
"168 699 CURVE SMOOTH",
"114 699 OFFCURVE",
"36 699 OFFCURVE",
"30 726 CURVE",
"18 726 OFFCURVE",
"13 703 OFFCURVE",
"13 684 CURVE SMOOTH",
"13 661 OFFCURVE",
"16 655 OFFCURVE",
"37 655 CURVE SMOOTH",
"85 655 OFFCURVE",
"141 664 OFFCURVE",
"201 664 CURVE SMOOTH",
"217 664 OFFCURVE",
"216 653 OFFCURVE",
"216 619 CURVE SMOOTH",
"216 510 OFFCURVE",
"209 162 OFFCURVE",
"171 -5 CURVE",
"172 -10 OFFCURVE",
"177 -12 OFFCURVE",
"183 -12 CURVE",
"190 -3 OFFCURVE",
"211 0 OFFCURVE",
"225 0 CURVE SMOOTH",
"239 0 OFFCURVE",
"245 5 OFFCURVE",
"245 25 CURVE SMOOTH",
"251 224 OFFCURVE"
);
},
{
closed = 1;
nodes = (
"476 30 OFFCURVE",
"850 -224 OFFCURVE",
"1203 -224 CURVE SMOOTH",
"1326 -224 OFFCURVE",
"1462 -194 OFFCURVE",
"1462 -134 CURVE SMOOTH",
"1462 -121 OFFCURVE",
"1455 -105 OFFCURVE",
"1445 -99 CURVE",
"1409 -134 OFFCURVE",
"1315 -184 OFFCURVE",
"1205 -184 CURVE SMOOTH",
"877 -184 OFFCURVE",
"549 45 OFFCURVE",
"296 340 CURVE",
"298 329 LINE",
"377 404 OFFCURVE",
"699 695 OFFCURVE",
"736 689 CURVE",
"735 697 LINE",
"719 702 OFFCURVE",
"691 711 OFFCURVE",
"676 718 CURVE",
"670 718 LINE",
"513 600 OFFCURVE",
"378 450 OFFCURVE",
"240 336 CURVE"
);
}
);
width = 777;
},
{
anchors = (
{
name = bottom;
position = "{367, 0}";
},
{
name = top;
position = "{490, 700}";
}
);
layerId = "4C458150-A1D2-4ED7-A293-C8767657F79E";
paths = (
{
closed = 1;
nodes = (
"306 454 OFFCURVE",
"351 655 CURVE SMOOTH",
"353 664 OFFCURVE",
"361 668 OFFCURVE",
"368 668 CURVE SMOOTH",
"394 668 OFFCURVE",
"421 670 OFFCURVE",
"439 670 CURVE",
"441 679 OFFCURVE",
"445 700 OFFCURVE",
"445 712 CURVE",
"377 706 OFFCURVE",
"313 699 OFFCURVE",
"248 699 CURVE SMOOTH",
"193 699 OFFCURVE",
"114 698 OFFCURVE",
"111 726 CURVE",
"95 726 OFFCURVE",
"85 684 OFFCURVE",
"85 665 CURVE SMOOTH",
"85 658 OFFCURVE",
"93 655 OFFCURVE",
"106 655 CURVE SMOOTH",
"154 655 OFFCURVE",
"222 664 OFFCURVE",
"282 664 CURVE SMOOTH",
"291 664 OFFCURVE",
"293 658 OFFCURVE",
"293 651 CURVE SMOOTH",
"293 635 OFFCURVE",
"203 190 OFFCURVE",
"123 -5 CURVE",
"123 -10 OFFCURVE",
"128 -12 OFFCURVE",
"134 -12 CURVE",
"143 -3 OFFCURVE",
"164 0 OFFCURVE",
"178 0 CURVE SMOOTH",
"192 0 OFFCURVE",
"199 5 OFFCURVE",
"203 25 CURVE SMOOTH",
"243 224 OFFCURVE"
);
},
{
closed = 1;
nodes = (
"458 25 OFFCURVE",
"879 -194 OFFCURVE",
"1152 -194 CURVE SMOOTH",
"1272 -194 OFFCURVE",
"1398 -154 OFFCURVE",
"1398 -98 CURVE SMOOTH",
"1398 -85 OFFCURVE",
"1393 -73 OFFCURVE",
"1386 -69 CURVE",
"1344 -104 OFFCURVE",
"1271 -154 OFFCURVE",
"1161 -154 CURVE SMOOTH",
"863 -154 OFFCURVE",
"527 40 OFFCURVE",
"302 340 CURVE",
"302 329 LINE",
"394 404 OFFCURVE",
"771 695 OFFCURVE",
"807 689 CURVE",
"807 697 LINE",
"792 702 OFFCURVE",
"769 711 OFFCURVE",
"756 718 CURVE",
"750 718 LINE",
"572 600 OFFCURVE",
"413 450 OFFCURVE",
"252 336 CURVE"
);
}
);
width = 777;
},
{
anchors = (
{
name = bottom;
position = "{384, 0}";
},
{
name = top;
position = "{383, 680}";
}
);
layerId = "D07BE892-06F6-46A5-91A1-F9C5A6E66C70";
paths = (
{
closed = 1;
nodes = (
"251 447 OFFCURVE",
"273 645 CURVE SMOOTH",
"274 654 OFFCURVE",
"281 658 OFFCURVE",
"288 658 CURVE SMOOTH",
"314 658 OFFCURVE",
"350 660 OFFCURVE",
"368 660 CURVE",
"368 669 OFFCURVE",
"368 700 OFFCURVE",
"366 712 CURVE",
"294 706 OFFCURVE",
"231 699 OFFCURVE",
"168 699 CURVE SMOOTH",
"114 699 OFFCURVE",
"36 699 OFFCURVE",
"30 726 CURVE",
"18 726 OFFCURVE",
"13 698 OFFCURVE",
"13 676 CURVE SMOOTH",
"13 652 OFFCURVE",
"15 645 OFFCURVE",
"37 645 CURVE SMOOTH",
"85 645 OFFCURVE",
"98 654 OFFCURVE",
"158 654 CURVE SMOOTH",
"174 654 OFFCURVE",
"176 648 OFFCURVE",
"176 609 CURVE SMOOTH",
"176 503 OFFCURVE",
"169 162 OFFCURVE",
"131 -5 CURVE",
"132 -10 OFFCURVE",
"137 -12 OFFCURVE",
"143 -12 CURVE",
"150 -3 OFFCURVE",
"171 0 OFFCURVE",
"225 0 CURVE SMOOTH",
"239 0 OFFCURVE",
"245 5 OFFCURVE",
"245 25 CURVE SMOOTH",
"251 224 OFFCURVE"
);
},
{
closed = 1;
nodes = (
"486 20 OFFCURVE",
"876 -274 OFFCURVE",
"1229 -274 CURVE SMOOTH",
"1384 -274 OFFCURVE",
"1472 -232 OFFCURVE",
"1472 -158 CURVE SMOOTH",
"1472 -135 OFFCURVE",
"1457 -114 OFFCURVE",
"1445 -103 CURVE",
"1405 -148 OFFCURVE",
"1341 -184 OFFCURVE",
"1231 -184 CURVE SMOOTH",
"933 -184 OFFCURVE",
"569 53 OFFCURVE",
"326 348 CURVE",
"328 337 LINE",
"407 412 OFFCURVE",
"739 695 OFFCURVE",
"776 689 CURVE",
"775 697 LINE",
"759 702 OFFCURVE",
"691 711 OFFCURVE",
"676 718 CURVE",
"660 718 LINE",
"503 600 OFFCURVE",
"378 450 OFFCURVE",
"240 336 CURVE"
);
}
);
width = 777;
}
);
note = K;
unicode = 004B;
},
{
glyphname = L;
lastChange = "2018-03-03 05:22:32 +0000";
layers = (
{
anchors = (
{
name = bottom;
position = "{360, 0}";
},
{
name = center;
position = "{360, 350}";
},
{
name = top;
position = "{286, 700}";
},
{
name = topright;
position = "{425, 485}";
}
);
layerId = "0B1DFD06-3317-40CA-B510-4969A0718C16";
paths = (
{
closed = 1;
nodes = (
"620 -23 OFFCURVE",
"616 27 OFFCURVE",
"611 41 CURVE SMOOTH",
"601 69 OFFCURVE",
"579 73 OFFCURVE",
"517 73 CURVE SMOOTH",
"423 73 OFFCURVE",
"249 53 OFFCURVE",
"114 46 CURVE",
"117 35 LINE",
"195 72 OFFCURVE",
"252 178 OFFCURVE",
"252 398 CURVE SMOOTH",
"252 487 OFFCURVE",
"253 517 OFFCURVE",
"253 625 CURVE SMOOTH",
"253 669 OFFCURVE",
"265 683 OFFCURVE",
"311 683 CURVE SMOOTH",
"335 683 OFFCURVE",
"364 680 OFFCURVE",
"382 677 CURVE",
"385 680 OFFCURVE",
"373 721 OFFCURVE",
"362 724 CURVE",
"306 724 OFFCURVE",
"242 712 OFFCURVE",
"212 699 CURVE SMOOTH",
"203 695 OFFCURVE",
"196 687 OFFCURVE",
"196 672 CURVE SMOOTH",
"196 601 OFFCURVE",
"199 456 OFFCURVE",
"199 377 CURVE SMOOTH",
"199 208 OFFCURVE",
"160 53 OFFCURVE",
"17 37 CURVE SMOOTH",
"11 36 OFFCURVE",
"10 35 OFFCURVE",
"10 31 CURVE SMOOTH",
"10 30 OFFCURVE",
"10 29 OFFCURVE",
"10 27 CURVE SMOOTH",
"11 19 OFFCURVE",
"32 -13 OFFCURVE",
"42 -13 CURVE",
"110 7 OFFCURVE",
"231 13 OFFCURVE",
"370 13 CURVE SMOOTH",
"459 13 OFFCURVE",
"523 8 OFFCURVE",
"585 -1 CURVE SMOOTH",
"600 -3 OFFCURVE",
"604 -18 OFFCURVE",
"605 -34 CURVE",
"620 -38 LINE"
);
}
);
width = 630;
},
{
anchors = (
{
name = bottom;
position = "{263, 0}";
},
{
name = center;
position = "{324, 350}";
},
{
name = top;
position = "{386, 700}";
},
{
name = topright;
position = "{545, 485}";
}
);
layerId = "4C458150-A1D2-4ED7-A293-C8767657F79E";
paths = (
{
closed = 1;
nodes = (
"583 -4 OFFCURVE",
"582 28 OFFCURVE",
"578 47 CURVE SMOOTH",
"573 69 OFFCURVE",
"546 76 OFFCURVE",
"478 76 CURVE SMOOTH",
"373 76 OFFCURVE",
"175 46 OFFCURVE",
"63 43 CURVE",
"67 32 LINE",
"160 67 OFFCURVE",
"207 153 OFFCURVE",
"251 325 CURVE SMOOTH",
"271 405 OFFCURVE",
"291 510 OFFCURVE",
"316 625 CURVE SMOOTH",
"323 657 OFFCURVE",
"341 682 OFFCURVE",
"380 682 CURVE SMOOTH",
"405 682 OFFCURVE",
"439 680 OFFCURVE",
"454 676 CURVE",
"458 680 OFFCURVE",
"449 721 OFFCURVE",
"436 724 CURVE",
"380 724 OFFCURVE",
"328 716 OFFCURVE",
"288 700 CURVE SMOOTH",
"278 696 OFFCURVE",
"271 691 OFFCURVE",
"267 672 CURVE SMOOTH",
"255 614 OFFCURVE",
"230 491 OFFCURVE",
"211 392 CURVE SMOOTH",
"183 248 OFFCURVE",
"125 37 OFFCURVE",
"-14 37 CURVE SMOOTH",
"-22 37 OFFCURVE",
"-23 33 OFFCURVE",
"-23 27 CURVE SMOOTH",
"-23 19 OFFCURVE",
"-8 -13 OFFCURVE",
"2 -13 CURVE",
"74 7 OFFCURVE",
"183 18 OFFCURVE",
"332 18 CURVE SMOOTH",
"426 18 OFFCURVE",
"488 14 OFFCURVE",
"545 1 CURVE SMOOTH",
"559 -2 OFFCURVE",
"567 -12 OFFCURVE",
"569 -35 CURVE",
"583 -38 LINE"
);
}
);
width = 630;
},
{
anchors = (
{
name = bottom;
position = "{360, 0}";
},
{
name = center;
position = "{360, 350}";
},
{
name = top;
position = "{286, 700}";
},
{
name = topright;
position = "{425, 485}";
}
);
layerId = "D07BE892-06F6-46A5-91A1-F9C5A6E66C70";
paths = (
{
closed = 1;
nodes = (
"622 -23 OFFCURVE",
"616 52 OFFCURVE",
"611 66 CURVE SMOOTH",
"601 94 OFFCURVE",
"586 105 OFFCURVE",
"524 105 CURVE SMOOTH",
"436 105 OFFCURVE",
"260 59 OFFCURVE",
"104 54 CURVE",
"100 31 LINE",
"178 61 OFFCURVE",
"228 108 OFFCURVE",
"247 310 CURVE SMOOTH",
"254 384 OFFCURVE",
"258 508 OFFCURVE",
"263 609 CURVE SMOOTH",
"265 653 OFFCURVE",
"280 667 OFFCURVE",
"311 667 CURVE SMOOTH",
"335 667 OFFCURVE",
"374 664 OFFCURVE",
"392 661 CURVE",
"395 664 OFFCURVE",
"383 715 OFFCURVE",
"372 718 CURVE",
"316 718 OFFCURVE",
"202 706 OFFCURVE",
"172 693 CURVE SMOOTH",
"163 689 OFFCURVE",
"156 682 OFFCURVE",
"156 669 CURVE SMOOTH",
"156 585 OFFCURVE",
"161 479 OFFCURVE",
"161 391 CURVE SMOOTH",
"161 221 OFFCURVE",
"135 72 OFFCURVE",
"17 57 CURVE SMOOTH",
"11 56 OFFCURVE",
"10 55 OFFCURVE",
"10 51 CURVE SMOOTH",
"10 50 OFFCURVE",
"10 49 OFFCURVE",
"10 47 CURVE SMOOTH",
"11 39 OFFCURVE",
"32 -13 OFFCURVE",
"42 -13 CURVE",
"110 7 OFFCURVE",
"227 18 OFFCURVE",
"366 18 CURVE SMOOTH",
"460 18 OFFCURVE",
"527 14 OFFCURVE",
"587 -6 CURVE SMOOTH",
"602 -11 OFFCURVE",
"604 -24 OFFCURVE",
"605 -33 CURVE",
"611 -37 OFFCURVE",
"616 -38 OFFCURVE",
"620 -38 CURVE"
);
}
);
width = 630;
}
);
note = L;
unicode = 004C;
},
{
glyphname = M;
lastChange = "2018-03-03 05:16:16 +0000";
layers = (
{
anchors = (
{
name = bottom;
position = "{659, 0}";
},
{
name = top;
position = "{659, 660}";
}
);
layerId = "0B1DFD06-3317-40CA-B510-4969A0718C16";
paths = (
{
closed = 1;
nodes = (
"1149 -31 OFFCURVE",
"1190 42 OFFCURVE",
"1190 112 CURVE SMOOTH",
"1190 134 OFFCURVE",
"1187 169 OFFCURVE",
"1165 180 CURVE",
"1164 84 OFFCURVE",
"1128 18 OFFCURVE",
"1061 18 CURVE SMOOTH",
"934 18 OFFCURVE",
"890 248 OFFCURVE",
"890 439 CURVE SMOOTH",
"890 507 OFFCURVE",
"896 572 OFFCURVE",
"913 620 CURVE SMOOTH",
"931 671 OFFCURVE",
"961 704 OFFCURVE",
"982 716 CURVE",
"969 734 OFFCURVE",
"952 751 OFFCURVE",
"928 751 CURVE SMOOTH",
"907 751 OFFCURVE",
"891 710 OFFCURVE",
"850 626 CURVE SMOOTH",
"769 458 OFFCURVE",
"655 170 OFFCURVE",
"616 75 CURVE",
"632 76 LINE",
"604 162 OFFCURVE",
"514 454 OFFCURVE",
"481 556 CURVE",
"476 614 OFFCURVE",
"472 654 OFFCURVE",
"465 688 CURVE SMOOTH",
"461 708 OFFCURVE",
"437 725 OFFCURVE",
"415 725 CURVE SMOOTH",
"400 725 OFFCURVE",
"390 718 OFFCURVE",
"390 704 CURVE SMOOTH",
"390 683 OFFCURVE",
"420 606 OFFCURVE",
"436 556 CURVE",
"368 234 OFFCURVE",
"297 30 OFFCURVE",
"129 30 CURVE SMOOTH",
"43 30 OFFCURVE",
"-19 78 OFFCURVE",
"-19 153 CURVE SMOOTH",
"-19 205 OFFCURVE",
"-8 245 OFFCURVE",
"21 282 CURVE",
"16 286 OFFCURVE",
"11 287 OFFCURVE",
"5 287 CURVE SMOOTH",
"-13 287 OFFCURVE",
"-60 247 OFFCURVE",
"-60 167 CURVE SMOOTH",
"-60 38 OFFCURVE",
"46 -14 OFFCURVE",
"124 -14 CURVE SMOOTH",
"342 -14 OFFCURVE",
"395 221 OFFCURVE",
"471 515 CURVE",
"454 515 LINE",
"486 423 OFFCURVE",
"599 72 OFFCURVE",
"599 33 CURVE SMOOTH",
"599 15 OFFCURVE",
"596 9 OFFCURVE",
"591 4 CURVE",
"593 0 OFFCURVE",
"596 -4 OFFCURVE",
"600 -5 CURVE",
"607 1 OFFCURVE",
"628 15 OFFCURVE",
"643 18 CURVE SMOOTH",
"652 20 OFFCURVE",
"656 21 OFFCURVE",
"656 29 CURVE SMOOTH",
"656 36 OFFCURVE",
"654 42 OFFCURVE",
"654 53 CURVE SMOOTH",
"654 62 OFFCURVE",
"656 79 OFFCURVE",
"667 106 CURVE SMOOTH",
"709 212 OFFCURVE",
"823 468 OFFCURVE",
"864 545 CURVE",
"855 549 LINE",
"849 509 OFFCURVE",
"844 451 OFFCURVE",
"844 388 CURVE SMOOTH",
"844 184 OFFCURVE",
"905 -31 OFFCURVE",
"1060 -31 CURVE SMOOTH"
);
}
);
width = 1100;
},
{
anchors = (
{
name = bottom;
position = "{575, 20}";
},
{
name = top;
position = "{728, 700}";
}
);
layerId = "4C458150-A1D2-4ED7-A293-C8767657F79E";
paths = (
{
closed = 1;
nodes = (
"1111 -31 OFFCURVE",
"1168 64 OFFCURVE",
"1168 140 CURVE SMOOTH",
"1168 164 OFFCURVE",
"1161 175 OFFCURVE",
"1152 180 CURVE",
"1134 84 OFFCURVE",
"1087 18 OFFCURVE",
"1020 18 CURVE SMOOTH",
"938 18 OFFCURVE",
"905 116 OFFCURVE",
"905 240 CURVE SMOOTH",
"905 361 OFFCURVE",
"926 524 OFFCURVE",
"978 620 CURVE SMOOTH",
"1011 681 OFFCURVE",
"1044 710 OFFCURVE",
"1079 710 CURVE",
"1072 734 OFFCURVE",
"1051 761 OFFCURVE",
"1029 761 CURVE SMOOTH",
"1001 761 OFFCURVE",
"977 729 OFFCURVE",
"920 646 CURVE SMOOTH",
"846 539 OFFCURVE",
"647 202 OFFCURVE",
"590 105 CURVE",
"605 92 LINE",
"592 178 OFFCURVE",
"552 451 OFFCURVE",
"537 553 CURVE",
"542 611 OFFCURVE",
"552 654 OFFCURVE",
"552 688 CURVE SMOOTH",
"552 708 OFFCURVE",
"520 725 OFFCURVE",
"498 725 CURVE SMOOTH",
"480 725 OFFCURVE",
"471 716 OFFCURVE",
"471 695 CURVE SMOOTH",
"471 662 OFFCURVE",
"478 625 OFFCURVE",
"487 566 CURVE",
"354 241 OFFCURVE",
"261 35 OFFCURVE",
"103 35 CURVE SMOOTH",
"17 35 OFFCURVE",
"-22 83 OFFCURVE",
"-22 168 CURVE SMOOTH",
"-22 212 OFFCURVE",
"-6 255 OFFCURVE",
"29 292 CURVE",
"24 296 OFFCURVE",
"18 297 OFFCURVE",
"13 297 CURVE SMOOTH",
"-25 297 OFFCURVE",
"-77 240 OFFCURVE",
"-77 147 CURVE SMOOTH",
"-77 49 OFFCURVE",
"-1 -22 OFFCURVE",
"77 -22 CURVE SMOOTH",
"295 -22 OFFCURVE",
"396 226 OFFCURVE",
"514 520 CURVE",
"497 521 LINE",
"511 440 OFFCURVE",
"560 126 OFFCURVE",
"560 44 CURVE SMOOTH",
"560 15 OFFCURVE",
"554 11 OFFCURVE",
"550 8 CURVE",
"551 6 OFFCURVE",
"554 -2 OFFCURVE",
"561 -2 CURVE SMOOTH",
"568 -2 OFFCURVE",
"583 13 OFFCURVE",
"612 18 CURVE SMOOTH",
"618 19 OFFCURVE",
"620 22 OFFCURVE",
"620 25 CURVE SMOOTH",
"620 28 OFFCURVE",
"617 34 OFFCURVE",
"617 42 CURVE SMOOTH",
"617 57 OFFCURVE",
"630 81 OFFCURVE",
"639 95 CURVE SMOOTH",
"706 207 OFFCURVE",
"843 446 OFFCURVE",
"915 535 CURVE",
"908 541 LINE",
"883 467 OFFCURVE",
"851 338 OFFCURVE",
"851 220 CURVE SMOOTH",
"851 87 OFFCURVE",
"903 -31 OFFCURVE",
"1010 -31 CURVE SMOOTH"
);
}
);
width = 1100;
},
{
anchors = (
{
name = bottom;
position = "{659, 0}";
},
{
name = top;
position = "{659, 660}";
}
);
layerId = "D07BE892-06F6-46A5-91A1-F9C5A6E66C70";
paths = (
{
closed = 1;
nodes = (
"1172 -26 OFFCURVE",
"1220 42 OFFCURVE",
"1220 112 CURVE SMOOTH",
"1220 143 OFFCURVE",
"1206 169 OFFCURVE",
"1184 180 CURVE",
"1176 104 OFFCURVE",
"1147 38 OFFCURVE",
"1061 38 CURVE SMOOTH",
"933 38 OFFCURVE",
"900 255 OFFCURVE",
"900 447 CURVE SMOOTH",
"900 507 OFFCURVE",
"904 563 OFFCURVE",
"913 610 CURVE SMOOTH",
"924 666 OFFCURVE",
"949 697 OFFCURVE",
"972 707 CURVE",
"956 726 OFFCURVE",
"930 751 OFFCURVE",
"902 751 CURVE SMOOTH",
"864 751 OFFCURVE",
"851 706 OFFCURVE",
"812 626 CURVE SMOOTH",
"758 514 OFFCURVE",
"669 292 OFFCURVE",
"608 111 CURVE",
"633 112 LINE",
"605 228 OFFCURVE",
"522 421 OFFCURVE",
"489 543 CURVE",
"490 601 OFFCURVE",
"485 654 OFFCURVE",
"475 688 CURVE SMOOTH",
"469 708 OFFCURVE",
"456 725 OFFCURVE",
"415 725 CURVE SMOOTH",
"387 725 OFFCURVE",
"349 716 OFFCURVE",
"353 695 CURVE SMOOTH",
"359 662 OFFCURVE",
"393 589 OFFCURVE",
"413 530 CURVE",
"360 235 OFFCURVE",
"287 26 OFFCURVE",
"139 26 CURVE SMOOTH",
"63 26 OFFCURVE",
"21 68 OFFCURVE",
"21 153 CURVE SMOOTH",
"21 198 OFFCURVE",
"32 239 OFFCURVE",
"61 276 CURVE",
"45 282 OFFCURVE",
"33 287 OFFCURVE",
"18 287 CURVE SMOOTH",
"-10 287 OFFCURVE",
"-60 247 OFFCURVE",
"-60 167 CURVE SMOOTH",
"-60 28 OFFCURVE",
"46 -24 OFFCURVE",
"134 -24 CURVE SMOOTH",
"342 -24 OFFCURVE",
"412 232 OFFCURVE",
"471 500 CURVE",
"429 491 LINE",
"436 458 OFFCURVE",
"561 90 OFFCURVE",
"561 29 CURVE SMOOTH",
"561 14 OFFCURVE",
"558 7 OFFCURVE",
"553 4 CURVE",
"555 -1 OFFCURVE",
"562 -10 OFFCURVE",
"569 -10 CURVE SMOOTH",
"576 -10 OFFCURVE",
"624 19 OFFCURVE",
"652 26 CURVE SMOOTH",
"656 27 OFFCURVE",
"660 29 OFFCURVE",
"660 35 CURVE SMOOTH",
"660 42 OFFCURVE",
"654 48 OFFCURVE",
"654 65 CURVE SMOOTH",
"654 86 OFFCURVE",
"662 102 OFFCURVE",
"667 115 CURVE SMOOTH",
"731 281 OFFCURVE",
"817 503 OFFCURVE",
"863 582 CURVE",
"845 588 LINE",
"839 548 OFFCURVE",
"814 431 OFFCURVE",
"814 368 CURVE SMOOTH",
"814 148 OFFCURVE",
"862 -26 OFFCURVE",
"1040 -26 CURVE SMOOTH"
);
}
);
width = 1100;
}
);
note = M;
unicode = 004D;
},
{
glyphname = N;
lastChange = "2018-02-28 05:09:23 +0000";
layers = (
{
anchors = (
{
name = bottom;
position = "{438, 0}";
},
{
name = top;
position = "{436, 650}";
}
);
layerId = "0B1DFD06-3317-40CA-B510-4969A0718C16";
paths = (
{
closed = 1;
nodes = (
"231 -11 LINE",
"231 206 OFFCURVE",
"231 393 OFFCURVE",
"244 619 CURVE",
"233 612 LINE",
"349 440 OFFCURVE",
"450 284 OFFCURVE",
"634 -8 CURVE",
"649 -8 OFFCURVE",
"665 -6 OFFCURVE",
"677 -2 CURVE",
"677 457 OFFCURVE",
"654 768 OFFCURVE",
"839 768 CURVE",
"831 778 OFFCURVE",
"788 805 OFFCURVE",
"772 805 CURVE SMOOTH",
"623 805 OFFCURVE",
"627 475 OFFCURVE",
"627 63 CURVE",
"638 76 LINE",
"484 311 OFFCURVE",
"382 467 OFFCURVE",
"243 678 CURVE SMOOTH",
"236 689 OFFCURVE",
"228 694 OFFCURVE",
"222 694 CURVE",
"196 684 OFFCURVE",
"169 677 OFFCURVE",
"131 677 CURVE SMOOTH",
"99 677 OFFCURVE",
"67 678 OFFCURVE",
"42 687 CURVE",
"40 677 OFFCURVE",
"40 668 OFFCURVE",
"41 660 CURVE SMOOTH",
"44 642 OFFCURVE",
"55 636 OFFCURVE",
"72 636 CURVE SMOOTH",
"96 636 OFFCURVE",
"139 639 OFFCURVE",
"164 639 CURVE SMOOTH",
"192 639 OFFCURVE",
"199 629 OFFCURVE",
"199 602 CURVE SMOOTH",
"199 458 OFFCURVE",
"178 169 OFFCURVE",
"178 34 CURVE SMOOTH",
"178 7 OFFCURVE",
"195 -3 OFFCURVE",
"226 -11 CURVE"
);
}
);
width = 780;
},
{
anchors = (
{
name = bottom;
position = "{368, 0}";
},
{
name = top;
position = "{521, 650}";
}
);
layerId = "4C458150-A1D2-4ED7-A293-C8767657F79E";
paths = (
{
closed = 1;
nodes = (
"167 -15 LINE",
"167 202 OFFCURVE",
"230 388 OFFCURVE",
"288 614 CURVE",
"275 607 LINE",
"363 436 OFFCURVE",
"430 284 OFFCURVE",
"563 -8 CURVE",
"578 -8 OFFCURVE",
"594 -6 OFFCURVE",
"607 -2 CURVE",
"685 457 OFFCURVE",
"723 768 OFFCURVE",
"910 768 CURVE",
"904 778 OFFCURVE",
"860 805 OFFCURVE",
"844 805 CURVE SMOOTH",
"699 805 OFFCURVE",
"634 470 OFFCURVE",
"571 55 CURVE",
"583 72 LINE",
"471 310 OFFCURVE",
"397 468 OFFCURVE",
"293 678 CURVE SMOOTH",
"287 689 OFFCURVE",
"281 694 OFFCURVE",
"275 694 CURVE",
"247 684 OFFCURVE",
"219 677 OFFCURVE",
"181 677 CURVE SMOOTH",
"149 677 OFFCURVE",
"117 678 OFFCURVE",
"93 687 CURVE",
"90 677 OFFCURVE",
"88 668 OFFCURVE",
"88 660 CURVE SMOOTH",
"88 642 OFFCURVE",
"97 636 OFFCURVE",
"114 636 CURVE SMOOTH",
"138 636 OFFCURVE",
"165 639 OFFCURVE",
"190 639 CURVE SMOOTH",
"222 639 OFFCURVE",
"228 629 OFFCURVE",
"228 604 CURVE SMOOTH",
"228 500 OFFCURVE",
"109 178 OFFCURVE",
"109 43 CURVE SMOOTH",
"109 35 OFFCURVE",
"110 27 OFFCURVE",
"111 20 CURVE",
"118 4 OFFCURVE",
"149 -9 OFFCURVE",
"162 -15 CURVE"
);
}
);
width = 780;
},
{
anchors = (
{
name = bottom;
position = "{438, 0}";
},
{
name = top;
position = "{436, 650}";
}
);
layerId = "D07BE892-06F6-46A5-91A1-F9C5A6E66C70";
paths = (
{
closed = 1;
nodes = (
"231 -11 LINE",
"231 206 OFFCURVE",
"231 333 OFFCURVE",
"244 559 CURVE",
"233 552 LINE",
"349 380 OFFCURVE",
"430 264 OFFCURVE",
"614 -8 CURVE",
"635 -8 OFFCURVE",
"665 0 OFFCURVE",
"677 8 CURVE",
"677 467 OFFCURVE",
"654 768 OFFCURVE",
"839 768 CURVE",
"831 778 OFFCURVE",
"738 805 OFFCURVE",
"722 805 CURVE SMOOTH",
"607 805 OFFCURVE",
"607 685 OFFCURVE",
"607 103 CURVE",
"618 116 LINE",
"464 341 OFFCURVE",
"374 475 OFFCURVE",
"238 678 CURVE SMOOTH",
"231 689 OFFCURVE",
"223 694 OFFCURVE",
"217 694 CURVE",
"191 684 OFFCURVE",
"163 677 OFFCURVE",
"131 677 CURVE SMOOTH",
"103 677 OFFCURVE",
"67 683 OFFCURVE",
"45 692 CURVE",
"43 684 OFFCURVE",
"41 673 OFFCURVE",
"41 656 CURVE SMOOTH",
"41 638 OFFCURVE",
"54 626 OFFCURVE",
"72 626 CURVE SMOOTH",
"96 626 OFFCURVE",
"122 629 OFFCURVE",
"147 629 CURVE SMOOTH",
"173 629 OFFCURVE",
"179 622 OFFCURVE",
"179 596 CURVE SMOOTH",
"179 452 OFFCURVE",
"138 169 OFFCURVE",
"138 34 CURVE SMOOTH",
"138 7 OFFCURVE",
"151 -11 OFFCURVE",
"186 -11 CURVE"
);
}
);
width = 780;
}
);
note = N;
unicode = 004E;
},
{
glyphname = O;
lastChange = "2018-02-28 04:48:56 +0000";
layers = (
{
anchors = (
{
name = bottom;
position = "{397, 0}";
},
{
name = center;
position = "{379, 350}";
},
{
name = ogonek;
position = "{505, 10}";
},
{
name = top;
position = "{393, 680}";
},
{
name = topleft;
position = "{-15, 700}";
},
{
name = topright;
position = "{648, 625}";
}
);
hints = (
{
horizontal = 1;
origin = "{0, 11}";
target = "{1, 11}";
},
{
horizontal = 1;
origin = "{0, 5}";
target = "{1, 5}";
},
{
origin = "{0, 8}";
target = "{1, 2}";
},
{
origin = "{1, 8}";
target = "{0, 2}";
}
);
layerId = "0B1DFD06-3317-40CA-B510-4969A0718C16";
paths = (
{
closed = 1;
nodes = (
"609 -15 OFFCURVE",
"738 155 OFFCURVE",
"738 358 CURVE SMOOTH",
"738 573 OFFCURVE",
"622 719 OFFCURVE",
"411 719 CURVE SMOOTH",
"189 719 OFFCURVE",
"54 556 OFFCURVE",
"54 351 CURVE SMOOTH",
"54 135 OFFCURVE",
"173 -15 OFFCURVE",
"384 -15 CURVE SMOOTH"
);
},
{
closed = 1;
nodes = (
"221 30 OFFCURVE",
"117 167 OFFCURVE",
"117 342 CURVE SMOOTH",
"117 529 OFFCURVE",
"202 677 OFFCURVE",
"409 677 CURVE SMOOTH",
"573 677 OFFCURVE",
"675 541 OFFCURVE",
"675 360 CURVE SMOOTH",
"675 168 OFFCURVE",
"584 30 OFFCURVE",
"379 30 CURVE SMOOTH"
);
}
);
width = 792;
},
{
anchors = (
{
name = bottom;
position = "{369, 0}";
},
{
name = center;
position = "{413, 350}";
},
{
name = ogonek;
position = "{479, 10}";
},
{
name = top;
position = "{488, 700}";
},
{
name = topleft;
position = "{80, 700}";
},
{
name = topright;
position = "{708, 625}";
}
);
layerId = "4C458150-A1D2-4ED7-A293-C8767657F79E";
paths = (
{
closed = 1;
nodes = (
"634 -15 OFFCURVE",
"773 186 OFFCURVE",
"773 413 CURVE SMOOTH",
"773 605 OFFCURVE",
"660 719 OFFCURVE",
"474 719 CURVE SMOOTH",
"232 719 OFFCURVE",
"85 526 OFFCURVE",
"85 296 CURVE SMOOTH",
"85 106 OFFCURVE",
"201 -15 OFFCURVE",
"389 -15 CURVE SMOOTH"
);
},
{
closed = 1;
nodes = (
"245 30 OFFCURVE",
"147 126 OFFCURVE",
"147 282 CURVE SMOOTH",
"147 496 OFFCURVE",
"258 677 OFFCURVE",
"487 677 CURVE SMOOTH",
"615 677 OFFCURVE",
"711 583 OFFCURVE",
"711 421 CURVE SMOOTH",
"711 198 OFFCURVE",
"595 30 OFFCURVE",
"369 30 CURVE SMOOTH"
);
}
);
width = 806;
},
{
anchors = (
{
name = bottom;
position = "{397, 0}";
},
{
name = center;
position = "{379, 350}";
},
{
name = ogonek;
position = "{505, 10}";
},
{
name = top;
position = "{393, 680}";
},
{
name = topleft;
position = "{-15, 700}";
},
{
name = topright;
position = "{648, 625}";
}
);
background = {
paths = (
{
closed = 1;
nodes = (
"609 -15 OFFCURVE",
"738 155 OFFCURVE",
"738 358 CURVE SMOOTH",
"738 573 OFFCURVE",
"622 719 OFFCURVE",
"411 719 CURVE SMOOTH",
"189 719 OFFCURVE",
"54 556 OFFCURVE",
"54 351 CURVE SMOOTH",
"54 135 OFFCURVE",
"173 -15 OFFCURVE",
"384 -15 CURVE SMOOTH"
);
},
{
closed = 1;
nodes = (
"221 30 OFFCURVE",
"117 167 OFFCURVE",
"117 342 CURVE SMOOTH",
"117 529 OFFCURVE",
"202 677 OFFCURVE",
"409 677 CURVE SMOOTH",
"573 677 OFFCURVE",
"675 541 OFFCURVE",
"675 360 CURVE SMOOTH",
"675 168 OFFCURVE",
"584 30 OFFCURVE",
"379 30 CURVE SMOOTH"
);
}
);
};
hints = (
{
horizontal = 1;
origin = "{0, 11}";
target = "{1, 11}";
},
{
horizontal = 1;
origin = "{0, 5}";
target = "{1, 5}";
},
{
origin = "{0, 8}";
target = "{1, 2}";
},
{
origin = "{1, 8}";
target = "{0, 2}";
}
);
layerId = "D07BE892-06F6-46A5-91A1-F9C5A6E66C70";
paths = (
{
closed = 1;
nodes = (
"609 -15 OFFCURVE",
"748 155 OFFCURVE",
"748 358 CURVE SMOOTH",
"748 573 OFFCURVE",
"622 719 OFFCURVE",
"411 719 CURVE SMOOTH",
"189 719 OFFCURVE",
"44 556 OFFCURVE",
"44 351 CURVE SMOOTH",
"44 135 OFFCURVE",
"173 -15 OFFCURVE",
"384 -15 CURVE SMOOTH"
);
},
{
closed = 1;
nodes = (
"251 40 OFFCURVE",
"147 167 OFFCURVE",
"147 342 CURVE SMOOTH",
"147 529 OFFCURVE",
"232 667 OFFCURVE",
"409 667 CURVE SMOOTH",
"543 667 OFFCURVE",
"645 541 OFFCURVE",
"645 360 CURVE SMOOTH",
"645 168 OFFCURVE",
"554 40 OFFCURVE",
"379 40 CURVE SMOOTH"
);
}
);
width = 792;
}
);
note = O;
unicode = 004F;
},
{
glyphname = P;
lastChange = "2018-02-28 10:03:20 +0000";
layers = (
{
anchors = (
{
name = bottom;
position = "{324, 0}";
},
{
name = top;
position = "{324, 680}";
}
);
hints = (
{
horizontal = 1;
origin = "{0, 56}";
target = up;
type = BottomGhost;
},
{
horizontal = 1;
origin = "{0, 26}";
target = "{0, 20}";
},
{
horizontal = 1;
origin = "{0, 38}";
target = "{0, 11}";
},
{
horizontal = 1;
origin = "{0, 8}";
target = "{0, 35}";
},
{
origin = "{0, 53}";
target = "{0, 2}";
},
{
origin = "{0, 14}";
target = "{0, 29}";
}
);
layerId = "0B1DFD06-3317-40CA-B510-4969A0718C16";
paths = (
{
closed = 1;
nodes = (
"171 -12 OFFCURVE",
"183 -11 OFFCURVE",
"197 -8 CURVE",
"192 9 OFFCURVE",
"185 23 OFFCURVE",
"185 78 CURVE SMOOTH",
"185 138 OFFCURVE",
"197 523 OFFCURVE",
"205 632 CURVE SMOOTH",
"207 661 OFFCURVE",
"224 670 OFFCURVE",
"332 670 CURVE SMOOTH",
"438 670 OFFCURVE",
"523 620 OFFCURVE",
"523 508 CURVE SMOOTH",
"523 393 OFFCURVE",
"443 336 OFFCURVE",
"339 336 CURVE SMOOTH",
"309 336 OFFCURVE",
"269 342 OFFCURVE",
"255 347 CURVE",
"251 344 OFFCURVE",
"247 338 OFFCURVE",
"247 330 CURVE SMOOTH",
"247 309 OFFCURVE",
"293 293 OFFCURVE",
"350 293 CURVE SMOOTH",
"512 293 OFFCURVE",
"581 390 OFFCURVE",
"581 502 CURVE SMOOTH",
"581 645 OFFCURVE",
"476 716 OFFCURVE",
"332 716 CURVE SMOOTH",
"220 716 OFFCURVE",
"128 694 OFFCURVE",
"30 694 CURVE SMOOTH",
"-11 694 OFFCURVE",
"-31 694 OFFCURVE",
"-70 716 CURVE",
"-72 704 OFFCURVE",
"-74 682 OFFCURVE",
"-69 664 CURVE SMOOTH",
"-66 652 OFFCURVE",
"-50 646 OFFCURVE",
"-30 646 CURVE SMOOTH",
"34 646 OFFCURVE",
"107 661 OFFCURVE",
"140 661 CURVE SMOOTH",
"149 661 OFFCURVE",
"153 656 OFFCURVE",
"153 643 CURVE SMOOTH",
"153 609 OFFCURVE",
"128 93 OFFCURVE",
"128 60 CURVE SMOOTH",
"128 9 OFFCURVE",
"135 -12 OFFCURVE",
"158 -12 CURVE SMOOTH"
);
}
);
width = 647;
},
{
layerId = "4C458150-A1D2-4ED7-A293-C8767657F79E";
paths = (
{
closed = 1;
nodes = (
"169 -8 OFFCURVE",
"182 -7 OFFCURVE",
"194 -4 CURVE",
"192 2 OFFCURVE",
"190 9 OFFCURVE",
"190 26 CURVE SMOOTH",
"190 107 OFFCURVE",
"285 530 OFFCURVE",
"315 634 CURVE SMOOTH",
"325 669 OFFCURVE",
"373 670 OFFCURVE",
"438 670 CURVE SMOOTH",
"524 670 OFFCURVE",
"605 626 OFFCURVE",
"605 535 CURVE SMOOTH",
"605 410 OFFCURVE",
"520 336 OFFCURVE",
"386 336 CURVE SMOOTH",
"356 336 OFFCURVE",
"314 343 OFFCURVE",
"301 347 CURVE",
"297 344 OFFCURVE",
"293 339 OFFCURVE",
"293 329 CURVE SMOOTH",
"293 307 OFFCURVE",
"330 293 OFFCURVE",
"390 293 CURVE SMOOTH",
"582 293 OFFCURVE",
"662 407 OFFCURVE",
"662 529 CURVE SMOOTH",
"662 660 OFFCURVE",
"570 716 OFFCURVE",
"446 716 CURVE SMOOTH",
"354 716 OFFCURVE",
"248 694 OFFCURVE",
"130 694 CURVE SMOOTH",
"89 694 OFFCURVE",
"69 694 OFFCURVE",
"34 716 CURVE",
"30 704 OFFCURVE",
"24 682 OFFCURVE",
"26 664 CURVE SMOOTH",
"27 652 OFFCURVE",
"42 646 OFFCURVE",
"62 646 CURVE SMOOTH",
"131 646 OFFCURVE",
"200 661 OFFCURVE",
"249 661 CURVE SMOOTH",
"258 661 OFFCURVE",
"264 656 OFFCURVE",
"264 643 CURVE SMOOTH",
"264 576 OFFCURVE",
"130 104 OFFCURVE",
"130 17 CURVE SMOOTH",
"130 1 OFFCURVE",
"136 -8 OFFCURVE",
"154 -8 CURVE SMOOTH"
);
}
);
width = 647;
},
{
anchors = (
{
name = bottom;
position = "{324, 0}";
},
{
name = top;
position = "{324, 680}";
}
);
hints = (
{
horizontal = 1;
origin = "{0, 62}";
target = up;
type = BottomGhost;
},
{
horizontal = 1;
origin = "{0, 29}";
target = "{0, 20}";
},
{
horizontal = 1;
origin = "{0, 41}";
target = "{0, 14}";
},
{
horizontal = 1;
origin = "{0, 44}";
target = "{0, 38}";
},
{
origin = "{0, 59}";
target = "{0, 8}";
},
{
origin = "{0, 17}";
target = "{0, 32}";
}
);
layerId = "D07BE892-06F6-46A5-91A1-F9C5A6E66C70";
paths = (
{
closed = 1;
nodes = (
"177 -7 OFFCURVE",
"206 0 OFFCURVE",
"217 3 CURVE",
"215 12 OFFCURVE",
"210 30 OFFCURVE",
"209 38 CURVE SMOOTH",
"208 49 OFFCURVE",
"205 72 OFFCURVE",
"205 99 CURVE SMOOTH",
"205 251 OFFCURVE",
"207 513 OFFCURVE",
"215 622 CURVE SMOOTH",
"217 651 OFFCURVE",
"234 660 OFFCURVE",
"332 660 CURVE SMOOTH",
"428 660 OFFCURVE",
"493 610 OFFCURVE",
"493 508 CURVE SMOOTH",
"493 403 OFFCURVE",
"438 346 OFFCURVE",
"339 346 CURVE SMOOTH",
"302 346 OFFCURVE",
"269 355 OFFCURVE",
"256 364 CURVE",
"251 359 OFFCURVE",
"246 349 OFFCURVE",
"246 340 CURVE SMOOTH",
"246 319 OFFCURVE",
"267 291 OFFCURVE",
"345 291 CURVE SMOOTH",
"527 291 OFFCURVE",
"591 390 OFFCURVE",
"591 502 CURVE SMOOTH",
"591 645 OFFCURVE",
"496 716 OFFCURVE",
"332 716 CURVE SMOOTH",
"220 716 OFFCURVE",
"115 698 OFFCURVE",
"37 698 CURVE SMOOTH",
"-4 698 OFFCURVE",
"-31 702 OFFCURVE",
"-59 712 CURVE",
"-65 700 OFFCURVE",
"-69 678 OFFCURVE",
"-69 654 CURVE SMOOTH",
"-69 633 OFFCURVE",
"-54 626 OFFCURVE",
"-21 626 CURVE SMOOTH",
"35 626 OFFCURVE",
"73 641 OFFCURVE",
"108 641 CURVE SMOOTH",
"125 641 OFFCURVE",
"125 633 OFFCURVE",
"125 620 CURVE SMOOTH",
"125 510 OFFCURVE",
"108 240 OFFCURVE",
"108 65 CURVE SMOOTH",
"108 48 OFFCURVE",
"109 31 OFFCURVE",
"111 18 CURVE SMOOTH",
"113 2 OFFCURVE",
"121 -7 OFFCURVE",
"146 -7 CURVE SMOOTH"
);
}
);
width = 647;
}
);
note = P;
unicode = 0050;
},
{
glyphname = Q;
lastChange = "2018-03-02 06:19:27 +0000";
layers = (
{
anchors = (
{
name = bottom;
position = "{390, 0}";
},
{
name = top;
position = "{390, 680}";
}
);
hints = (
{
horizontal = 1;
origin = "{0, 48}";
target = "{0, 8}";
},
{
horizontal = 1;
origin = "{0, 23}";
target = "{0, 32}";
},
{
horizontal = 1;
place = "{43, 89}";
},
{
origin = "{0, 14}";
target = "{0, 41}";
},
{
origin = "{0, 35}";
target = "{0, 20}";
}
);
layerId = "0B1DFD06-3317-40CA-B510-4969A0718C16";
paths = (
{
closed = 1;
nodes = (
"823 -144 OFFCURVE",
"906 -97 OFFCURVE",
"906 -46 CURVE SMOOTH",
"906 -21 OFFCURVE",
"889 -19 OFFCURVE",
"880 -12 CURVE",
"851 -68 OFFCURVE",
"792 -114 OFFCURVE",
"709 -114 CURVE SMOOTH",
"498 -114 OFFCURVE",
"352 114 OFFCURVE",
"210 365 CURVE",
"141 352 OFFCURVE",
"91 304 OFFCURVE",
"91 214 CURVE SMOOTH",
"91 80 OFFCURVE",
"223 -8 OFFCURVE",
"374 -8 CURVE SMOOTH",
"587 -8 OFFCURVE",
"706 158 OFFCURVE",
"706 374 CURVE SMOOTH",
"706 590 OFFCURVE",
"567 713 OFFCURVE",
"387 713 CURVE SMOOTH",
"147 713 OFFCURVE",
"58 537 OFFCURVE",
"58 415 CURVE SMOOTH",
"58 384 OFFCURVE",
"78 374 OFFCURVE",
"101 374 CURVE",
"101 541 OFFCURVE",
"203 684 OFFCURVE",
"380 684 CURVE SMOOTH",
"530 684 OFFCURVE",
"645 577 OFFCURVE",
"646 374 CURVE SMOOTH",
"647 189 OFFCURVE",
"556 28 OFFCURVE",
"388 28 CURVE SMOOTH",
"264 28 OFFCURVE",
"139 97 OFFCURVE",
"139 210 CURVE SMOOTH",
"139 276 OFFCURVE",
"164 305 OFFCURVE",
"200 326 CURVE",
"169 325 LINE",
"296 94 OFFCURVE",
"460 -144 OFFCURVE",
"715 -144 CURVE SMOOTH"
);
}
);
width = 779;
},
{
layerId = "4C458150-A1D2-4ED7-A293-C8767657F79E";
paths = (
{
closed = 1;
nodes = (
"768 -140 OFFCURVE",
"867 -97 OFFCURVE",
"867 -46 CURVE SMOOTH",
"867 -37 OFFCURVE",
"854 -27 OFFCURVE",
"846 -17 CURVE",
"808 -73 OFFCURVE",
"739 -114 OFFCURVE",
"656 -114 CURVE SMOOTH",
"445 -114 OFFCURVE",
"313 121 OFFCURVE",
"215 372 CURVE",
"143 353 OFFCURVE",
"95 276 OFFCURVE",
"95 198 CURVE SMOOTH",
"95 74 OFFCURVE",
"201 -8 OFFCURVE",
"352 -8 CURVE SMOOTH",
"585 -8 OFFCURVE",
"744 188 OFFCURVE",
"744 445 CURVE SMOOTH",
"744 598 OFFCURVE",
"622 713 OFFCURVE",
"452 713 CURVE SMOOTH",
"182 713 OFFCURVE",
"102 507 OFFCURVE",
"102 425 CURVE SMOOTH",
"102 394 OFFCURVE",
"115 384 OFFCURVE",
"138 384 CURVE",
"154 513 OFFCURVE",
"243 684 OFFCURVE",
"450 684 CURVE SMOOTH",
"590 684 OFFCURVE",
"680 585 OFFCURVE",
"680 423 CURVE SMOOTH",
"680 219 OFFCURVE",
"560 28 OFFCURVE",
"372 28 CURVE SMOOTH",
"248 28 OFFCURVE",
"141 81 OFFCURVE",
"141 194 CURVE SMOOTH",
"141 252 OFFCURVE",
"160 301 OFFCURVE",
"201 327 CURVE",
"170 326 LINE",
"256 95 OFFCURVE",
"405 -140 OFFCURVE",
"660 -140 CURVE SMOOTH"
);
}
);
width = 779;
},
{
anchors = (
{
name = bottom;
position = "{390, 0}";
},
{
name = top;
position = "{390, 680}";
}
);
hints = (
{
horizontal = 1;
origin = "{0, 48}";
target = "{0, 8}";
},
{
horizontal = 1;
origin = "{0, 17}";
target = "{0, 38}";
},
{
horizontal = 1;
origin = "{0, 23}";
target = "{0, 32}";
},
{
origin = "{0, 14}";
target = "{0, 41}";
},
{
origin = "{0, 35}";
target = "{0, 20}";
},
{
origin = "{0, 26}";
target = "{0, 29}";
}
);
layerId = "D07BE892-06F6-46A5-91A1-F9C5A6E66C70";
paths = (
{
closed = 1;
nodes = (
"843 -184 OFFCURVE",
"906 -146 OFFCURVE",
"906 -95 CURVE SMOOTH",
"906 -64 OFFCURVE",
"892 -52 OFFCURVE",
"875 -41 CURVE",
"856 -97 OFFCURVE",
"812 -124 OFFCURVE",
"719 -124 CURVE SMOOTH",
"508 -124 OFFCURVE",
"392 104 OFFCURVE",
"250 365 CURVE",
"161 362 OFFCURVE",
"81 300 OFFCURVE",
"81 210 CURVE SMOOTH",
"81 76 OFFCURVE",
"203 -8 OFFCURVE",
"364 -8 CURVE SMOOTH",
"577 -8 OFFCURVE",
"716 158 OFFCURVE",
"716 374 CURVE SMOOTH",
"716 580 OFFCURVE",
"557 713 OFFCURVE",
"377 713 CURVE SMOOTH",
"137 713 OFFCURVE",
"48 557 OFFCURVE",
"48 465 CURVE SMOOTH",
"48 414 OFFCURVE",
"76 394 OFFCURVE",
"131 394 CURVE",
"131 541 OFFCURVE",
"203 661 OFFCURVE",
"370 661 CURVE SMOOTH",
"510 661 OFFCURVE",
"615 567 OFFCURVE",
"616 374 CURVE SMOOTH",
"617 189 OFFCURVE",
"516 41 OFFCURVE",
"368 41 CURVE SMOOTH",
"244 41 OFFCURVE",
"149 103 OFFCURVE",
"149 196 CURVE SMOOTH",
"149 252 OFFCURVE",
"178 285 OFFCURVE",
"214 306 CURVE",
"183 305 LINE",
"310 74 OFFCURVE",
"480 -184 OFFCURVE",
"735 -184 CURVE SMOOTH"
);
}
);
width = 779;
}
);
note = Q;
unicode = 0051;
},
{
glyphname = R;
lastChange = "2018-02-28 06:37:29 +0000";
layers = (
{
anchors = (
{
name = bottom;
position = "{366, 0}";
},
{
name = top;
position = "{366, 680}";
}
);
hints = (
{
horizontal = 1;
origin = "{0, 66}";
target = "{0, 8}";
},
{
horizontal = 1;
place = "{373, 73}";
},
{
horizontal = 1;
origin = "{0, 18}";
target = "{0, 54}";
},
{
horizontal = 1;
origin = "{0, 18}";
target = "{0, 33}";
},
{
origin = "{0, 21}";
target = "{0, 30}";
},
{
origin = "{0, 57}";
target = "{0, 15}";
},
{
origin = "{0, 5}";
target = "{0, 2}";
}
);
layerId = "0B1DFD06-3317-40CA-B510-4969A0718C16";
paths = (
{
closed = 1;
nodes = (
"1415 -249 OFFCURVE",
"1480 -207 OFFCURVE",
"1480 -172 CURVE SMOOTH",
"1480 -164 OFFCURVE",
"1478 -150 OFFCURVE",
"1466 -143 CURVE",
"1442 -179 OFFCURVE",
"1382 -204 OFFCURVE",
"1278 -204 CURVE SMOOTH",
"968 -204 OFFCURVE",
"573 137 OFFCURVE",
"432 340 CURVE",
"432 329 LINE",
"577 354 OFFCURVE",
"646 434 OFFCURVE",
"646 515 CURVE SMOOTH",
"646 659 OFFCURVE",
"473 713 OFFCURVE",
"289 713 CURVE SMOOTH",
"142 713 OFFCURVE",
"-24 651 OFFCURVE",
"-24 531 CURVE SMOOTH",
"-24 486 OFFCURVE",
"-1 436 OFFCURVE",
"44 417 CURVE SMOOTH",
"58 411 OFFCURVE",
"70 408 OFFCURVE",
"87 408 CURVE",
"55 443 OFFCURVE",
"27 484 OFFCURVE",
"27 530 CURVE SMOOTH",
"27 606 OFFCURVE",
"103 671 OFFCURVE",
"199 671 CURVE SMOOTH",
"213 671 OFFCURVE",
"219 667 OFFCURVE",
"219 647 CURVE SMOOTH",
"219 496 OFFCURVE",
"218 264 OFFCURVE",
"195 -27 CURVE",
"199 -29 OFFCURVE",
"206 -33 OFFCURVE",
"209 -33 CURVE",
"216 -14 OFFCURVE",
"230 7 OFFCURVE",
"264 4 CURVE",
"263 79 OFFCURVE",
"262 151 OFFCURVE",
"262 221 CURVE SMOOTH",
"262 395 OFFCURVE",
"267 548 OFFCURVE",
"278 658 CURVE SMOOTH",
"280 677 OFFCURVE",
"295 679 OFFCURVE",
"341 679 CURVE SMOOTH",
"473 679 OFFCURVE",
"591 614 OFFCURVE",
"591 497 CURVE SMOOTH",
"591 410 OFFCURVE",
"501 362 OFFCURVE",
"354 362 CURVE SMOOTH",
"345 362 OFFCURVE",
"342 359 OFFCURVE",
"342 350 CURVE",
"589 59 OFFCURVE",
"945 -249 OFFCURVE",
"1297 -249 CURVE SMOOTH"
);
}
);
width = 720;
},
{
anchors = (
{
name = bottom;
position = "{329, 0}";
},
{
name = top;
position = "{551, 700}";
}
);
layerId = "4C458150-A1D2-4ED7-A293-C8767657F79E";
paths = (
{
closed = 1;
nodes = (
"1340 -239 OFFCURVE",
"1389 -184 OFFCURVE",
"1389 -147 CURVE SMOOTH",
"1389 -141 OFFCURVE",
"1385 -135 OFFCURVE",
"1381 -132 CURVE",
"1347 -168 OFFCURVE",
"1303 -199 OFFCURVE",
"1206 -199 CURVE SMOOTH",
"916 -199 OFFCURVE",
"595 137 OFFCURVE",
"443 340 CURVE",
"440 329 LINE",
"615 358 OFFCURVE",
"720 459 OFFCURVE",
"720 552 CURVE SMOOTH",
"720 661 OFFCURVE",
"609 713 OFFCURVE",
"413 713 CURVE SMOOTH",
"250 713 OFFCURVE",
"43 637 OFFCURVE",
"43 491 CURVE SMOOTH",
"43 455 OFFCURVE",
"60 429 OFFCURVE",
"85 417 CURVE SMOOTH",
"97 411 OFFCURVE",
"108 408 OFFCURVE",
"125 408 CURVE",
"103 441 OFFCURVE",
"95 466 OFFCURVE",
"95 496 CURVE SMOOTH",
"95 586 OFFCURVE",
"201 671 OFFCURVE",
"311 671 CURVE SMOOTH",
"319 671 OFFCURVE",
"326 670 OFFCURVE",
"326 662 CURVE SMOOTH",
"326 659 OFFCURVE",
"325 651 OFFCURVE",
"324 647 CURVE SMOOTH",
"287 497 OFFCURVE",
"216 264 OFFCURVE",
"110 -27 CURVE",
"114 -29 OFFCURVE",
"120 -33 OFFCURVE",
"123 -33 CURVE",
"136 -14 OFFCURVE",
"155 7 OFFCURVE",
"188 4 CURVE",
"257 264 OFFCURVE",
"329 504 OFFCURVE",
"386 658 CURVE SMOOTH",
"393 677 OFFCURVE",
"409 679 OFFCURVE",
"455 679 CURVE SMOOTH",
"580 679 OFFCURVE",
"660 625 OFFCURVE",
"660 539 CURVE SMOOTH",
"660 425 OFFCURVE",
"548 362 OFFCURVE",
"379 362 CURVE SMOOTH",
"367 362 OFFCURVE",
"364 356 OFFCURVE",
"364 350 CURVE",
"598 59 OFFCURVE",
"882 -239 OFFCURVE",
"1214 -239 CURVE SMOOTH"
);
}
);
width = 720;
},
{
anchors = (
{
name = bottom;
position = "{366, 0}";
},
{
name = top;
position = "{366, 680}";
}
);
hints = (
{
horizontal = 1;
origin = "{0, 66}";
target = "{0, 8}";
},
{
horizontal = 1;
place = "{373, 73}";
},
{
horizontal = 1;
origin = "{0, 18}";
target = "{0, 54}";
},
{
horizontal = 1;
origin = "{0, 18}";
target = "{0, 33}";
},
{
origin = "{0, 21}";
target = "{0, 30}";
},
{
origin = "{0, 57}";
target = "{0, 15}";
},
{
origin = "{0, 5}";
target = "{0, 2}";
}
);
layerId = "D07BE892-06F6-46A5-91A1-F9C5A6E66C70";
paths = (
{
closed = 1;
nodes = (
"1415 -249 OFFCURVE",
"1480 -197 OFFCURVE",
"1480 -132 CURVE SMOOTH",
"1480 -124 OFFCURVE",
"1478 -110 OFFCURVE",
"1466 -103 CURVE",
"1442 -139 OFFCURVE",
"1382 -164 OFFCURVE",
"1278 -164 CURVE SMOOTH",
"968 -164 OFFCURVE",
"593 137 OFFCURVE",
"452 340 CURVE",
"452 329 LINE",
"597 354 OFFCURVE",
"686 434 OFFCURVE",
"686 515 CURVE SMOOTH",
"686 659 OFFCURVE",
"473 713 OFFCURVE",
"289 713 CURVE SMOOTH",
"142 713 OFFCURVE",
"-44 651 OFFCURVE",
"-44 531 CURVE SMOOTH",
"-44 486 OFFCURVE",
"-19 433 OFFCURVE",
"24 417 CURVE SMOOTH",
"45 409 OFFCURVE",
"90 403 OFFCURVE",
"107 403 CURVE",
"75 428 OFFCURVE",
"47 474 OFFCURVE",
"47 530 CURVE SMOOTH",
"47 616 OFFCURVE",
"103 665 OFFCURVE",
"179 665 CURVE SMOOTH",
"193 665 OFFCURVE",
"199 661 OFFCURVE",
"199 641 CURVE SMOOTH",
"199 490 OFFCURVE",
"198 264 OFFCURVE",
"175 -27 CURVE",
"179 -29 OFFCURVE",
"186 -33 OFFCURVE",
"189 -33 CURVE",
"196 -14 OFFCURVE",
"250 7 OFFCURVE",
"284 4 CURVE",
"283 79 OFFCURVE",
"282 151 OFFCURVE",
"282 221 CURVE SMOOTH",
"282 395 OFFCURVE",
"286 538 OFFCURVE",
"298 648 CURVE SMOOTH",
"300 667 OFFCURVE",
"315 669 OFFCURVE",
"341 669 CURVE SMOOTH",
"473 669 OFFCURVE",
"591 614 OFFCURVE",
"591 497 CURVE SMOOTH",
"591 410 OFFCURVE",
"501 362 OFFCURVE",
"354 362 CURVE SMOOTH",
"345 362 OFFCURVE",
"342 359 OFFCURVE",
"342 350 CURVE",
"589 59 OFFCURVE",
"945 -249 OFFCURVE",
"1297 -249 CURVE SMOOTH"
);
}
);
width = 720;
}
);
note = R;
unicode = 0052;
},
{
glyphname = S;
lastChange = "2018-02-28 10:09:25 +0000";
layers = (
{
anchors = (
{
name = bottom;
position = "{309, 0}";
},
{
name = top;
position = "{307, 680}";
}
);
hints = (
{
horizontal = 1;
origin = "{0, 50}";
target = "{0, 38}";
},
{
horizontal = 1;
origin = "{0, 26}";
target = "{0, 11}";
},
{
origin = "{0, 44}";
target = "{0, 41}";
},
{
origin = "{0, 29}";
target = "{0, 8}";
},
{
origin = "{0, 35}";
target = "{0, 2}";
},
{
origin = "{0, 14}";
target = "{0, 23}";
}
);
layerId = "0B1DFD06-3317-40CA-B510-4969A0718C16";
paths = (
{
closed = 1;
nodes = (
"386 -12 OFFCURVE",
"500 63 OFFCURVE",
"500 188 CURVE SMOOTH",
"500 280 OFFCURVE",
"435 329 OFFCURVE",
"333 381 CURVE SMOOTH",
"239 429 OFFCURVE",
"159 468 OFFCURVE",
"159 558 CURVE SMOOTH",
"159 622 OFFCURVE",
"213 665 OFFCURVE",
"297 665 CURVE SMOOTH",
"388 665 OFFCURVE",
"435 634 OFFCURVE",
"435 592 CURVE SMOOTH",
"435 573 OFFCURVE",
"434 544 OFFCURVE",
"433 532 CURVE",
"440 529 OFFCURVE",
"453 525 OFFCURVE",
"462 525 CURVE",
"464 557 OFFCURVE",
"468 621 OFFCURVE",
"468 649 CURVE",
"453 673 OFFCURVE",
"393 707 OFFCURVE",
"305 707 CURVE SMOOTH",
"195 707 OFFCURVE",
"108 646 OFFCURVE",
"108 543 CURVE SMOOTH",
"108 446 OFFCURVE",
"178 403 OFFCURVE",
"288 345 CURVE SMOOTH",
"374 300 OFFCURVE",
"441 256 OFFCURVE",
"441 185 CURVE SMOOTH",
"441 92 OFFCURVE",
"373 28 OFFCURVE",
"274 28 CURVE SMOOTH",
"162 28 OFFCURVE",
"101 75 OFFCURVE",
"86 182 CURVE",
"79 179 OFFCURVE",
"70 173 OFFCURVE",
"65 167 CURVE",
"70 138 OFFCURVE",
"74 86 OFFCURVE",
"73 52 CURVE",
"91 25 OFFCURVE",
"161 -12 OFFCURVE",
"264 -12 CURVE SMOOTH"
);
}
);
width = 550;
},
{
anchors = (
{
name = bottom;
position = "{228, 0}";
},
{
name = top;
position = "{407, 700}";
}
);
layerId = "4C458150-A1D2-4ED7-A293-C8767657F79E";
paths = (
{
closed = 1;
nodes = (
"329 -12 OFFCURVE",
"486 55 OFFCURVE",
"480 195 CURVE SMOOTH",
"476 261 OFFCURVE",
"457 292 OFFCURVE",
"369 371 CURVE SMOOTH",
"300 433 OFFCURVE",
"242 478 OFFCURVE",
"242 547 CURVE SMOOTH",
"242 623 OFFCURVE",
"320 665 OFFCURVE",
"390 665 CURVE SMOOTH",
"461 665 OFFCURVE",
"503 641 OFFCURVE",
"503 600 CURVE SMOOTH",
"503 581 OFFCURVE",
"502 548 OFFCURVE",
"498 529 CURVE",
"504 527 OFFCURVE",
"514 525 OFFCURVE",
"523 525 CURVE",
"528 548 OFFCURVE",
"543 603 OFFCURVE",
"543 640 CURVE",
"530 673 OFFCURVE",
"466 707 OFFCURVE",
"398 707 CURVE SMOOTH",
"265 707 OFFCURVE",
"192 632 OFFCURVE",
"192 534 CURVE SMOOTH",
"192 455 OFFCURVE",
"246 413 OFFCURVE",
"320 345 CURVE SMOOTH",
"401 271 OFFCURVE",
"420 225 OFFCURVE",
"420 176 CURVE SMOOTH",
"420 79 OFFCURVE",
"310 28 OFFCURVE",
"214 28 CURVE SMOOTH",
"96 28 OFFCURVE",
"65 61 OFFCURVE",
"65 178 CURVE",
"57 178 OFFCURVE",
"48 176 OFFCURVE",
"42 171 CURVE",
"42 143 OFFCURVE",
"36 76 OFFCURVE",
"29 42 CURVE",
"42 15 OFFCURVE",
"133 -12 OFFCURVE",
"206 -12 CURVE SMOOTH"
);
}
);
width = 550;
},
{
anchors = (
{
name = bottom;
position = "{309, 0}";
},
{
name = top;
position = "{307, 680}";
}
);
hints = (
{
horizontal = 1;
origin = "{0, 50}";
target = "{0, 38}";
},
{
horizontal = 1;
origin = "{0, 26}";
target = "{0, 11}";
},
{
origin = "{0, 44}";
target = "{0, 41}";
},
{
origin = "{0, 29}";
target = "{0, 8}";
},
{
origin = "{0, 35}";
target = "{0, 2}";
},
{
origin = "{0, 17}";
target = "{0, 23}";
}
);
layerId = "D07BE892-06F6-46A5-91A1-F9C5A6E66C70";
paths = (
{
closed = 1;
nodes = (
"386 -12 OFFCURVE",
"510 63 OFFCURVE",
"510 188 CURVE SMOOTH",
"510 290 OFFCURVE",
"428 346 OFFCURVE",
"323 401 CURVE SMOOTH",
"229 450 OFFCURVE",
"189 493 OFFCURVE",
"189 558 CURVE SMOOTH",
"189 612 OFFCURVE",
"223 665 OFFCURVE",
"297 665 CURVE SMOOTH",
"377 665 OFFCURVE",
"430 633 OFFCURVE",
"430 567 CURVE SMOOTH",
"430 552 OFFCURVE",
"428 532 OFFCURVE",
"427 522 CURVE",
"437 522 OFFCURVE",
"453 524 OFFCURVE",
"462 528 CURVE",
"464 560 OFFCURVE",
"478 611 OFFCURVE",
"488 649 CURVE",
"463 677 OFFCURVE",
"393 707 OFFCURVE",
"305 707 CURVE SMOOTH",
"195 707 OFFCURVE",
"98 646 OFFCURVE",
"98 543 CURVE SMOOTH",
"98 446 OFFCURVE",
"171 398 OFFCURVE",
"278 335 CURVE SMOOTH",
"354 290 OFFCURVE",
"401 256 OFFCURVE",
"401 185 CURVE SMOOTH",
"401 112 OFFCURVE",
"363 38 OFFCURVE",
"274 38 CURVE SMOOTH",
"172 38 OFFCURVE",
"116 96 OFFCURVE",
"91 203 CURVE",
"81 202 OFFCURVE",
"71 197 OFFCURVE",
"65 192 CURVE",
"70 163 OFFCURVE",
"74 86 OFFCURVE",
"73 52 CURVE",
"91 25 OFFCURVE",
"161 -12 OFFCURVE",
"264 -12 CURVE SMOOTH"
);
}
);
width = 550;
}
);
note = S;
unicode = 0053;
},
{
glyphname = T;
lastChange = "2018-03-02 06:20:41 +0000";
layers = (
{
anchors = (
{
name = bottom;
position = "{221, 0}";
},
{
name = center;
position = "{383, 350}";
},
{
name = top;
position = "{459, 700}";
}
);
layerId = "0B1DFD06-3317-40CA-B510-4969A0718C16";
paths = (
{
closed = 1;
nodes = (
"139 299 OFFCURVE",
"154 299 OFFCURVE",
"177 299 CURVE",
"180 304 LINE",
"76 360 OFFCURVE",
"27 412 OFFCURVE",
"27 496 CURVE SMOOTH",
"27 597 OFFCURVE",
"101 680 OFFCURVE",
"205 680 CURVE SMOOTH",
"314 680 OFFCURVE",
"512 632 OFFCURVE",
"609 632 CURVE SMOOTH",
"706 632 OFFCURVE",
"744 678 OFFCURVE",
"747 740 CURVE",
"723 692 OFFCURVE",
"670 679 OFFCURVE",
"613 679 CURVE SMOOTH",
"538 679 OFFCURVE",
"402 722 OFFCURVE",
"282 722 CURVE SMOOTH",
"43 722 OFFCURVE",
"-25 601 OFFCURVE",
"-26 482 CURVE SMOOTH",
"-27 400 OFFCURVE",
"42 321 OFFCURVE",
"118 291 CURVE"
);
},
{
closed = 1;
nodes = (
"282 -15 OFFCURVE",
"400 63 OFFCURVE",
"411 256 CURVE SMOOTH",
"417 365 OFFCURVE",
"410 560 OFFCURVE",
"431 637 CURVE",
"422 640 LINE",
"404 628 OFFCURVE",
"381 607 OFFCURVE",
"366 589 CURVE",
"358 510 OFFCURVE",
"362 359 OFFCURVE",
"356 253 CURVE SMOOTH",
"347 89 OFFCURVE",
"242 13 OFFCURVE",
"130 13 CURVE SMOOTH",
"66 13 OFFCURVE",
"4 37 OFFCURVE",
"-29 68 CURVE",
"-33 57 LINE",
"-27 42 OFFCURVE",
"-20 22 OFFCURVE",
"-12 8 CURVE",
"17 -4 OFFCURVE",
"71 -15 OFFCURVE",
"143 -15 CURVE SMOOTH"
);
}
);
width = 597;
},
{
anchors = (
{
name = bottom;
position = "{98, 0}";
},
{
name = center;
position = "{401, 350}";
},
{
name = top;
position = "{539, 700}";
}
);
layerId = "4C458150-A1D2-4ED7-A293-C8767657F79E";
paths = (
{
closed = 1;
nodes = (
"168 299 OFFCURVE",
"183 299 OFFCURVE",
"206 299 CURVE",
"210 304 LINE",
"118 370 OFFCURVE",
"73 424 OFFCURVE",
"73 508 CURVE SMOOTH",
"73 608 OFFCURVE",
"177 680 OFFCURVE",
"281 680 CURVE SMOOTH",
"390 680 OFFCURVE",
"580 632 OFFCURVE",
"677 632 CURVE SMOOTH",
"774 632 OFFCURVE",
"820 678 OFFCURVE",
"834 740 CURVE",
"802 692 OFFCURVE",
"746 679 OFFCURVE",
"689 679 CURVE SMOOTH",
"614 679 OFFCURVE",
"486 722 OFFCURVE",
"366 722 CURVE SMOOTH",
"117 722 OFFCURVE",
"19 619 OFFCURVE",
"19 502 CURVE SMOOTH",
"19 420 OFFCURVE",
"77 331 OFFCURVE",
"146 291 CURVE"
);
},
{
closed = 1;
nodes = (
"259 -15 OFFCURVE",
"361 79 OFFCURVE",
"408 274 CURVE SMOOTH",
"434 383 OFFCURVE",
"473 580 OFFCURVE",
"516 637 CURVE",
"507 640 LINE",
"479 628 OFFCURVE",
"454 617 OFFCURVE",
"430 589 CURVE",
"406 510 OFFCURVE",
"378 382 OFFCURVE",
"353 276 CURVE SMOOTH",
"299 48 OFFCURVE",
"205 14 OFFCURVE",
"91 14 CURVE SMOOTH",
"28 14 OFFCURVE",
"-23 46 OFFCURVE",
"-55 79 CURVE",
"-64 69 LINE",
"-60 51 OFFCURVE",
"-55 35 OFFCURVE",
"-47 14 CURVE",
"-14 -1 OFFCURVE",
"55 -15 OFFCURVE",
"105 -15 CURVE SMOOTH"
);
}
);
width = 597;
},
{
anchors = (
{
name = bottom;
position = "{221, 0}";
},
{
name = center;
position = "{383, 350}";
},
{
name = top;
position = "{459, 700}";
}
);
layerId = "D07BE892-06F6-46A5-91A1-F9C5A6E66C70";
paths = (
{
closed = 1;
nodes = (
"139 299 OFFCURVE",
"194 299 OFFCURVE",
"217 299 CURVE",
"220 304 LINE",
"116 350 OFFCURVE",
"67 417 OFFCURVE",
"67 506 CURVE SMOOTH",
"67 602 OFFCURVE",
"101 680 OFFCURVE",
"205 680 CURVE SMOOTH",
"314 680 OFFCURVE",
"492 592 OFFCURVE",
"599 592 CURVE SMOOTH",
"706 592 OFFCURVE",
"744 648 OFFCURVE",
"747 740 CURVE",
"723 692 OFFCURVE",
"670 679 OFFCURVE",
"613 679 CURVE SMOOTH",
"538 679 OFFCURVE",
"402 722 OFFCURVE",
"282 722 CURVE SMOOTH",
"43 722 OFFCURVE",
"-25 611 OFFCURVE",
"-26 492 CURVE SMOOTH",
"-27 390 OFFCURVE",
"42 311 OFFCURVE",
"118 291 CURVE"
);
},
{
closed = 1;
nodes = (
"282 -15 OFFCURVE",
"400 63 OFFCURVE",
"411 256 CURVE SMOOTH",
"417 365 OFFCURVE",
"410 550 OFFCURVE",
"431 627 CURVE",
"422 630 LINE",
"394 618 OFFCURVE",
"351 587 OFFCURVE",
"330 549 CURVE",
"322 500 OFFCURVE",
"322 359 OFFCURVE",
"316 253 CURVE SMOOTH",
"307 89 OFFCURVE",
"242 23 OFFCURVE",
"130 23 CURVE SMOOTH",
"66 23 OFFCURVE",
"4 57 OFFCURVE",
"-29 88 CURVE",
"-33 77 LINE",
"-27 62 OFFCURVE",
"-20 32 OFFCURVE",
"-12 8 CURVE",
"17 -4 OFFCURVE",
"71 -15 OFFCURVE",
"143 -15 CURVE SMOOTH"
);
}
);
width = 597;
}
);
note = T;
unicode = 0054;
},
{
glyphname = U;
lastChange = "2018-02-28 06:15:04 +0000";
layers = (
{
anchors = (
{
name = bottom;
position = "{358, 0}";
},
{
name = ogonek;
position = "{862, 10}";
},
{
name = top;
position = "{445, 660}";
},
{
name = topright;
position = "{719, 686}";
}
);
layerId = "0B1DFD06-3317-40CA-B510-4969A0718C16";
paths = (
{
closed = 1;
nodes = (
"871 -9 OFFCURVE",
"952 49 OFFCURVE",
"945 88 CURVE SMOOTH",
"944 93 OFFCURVE",
"940 100 OFFCURVE",
"936 103 CURVE",
"915 75 OFFCURVE",
"867 39 OFFCURVE",
"805 39 CURVE SMOOTH",
"732 39 OFFCURVE",
"694 66 OFFCURVE",
"678 127 CURVE SMOOTH",
"666 174 OFFCURVE",
"666 217 OFFCURVE",
"666 277 CURVE SMOOTH",
"666 400 OFFCURVE",
"674 528 OFFCURVE",
"693 641 CURVE SMOOTH",
"699 676 OFFCURVE",
"709 691 OFFCURVE",
"719 700 CURVE",
"701 705 OFFCURVE",
"685 709 OFFCURVE",
"672 709 CURVE SMOOTH",
"641 709 OFFCURVE",
"640 690 OFFCURVE",
"630 611 CURVE SMOOTH",
"622 546 OFFCURVE",
"610 409 OFFCURVE",
"610 308 CURVE SMOOTH",
"610 169 OFFCURVE",
"507 44 OFFCURVE",
"384 44 CURVE SMOOTH",
"285 44 OFFCURVE",
"226 102 OFFCURVE",
"226 208 CURVE SMOOTH",
"226 350 OFFCURVE",
"238 537 OFFCURVE",
"238 656 CURVE SMOOTH",
"238 693 OFFCURVE",
"221 702 OFFCURVE",
"193 702 CURVE SMOOTH",
"154 702 OFFCURVE",
"105 692 OFFCURVE",
"63 692 CURVE SMOOTH",
"42 692 OFFCURVE",
"28 696 OFFCURVE",
"18 702 CURVE",
"17 697 OFFCURVE",
"14 688 OFFCURVE",
"14 682 CURVE SMOOTH",
"14 652 OFFCURVE",
"23 641 OFFCURVE",
"51 641 CURVE SMOOTH",
"85 641 OFFCURVE",
"130 657 OFFCURVE",
"156 657 CURVE SMOOTH",
"180 657 OFFCURVE",
"185 650 OFFCURVE",
"185 623 CURVE SMOOTH",
"185 601 OFFCURVE",
"171 321 OFFCURVE",
"171 200 CURVE SMOOTH",
"171 81 OFFCURVE",
"249 -8 OFFCURVE",
"365 -8 CURVE SMOOTH",
"517 -8 OFFCURVE",
"608 93 OFFCURVE",
"646 280 CURVE",
"629 282 LINE",
"624 254 OFFCURVE",
"621 223 OFFCURVE",
"621 192 CURVE SMOOTH",
"621 164 OFFCURVE",
"624 137 OFFCURVE",
"630 112 CURVE SMOOTH",
"650 33 OFFCURVE",
"707 -9 OFFCURVE",
"789 -9 CURVE SMOOTH"
);
}
);
width = 816;
},
{
anchors = (
{
name = bottom;
position = "{296, 0}";
},
{
name = ogonek;
position = "{802, 10}";
},
{
name = top;
position = "{520, 660}";
},
{
name = topright;
position = "{778, 686}";
}
);
layerId = "4C458150-A1D2-4ED7-A293-C8767657F79E";
paths = (
{
closed = 1;
nodes = (
"808 -9 OFFCURVE",
"899 49 OFFCURVE",
"899 88 CURVE SMOOTH",
"899 93 OFFCURVE",
"896 100 OFFCURVE",
"892 103 CURVE",
"866 75 OFFCURVE",
"812 39 OFFCURVE",
"750 39 CURVE SMOOTH",
"677 39 OFFCURVE",
"644 66 OFFCURVE",
"639 127 CURVE SMOOTH",
"635 174 OFFCURVE",
"645 217 OFFCURVE",
"657 277 CURVE SMOOTH",
"685 416 OFFCURVE",
"716 511 OFFCURVE",
"768 641 CURVE SMOOTH",
"782 676 OFFCURVE",
"793 691 OFFCURVE",
"805 700 CURVE",
"788 705 OFFCURVE",
"768 709 OFFCURVE",
"755 709 CURVE SMOOTH",
"724 709 OFFCURVE",
"719 690 OFFCURVE",
"696 611 CURVE SMOOTH",
"664 502 OFFCURVE",
"643 428 OFFCURVE",
"603 308 CURVE SMOOTH",
"557 170 OFFCURVE",
"425 45 OFFCURVE",
"301 45 CURVE SMOOTH",
"228 45 OFFCURVE",
"199 86 OFFCURVE",
"199 166 CURVE SMOOTH",
"199 280 OFFCURVE",
"261 439 OFFCURVE",
"322 636 CURVE SMOOTH",
"326 649 OFFCURVE",
"330 661 OFFCURVE",
"329 673 CURVE SMOOTH",
"327 694 OFFCURVE",
"311 702 OFFCURVE",
"289 702 CURVE SMOOTH",
"250 702 OFFCURVE",
"192 700 OFFCURVE",
"150 700 CURVE SMOOTH",
"129 700 OFFCURVE",
"118 704 OFFCURVE",
"109 710 CURVE",
"106 702 OFFCURVE",
"103 689 OFFCURVE",
"104 673 CURVE SMOOTH",
"105 658 OFFCURVE",
"120 649 OFFCURVE",
"138 649 CURVE SMOOTH",
"168 649 OFFCURVE",
"205 657 OFFCURVE",
"235 657 CURVE SMOOTH",
"257 657 OFFCURVE",
"264 650 OFFCURVE",
"265 637 CURVE SMOOTH",
"266 625 OFFCURVE",
"262 611 OFFCURVE",
"257 593 CURVE SMOOTH",
"206 408 OFFCURVE",
"136 274 OFFCURVE",
"136 139 CURVE SMOOTH",
"136 50 OFFCURVE",
"197 -8 OFFCURVE",
"277 -8 CURVE SMOOTH",
"412 -8 OFFCURVE",
"553 93 OFFCURVE",
"624 280 CURVE",
"617 282 LINE",
"598 228 OFFCURVE",
"584 164 OFFCURVE",
"588 112 CURVE SMOOTH",
"594 33 OFFCURVE",
"644 -9 OFFCURVE",
"726 -9 CURVE SMOOTH"
);
}
);
width = 816;
},
{
anchors = (
{
name = bottom;
position = "{358, 0}";
},
{
name = ogonek;
position = "{862, 10}";
},
{
name = top;
position = "{445, 660}";
},
{
name = topright;
position = "{719, 686}";
}
);
layerId = "D07BE892-06F6-46A5-91A1-F9C5A6E66C70";
paths = (
{
closed = 1;
nodes = (
"873 -9 OFFCURVE",
"945 46 OFFCURVE",
"945 85 CURVE SMOOTH",
"945 98 OFFCURVE",
"940 105 OFFCURVE",
"932 109 CURVE",
"911 80 OFFCURVE",
"869 49 OFFCURVE",
"805 49 CURVE SMOOTH",
"730 49 OFFCURVE",
"702 87 OFFCURVE",
"688 145 CURVE SMOOTH",
"677 192 OFFCURVE",
"676 227 OFFCURVE",
"676 287 CURVE SMOOTH",
"676 410 OFFCURVE",
"684 528 OFFCURVE",
"703 641 CURVE SMOOTH",
"709 676 OFFCURVE",
"719 691 OFFCURVE",
"729 700 CURVE",
"711 705 OFFCURVE",
"655 709 OFFCURVE",
"642 709 CURVE SMOOTH",
"611 709 OFFCURVE",
"609 690 OFFCURVE",
"600 611 CURVE SMOOTH",
"588 502 OFFCURVE",
"580 393 OFFCURVE",
"580 308 CURVE SMOOTH",
"580 169 OFFCURVE",
"499 55 OFFCURVE",
"375 55 CURVE SMOOTH",
"276 55 OFFCURVE",
"246 123 OFFCURVE",
"246 233 CURVE SMOOTH",
"246 338 OFFCURVE",
"258 491 OFFCURVE",
"258 636 CURVE SMOOTH",
"258 673 OFFCURVE",
"241 702 OFFCURVE",
"193 702 CURVE SMOOTH",
"154 702 OFFCURVE",
"93 693 OFFCURVE",
"51 693 CURVE SMOOTH",
"30 693 OFFCURVE",
"16 696 OFFCURVE",
"6 702 CURVE",
"5 698 OFFCURVE",
"4 684 OFFCURVE",
"4 676 CURVE SMOOTH",
"4 648 OFFCURVE",
"11 631 OFFCURVE",
"45 631 CURVE SMOOTH",
"82 631 OFFCURVE",
"115 647 OFFCURVE",
"139 647 CURVE SMOOTH",
"160 647 OFFCURVE",
"166 637 OFFCURVE",
"165 613 CURVE SMOOTH",
"159 467 OFFCURVE",
"151 362 OFFCURVE",
"151 215 CURVE SMOOTH",
"151 82 OFFCURVE",
"226 -8 OFFCURVE",
"360 -8 CURVE SMOOTH",
"521 -8 OFFCURVE",
"618 93 OFFCURVE",
"626 270 CURVE",
"599 282 LINE",
"594 254 OFFCURVE",
"591 223 OFFCURVE",
"591 192 CURVE SMOOTH",
"591 164 OFFCURVE",
"594 141 OFFCURVE",
"600 116 CURVE SMOOTH",
"619 37 OFFCURVE",
"679 -9 OFFCURVE",
"771 -9 CURVE SMOOTH"
);
}
);
width = 816;
}
);
note = U;
unicode = 0055;
},
{
glyphname = V;
lastChange = "2018-02-28 10:13:49 +0000";
layers = (
{
layerId = "0B1DFD06-3317-40CA-B510-4969A0718C16";
paths = (
{
closed = 1;
nodes = (
"366 -10 OFFCURVE",
"386 -7 OFFCURVE",
"412 -6 CURVE SMOOTH",
"425 -6 OFFCURVE",
"428 1 OFFCURVE",
"431 15 CURVE SMOOTH",
"448 150 OFFCURVE",
"627 492 OFFCURVE",
"710 675 CURVE SMOOTH",
"728 713 OFFCURVE",
"734 741 OFFCURVE",
"734 763 CURVE SMOOTH",
"734 809 OFFCURVE",
"710 829 OFFCURVE",
"687 829 CURVE SMOOTH",
"665 829 OFFCURVE",
"655 824 OFFCURVE",
"646 821 CURVE",
"657 808 OFFCURVE",
"665 782 OFFCURVE",
"665 764 CURVE SMOOTH",
"665 648 OFFCURVE",
"449 246 OFFCURVE",
"385 74 CURVE",
"396 71 LINE",
"350 323 OFFCURVE",
"342 427 OFFCURVE",
"283 595 CURVE SMOOTH",
"260 663 OFFCURVE",
"206 708 OFFCURVE",
"126 708 CURVE SMOOTH",
"34 708 OFFCURVE",
"-54 666 OFFCURVE",
"-54 623 CURVE SMOOTH",
"-54 611 OFFCURVE",
"-48 602 OFFCURVE",
"-40 598 CURVE",
"-10 637 OFFCURVE",
"44 661 OFFCURVE",
"93 661 CURVE SMOOTH",
"186 661 OFFCURVE",
"214 621 OFFCURVE",
"242 538 CURVE SMOOTH",
"281 429 OFFCURVE",
"350 97 OFFCURVE",
"346 -13 CURVE",
"349 -16 OFFCURVE",
"352 -18 OFFCURVE",
"357 -20 CURVE"
);
}
);
width = 669;
},
{
layerId = "4C458150-A1D2-4ED7-A293-C8767657F79E";
paths = (
{
closed = 1;
nodes = (
"293 -10 OFFCURVE",
"313 -7 OFFCURVE",
"340 -6 CURVE SMOOTH",
"353 -6 OFFCURVE",
"357 1 OFFCURVE",
"362 15 CURVE SMOOTH",
"403 150 OFFCURVE",
"642 492 OFFCURVE",
"758 675 CURVE SMOOTH",
"789 724 OFFCURVE",
"799 756 OFFCURVE",
"799 779 CURVE SMOOTH",
"799 814 OFFCURVE",
"782 829 OFFCURVE",
"762 829 CURVE SMOOTH",
"740 829 OFFCURVE",
"729 824 OFFCURVE",
"719 821 CURVE",
"727 809 OFFCURVE",
"730 794 OFFCURVE",
"730 776 CURVE SMOOTH",
"730 679 OFFCURVE",
"433 243 OFFCURVE",
"327 74 CURVE",
"337 71 LINE",
"337 115 OFFCURVE",
"340 198 OFFCURVE",
"339 286 CURVE SMOOTH",
"337 548 OFFCURVE",
"342 708 OFFCURVE",
"180 708 CURVE SMOOTH",
"84 708 OFFCURVE",
"-17 662 OFFCURVE",
"-17 617 CURVE SMOOTH",
"-17 608 OFFCURVE",
"-12 601 OFFCURVE",
"-6 598 CURVE",
"31 637 OFFCURVE",
"89 661 OFFCURVE",
"138 661 CURVE SMOOTH",
"288 661 OFFCURVE",
"286 522 OFFCURVE",
"286 220 CURVE SMOOTH",
"286 143 OFFCURVE",
"284 43 OFFCURVE",
"272 -13 CURVE",
"275 -16 OFFCURVE",
"278 -18 OFFCURVE",
"282 -20 CURVE"
);
}
);
width = 669;
},
{
layerId = "D07BE892-06F6-46A5-91A1-F9C5A6E66C70";
paths = (
{
closed = 1;
nodes = (
"346 -10 OFFCURVE",
"386 -7 OFFCURVE",
"412 -6 CURVE SMOOTH",
"425 -6 OFFCURVE",
"428 1 OFFCURVE",
"431 15 CURVE SMOOTH",
"448 150 OFFCURVE",
"627 492 OFFCURVE",
"710 675 CURVE SMOOTH",
"733 724 OFFCURVE",
"739 744 OFFCURVE",
"739 773 CURVE SMOOTH",
"739 809 OFFCURVE",
"718 829 OFFCURVE",
"687 829 CURVE SMOOTH",
"651 829 OFFCURVE",
"629 816 OFFCURVE",
"606 811 CURVE",
"616 799 OFFCURVE",
"624 784 OFFCURVE",
"624 766 CURVE SMOOTH",
"624 639 OFFCURVE",
"451 250 OFFCURVE",
"385 71 CURVE",
"396 71 LINE",
"367 230 OFFCURVE",
"347 340 OFFCURVE",
"310 503 CURVE SMOOTH",
"279 638 OFFCURVE",
"218 708 OFFCURVE",
"106 708 CURVE SMOOTH",
"10 708 OFFCURVE",
"-54 663 OFFCURVE",
"-54 617 CURVE SMOOTH",
"-54 599 OFFCURVE",
"-49 585 OFFCURVE",
"-42 578 CURVE",
"-10 616 OFFCURVE",
"20 641 OFFCURVE",
"75 641 CURVE SMOOTH",
"149 641 OFFCURVE",
"194 610 OFFCURVE",
"225 499 CURVE SMOOTH",
"264 360 OFFCURVE",
"330 93 OFFCURVE",
"326 -13 CURVE",
"329 -16 OFFCURVE",
"332 -18 OFFCURVE",
"337 -20 CURVE"
);
}
);
width = 669;
}
);
note = V;
unicode = 0056;
},
{
glyphname = W;
lastChange = "2018-03-02 06:20:55 +0000";
layers = (
{
anchors = (
{
name = bottom;
position = "{486, 0}";
},
{
name = top;
position = "{482, 650}";
}
);
layerId = "0B1DFD06-3317-40CA-B510-4969A0718C16";
paths = (
{
closed = 1;
nodes = (
"242 -19 OFFCURVE",
"245 -5 OFFCURVE",
"277 -5 CURVE SMOOTH",
"286 -5 OFFCURVE",
"290 1 OFFCURVE",
"287 11 CURVE",
"277 80 OFFCURVE",
"448 499 OFFCURVE",
"476 544 CURVE",
"467 549 LINE",
"541 384 OFFCURVE",
"655 37 OFFCURVE",
"658 -4 CURVE SMOOTH",
"659 -17 OFFCURVE",
"669 -26 OFFCURVE",
"676 -23 CURVE SMOOTH",
"698 -14 OFFCURVE",
"696 -10 OFFCURVE",
"721 -6 CURVE",
"735 -2 OFFCURVE",
"734 6 OFFCURVE",
"736 15 CURVE",
"773 301 OFFCURVE",
"875 683 OFFCURVE",
"994 734 CURVE SMOOTH",
"1001 737 OFFCURVE",
"1007 737 OFFCURVE",
"1019 738 CURVE",
"993 759 OFFCURVE",
"986 770 OFFCURVE",
"960 770 CURVE SMOOTH",
"834 770 OFFCURVE",
"747 376 OFFCURVE",
"684 54 CURVE",
"696 58 LINE",
"626 240 OFFCURVE",
"566 403 OFFCURVE",
"500 632 CURVE",
"476 632 OFFCURVE",
"453 629 OFFCURVE",
"447 621 CURVE",
"373 445 OFFCURVE",
"309 253 OFFCURVE",
"243 76 CURVE",
"259 77 LINE",
"230 246 OFFCURVE",
"188 449 OFFCURVE",
"169 588 CURVE SMOOTH",
"163 633 OFFCURVE",
"163 687 OFFCURVE",
"171 696 CURVE SMOOTH",
"176 702 OFFCURVE",
"170 713 OFFCURVE",
"161 713 CURVE SMOOTH",
"151 713 OFFCURVE",
"164 703 OFFCURVE",
"-21 665 CURVE",
"-34 665 OFFCURVE",
"-18 619 OFFCURVE",
"-5 619 CURVE SMOOTH",
"14 619 OFFCURVE",
"43 632 OFFCURVE",
"73 632 CURVE SMOOTH",
"89 632 OFFCURVE",
"100 625 OFFCURVE",
"106 609 CURVE SMOOTH",
"159 467 OFFCURVE",
"218 65 OFFCURVE",
"214 -15 CURVE",
"214 -24 OFFCURVE",
"217 -29 OFFCURVE",
"224 -29 CURVE"
);
}
);
width = 935;
},
{
anchors = (
{
name = bottom;
position = "{461, 0}";
},
{
name = top;
position = "{580, 700}";
}
);
layerId = "4C458150-A1D2-4ED7-A293-C8767657F79E";
paths = (
{
closed = 1;
nodes = (
"223 -19 OFFCURVE",
"229 -5 OFFCURVE",
"261 -5 CURVE SMOOTH",
"270 -5 OFFCURVE",
"275 1 OFFCURVE",
"274 11 CURVE",
"276 80 OFFCURVE",
"521 499 OFFCURVE",
"557 544 CURVE",
"548 549 LINE",
"593 384 OFFCURVE",
"645 37 OFFCURVE",
"642 -4 CURVE SMOOTH",
"641 -17 OFFCURVE",
"649 -26 OFFCURVE",
"657 -23 CURVE SMOOTH",
"680 -14 OFFCURVE",
"679 -10 OFFCURVE",
"705 -6 CURVE",
"719 -2 OFFCURVE",
"720 6 OFFCURVE",
"723 15 CURVE",
"811 301 OFFCURVE",
"980 686 OFFCURVE",
"1108 734 CURVE SMOOTH",
"1116 737 OFFCURVE",
"1122 737 OFFCURVE",
"1134 738 CURVE",
"1112 759 OFFCURVE",
"1106 770 OFFCURVE",
"1080 770 CURVE SMOOTH",
"954 770 OFFCURVE",
"798 376 OFFCURVE",
"678 54 CURVE",
"691 58 LINE",
"653 240 OFFCURVE",
"622 403 OFFCURVE",
"596 632 CURVE",
"572 632 OFFCURVE",
"549 629 OFFCURVE",
"541 621 CURVE",
"436 445 OFFCURVE",
"338 253 OFFCURVE",
"241 76 CURVE",
"257 77 LINE",
"258 246 OFFCURVE",
"251 449 OFFCURVE",
"257 588 CURVE SMOOTH",
"259 633 OFFCURVE",
"269 687 OFFCURVE",
"278 696 CURVE SMOOTH",
"284 702 OFFCURVE",
"280 713 OFFCURVE",
"271 713 CURVE SMOOTH",
"261 713 OFFCURVE",
"273 703 OFFCURVE",
"81 665 CURVE",
"68 665 OFFCURVE",
"76 619 OFFCURVE",
"89 619 CURVE SMOOTH",
"108 619 OFFCURVE",
"139 632 OFFCURVE",
"169 632 CURVE SMOOTH",
"185 632 OFFCURVE",
"195 625 OFFCURVE",
"198 609 CURVE SMOOTH",
"225 466 OFFCURVE",
"214 65 OFFCURVE",
"196 -15 CURVE",
"194 -24 OFFCURVE",
"197 -29 OFFCURVE",
"204 -29 CURVE"
);
}
);
width = 935;
},
{
anchors = (
{
name = bottom;
position = "{486, 0}";
},
{
name = top;
position = "{482, 650}";
}
);
layerId = "D07BE892-06F6-46A5-91A1-F9C5A6E66C70";
paths = (
{
closed = 1;
nodes = (
"242 -19 OFFCURVE",
"275 -5 OFFCURVE",
"307 -5 CURVE SMOOTH",
"316 -5 OFFCURVE",
"315 4 OFFCURVE",
"317 14 CURVE SMOOTH",
"341 142 OFFCURVE",
"437 419 OFFCURVE",
"482 519 CURVE",
"467 519 LINE",
"531 344 OFFCURVE",
"608 153 OFFCURVE",
"628 -4 CURVE SMOOTH",
"630 -17 OFFCURVE",
"639 -26 OFFCURVE",
"646 -23 CURVE SMOOTH",
"668 -14 OFFCURVE",
"686 -10 OFFCURVE",
"721 -6 CURVE",
"735 -2 OFFCURVE",
"734 6 OFFCURVE",
"736 15 CURVE SMOOTH",
"773 301 OFFCURVE",
"875 673 OFFCURVE",
"994 724 CURVE SMOOTH",
"1001 727 OFFCURVE",
"1007 727 OFFCURVE",
"1019 728 CURVE",
"993 749 OFFCURVE",
"946 770 OFFCURVE",
"920 770 CURVE SMOOTH",
"794 770 OFFCURVE",
"717 376 OFFCURVE",
"664 54 CURVE",
"686 58 LINE",
"636 240 OFFCURVE",
"576 413 OFFCURVE",
"510 652 CURVE",
"486 652 OFFCURVE",
"443 639 OFFCURVE",
"437 631 CURVE",
"383 455 OFFCURVE",
"329 273 OFFCURVE",
"263 66 CURVE",
"279 67 LINE",
"250 236 OFFCURVE",
"218 449 OFFCURVE",
"199 588 CURVE SMOOTH",
"193 633 OFFCURVE",
"193 687 OFFCURVE",
"201 696 CURVE SMOOTH",
"206 702 OFFCURVE",
"200 713 OFFCURVE",
"191 713 CURVE SMOOTH",
"181 713 OFFCURVE",
"194 703 OFFCURVE",
"-21 665 CURVE",
"-34 665 OFFCURVE",
"-18 619 OFFCURVE",
"-5 619 CURVE SMOOTH",
"14 619 OFFCURVE",
"33 632 OFFCURVE",
"63 632 CURVE SMOOTH",
"79 632 OFFCURVE",
"90 625 OFFCURVE",
"96 609 CURVE SMOOTH",
"149 467 OFFCURVE",
"217 65 OFFCURVE",
"214 -15 CURVE SMOOTH",
"214 -24 OFFCURVE",
"217 -29 OFFCURVE",
"224 -29 CURVE"
);
}
);
width = 935;
}
);
note = W;
unicode = 0057;
},
{
glyphname = X;
lastChange = "2018-03-02 06:21:15 +0000";
layers = (
{
layerId = "0B1DFD06-3317-40CA-B510-4969A0718C16";
paths = (
{
closed = 1;
nodes = (
"361 511 OFFCURVE",
"318 583 CURVE SMOOTH",
"273 658 OFFCURVE",
"231 704 OFFCURVE",
"155 704 CURVE SMOOTH",
"81 704 OFFCURVE",
"-4 661 OFFCURVE",
"3 624 CURVE SMOOTH",
"5 613 OFFCURVE",
"12 605 OFFCURVE",
"18 600 CURVE",
"47 631 OFFCURVE",
"79 657 OFFCURVE",
"127 657 CURVE SMOOTH",
"187 657 OFFCURVE",
"222 637 OFFCURVE",
"259 577 CURVE SMOOTH",
"310 495 OFFCURVE",
"399 259 OFFCURVE",
"467 145 CURVE SMOOTH",
"530 40 OFFCURVE",
"582 -13 OFFCURVE",
"650 -13 CURVE SMOOTH",
"720 -13 OFFCURVE",
"804 48 OFFCURVE",
"799 86 CURVE SMOOTH",
"798 94 OFFCURVE",
"793 102 OFFCURVE",
"787 106 CURVE",
"760 67 OFFCURVE",
"716 43 OFFCURVE",
"677 43 CURVE SMOOTH",
"626 43 OFFCURVE",
"585 65 OFFCURVE",
"528 154 CURVE SMOOTH",
"450 276 OFFCURVE"
);
},
{
closed = 1;
nodes = (
"311 328 OFFCURVE",
"148 142 CURVE SMOOTH",
"78 62 OFFCURVE",
"75 17 OFFCURVE",
"83 -30 CURVE SMOOTH",
"88 -60 OFFCURVE",
"129 -80 OFFCURVE",
"156 -90 CURVE",
"152 -79 OFFCURVE",
"149 -68 OFFCURVE",
"147 -57 CURVE SMOOTH",
"137 -1 OFFCURVE",
"142 47 OFFCURVE",
"176 91 CURVE SMOOTH",
"350 316 OFFCURVE",
"446 433 OFFCURVE",
"692 679 CURVE SMOOTH",
"695 682 OFFCURVE",
"697 686 OFFCURVE",
"696 691 CURVE SMOOTH",
"693 704 OFFCURVE",
"641 754 OFFCURVE",
"632 754 CURVE SMOOTH",
"623 754 OFFCURVE",
"620 753 OFFCURVE",
"619 750 CURVE",
"625 744 OFFCURVE",
"631 736 OFFCURVE",
"632 728 CURVE SMOOTH",
"633 722 OFFCURVE",
"632 718 OFFCURVE",
"628 713 CURVE SMOOTH",
"387 412 OFFCURVE"
);
}
);
width = 802;
},
{
layerId = "4C458150-A1D2-4ED7-A293-C8767657F79E";
paths = (
{
closed = 1;
nodes = (
"407 508 OFFCURVE",
"379 580 CURVE SMOOTH",
"350 655 OFFCURVE",
"308 704 OFFCURVE",
"232 704 CURVE SMOOTH",
"158 704 OFFCURVE",
"72 661 OFFCURVE",
"72 624 CURVE SMOOTH",
"72 613 OFFCURVE",
"78 605 OFFCURVE",
"83 600 CURVE",
"118 633 OFFCURVE",
"158 657 OFFCURVE",
"207 657 CURVE SMOOTH",
"265 657 OFFCURVE",
"295 640 OFFCURVE",
"319 574 CURVE SMOOTH",
"349 491 OFFCURVE",
"406 253 OFFCURVE",
"452 141 CURVE SMOOTH",
"495 36 OFFCURVE",
"541 -13 OFFCURVE",
"609 -13 CURVE SMOOTH",
"679 -13 OFFCURVE",
"774 48 OFFCURVE",
"774 86 CURVE SMOOTH",
"774 94 OFFCURVE",
"770 102 OFFCURVE",
"765 106 CURVE",
"731 67 OFFCURVE",
"680 41 OFFCURVE",
"641 41 CURVE SMOOTH",
"589 41 OFFCURVE",
"553 61 OFFCURVE",
"514 150 CURVE SMOOTH",
"460 272 OFFCURVE"
);
},
{
closed = 1;
nodes = (
"259 254 OFFCURVE",
"132 142 CURVE SMOOTH",
"46 67 OFFCURVE",
"37 17 OFFCURVE",
"37 -30 CURVE SMOOTH",
"37 -60 OFFCURVE",
"73 -90 OFFCURVE",
"98 -100 CURVE",
"96 -89 OFFCURVE",
"95 -78 OFFCURVE",
"95 -67 CURVE SMOOTH",
"95 -11 OFFCURVE",
"107 41 OFFCURVE",
"150 85 CURVE SMOOTH",
"295 235 OFFCURVE",
"569 480 OFFCURVE",
"769 680 CURVE SMOOTH",
"774 685 OFFCURVE",
"777 690 OFFCURVE",
"777 696 CURVE SMOOTH",
"777 708 OFFCURVE",
"735 759 OFFCURVE",
"726 759 CURVE SMOOTH",
"717 759 OFFCURVE",
"714 758 OFFCURVE",
"712 755 CURVE",
"719 748 OFFCURVE",
"722 737 OFFCURVE",
"722 729 CURVE SMOOTH",
"722 722 OFFCURVE",
"720 716 OFFCURVE",
"715 710 CURVE SMOOTH",
"610 584 OFFCURVE"
);
}
);
width = 802;
},
{
layerId = "D07BE892-06F6-46A5-91A1-F9C5A6E66C70";
paths = (
{
closed = 1;
nodes = (
"750 -13 OFFCURVE",
"804 48 OFFCURVE",
"799 86 CURVE SMOOTH",
"798 94 OFFCURVE",
"793 112 OFFCURVE",
"787 116 CURVE",
"760 77 OFFCURVE",
"726 63 OFFCURVE",
"687 63 CURVE SMOOTH",
"646 63 OFFCURVE",
"609 81 OFFCURVE",
"558 174 CURVE SMOOTH",
"480 316 OFFCURVE",
"413 443 OFFCURVE",
"328 593 CURVE SMOOTH",
"285 669 OFFCURVE",
"226 704 OFFCURVE",
"150 704 CURVE SMOOTH",
"76 704 OFFCURVE",
"-4 661 OFFCURVE",
"3 624 CURVE SMOOTH",
"5 613 OFFCURVE",
"12 605 OFFCURVE",
"18 600 CURVE",
"42 611 OFFCURVE",
"79 637 OFFCURVE",
"122 637 CURVE SMOOTH",
"182 637 OFFCURVE",
"229 609 OFFCURVE",
"267 543 CURVE SMOOTH",
"356 388 OFFCURVE",
"427 256 OFFCURVE",
"495 122 CURVE SMOOTH",
"550 13 OFFCURVE",
"602 -13 OFFCURVE",
"670 -13 CURVE SMOOTH"
);
},
{
closed = 1;
nodes = (
"192 -79 OFFCURVE",
"189 -68 OFFCURVE",
"187 -57 CURVE SMOOTH",
"177 -1 OFFCURVE",
"196 68 OFFCURVE",
"267 160 CURVE SMOOTH",
"406 341 OFFCURVE",
"453 397 OFFCURVE",
"702 669 CURVE SMOOTH",
"705 672 OFFCURVE",
"707 676 OFFCURVE",
"706 681 CURVE SMOOTH",
"703 694 OFFCURVE",
"601 754 OFFCURVE",
"592 754 CURVE SMOOTH",
"583 754 OFFCURVE",
"580 753 OFFCURVE",
"579 750 CURVE",
"585 744 OFFCURVE",
"591 736 OFFCURVE",
"592 728 CURVE SMOOTH",
"593 722 OFFCURVE",
"592 718 OFFCURVE",
"588 713 CURVE SMOOTH",
"428 475 OFFCURVE",
"357 400 OFFCURVE",
"199 211 CURVE SMOOTH",
"92 83 OFFCURVE",
"75 17 OFFCURVE",
"83 -30 CURVE SMOOTH",
"88 -60 OFFCURVE",
"169 -80 OFFCURVE",
"196 -90 CURVE"
);
}
);
width = 802;
}
);
note = X;
unicode = 0058;
},
{
glyphname = Y;
lastChange = "2018-02-28 10:33:22 +0000";
layers = (
{
anchors = (
{
name = bottom;
position = "{321, 0}";
},
{
name = top;
position = "{347, 650}";
},
{
name = topleft;
position = "{48, 700}";
}
);
layerId = "0B1DFD06-3317-40CA-B510-4969A0718C16";
paths = (
{
closed = 1;
nodes = (
"298 0 OFFCURVE",
"308 0 OFFCURVE",
"337 0 CURVE SMOOTH",
"347 0 OFFCURVE",
"353 3 OFFCURVE",
"353 18 CURVE SMOOTH",
"353 35 OFFCURVE",
"347 98 OFFCURVE",
"347 147 CURVE SMOOTH",
"347 411 OFFCURVE",
"538 698 OFFCURVE",
"754 698 CURVE SMOOTH",
"769 698 OFFCURVE",
"783 697 OFFCURVE",
"799 691 CURVE",
"803 697 OFFCURVE",
"805 706 OFFCURVE",
"802 716 CURVE SMOOTH",
"795 738 OFFCURVE",
"773 754 OFFCURVE",
"732 754 CURVE SMOOTH",
"545 754 OFFCURVE",
"357 468 OFFCURVE",
"323 290 CURVE",
"343 290 LINE",
"307 510 OFFCURVE",
"214 709 OFFCURVE",
"50 709 CURVE SMOOTH",
"-50 709 OFFCURVE",
"-95 638 OFFCURVE",
"-86 587 CURVE SMOOTH",
"-83 569 OFFCURVE",
"-73 563 OFFCURVE",
"-66 558 CURVE",
"-42 610 OFFCURVE",
"-11 647 OFFCURVE",
"51 647 CURVE SMOOTH",
"221 647 OFFCURVE",
"297 404 OFFCURVE",
"297 178 CURVE SMOOTH",
"297 101 OFFCURVE",
"282 36 OFFCURVE",
"266 -2 CURVE",
"266 -6 OFFCURVE",
"269 -9 OFFCURVE",
"273 -13 CURVE"
);
}
);
width = 585;
},
{
anchors = (
{
name = top;
position = "{435, 700}";
},
{
name = topleft;
position = "{106, 700}";
}
);
layerId = "4C458150-A1D2-4ED7-A293-C8767657F79E";
paths = (
{
closed = 1;
nodes = (
"244 1 OFFCURVE",
"252 0 OFFCURVE",
"302 0 CURVE SMOOTH",
"318 0 OFFCURVE",
"324 13 OFFCURVE",
"324 28 CURVE SMOOTH",
"324 84 OFFCURVE",
"333 141 OFFCURVE",
"349 199 CURVE SMOOTH",
"421 452 OFFCURVE",
"634 698 OFFCURVE",
"842 698 CURVE SMOOTH",
"857 698 OFFCURVE",
"871 697 OFFCURVE",
"886 691 CURVE",
"891 697 OFFCURVE",
"894 706 OFFCURVE",
"893 716 CURVE SMOOTH",
"891 738 OFFCURVE",
"871 754 OFFCURVE",
"830 754 CURVE SMOOTH",
"643 754 OFFCURVE",
"413 488 OFFCURVE",
"347 310 CURVE",
"367 310 LINE",
"367 510 OFFCURVE",
"304 709 OFFCURVE",
"140 709 CURVE SMOOTH",
"40 709 OFFCURVE",
"-18 638 OFFCURVE",
"-18 587 CURVE SMOOTH",
"-18 569 OFFCURVE",
"-9 563 OFFCURVE",
"-3 558 CURVE",
"30 610 OFFCURVE",
"68 647 OFFCURVE",
"130 647 CURVE SMOOTH",
"251 647 OFFCURVE",
"309 510 OFFCURVE",
"309 363 CURVE SMOOTH",
"309 215 OFFCURVE",
"261 64 OFFCURVE",
"208 -3 CURVE",
"208 -7 OFFCURVE",
"210 -10 OFFCURVE",
"213 -14 CURVE"
);
}
);
width = 585;
},
{
anchors = (
{
name = bottom;
position = "{321, 0}";
},
{
name = top;
position = "{347, 650}";
},
{
name = topleft;
position = "{48, 700}";
}
);
layerId = "D07BE892-06F6-46A5-91A1-F9C5A6E66C70";
paths = (
{
closed = 1;
nodes = (
"278 0 OFFCURVE",
"328 0 OFFCURVE",
"357 0 CURVE SMOOTH",
"367 0 OFFCURVE",
"373 3 OFFCURVE",
"373 18 CURVE SMOOTH",
"373 35 OFFCURVE",
"367 98 OFFCURVE",
"367 147 CURVE SMOOTH",
"367 411 OFFCURVE",
"518 665 OFFCURVE",
"739 665 CURVE SMOOTH",
"754 665 OFFCURVE",
"780 664 OFFCURVE",
"796 658 CURVE",
"800 664 OFFCURVE",
"802 676 OFFCURVE",
"802 691 CURVE SMOOTH",
"802 723 OFFCURVE",
"773 754 OFFCURVE",
"732 754 CURVE SMOOTH",
"525 754 OFFCURVE",
"352 508 OFFCURVE",
"318 270 CURVE",
"338 270 LINE",
"322 530 OFFCURVE",
"234 709 OFFCURVE",
"60 709 CURVE SMOOTH",
"-40 709 OFFCURVE",
"-95 608 OFFCURVE",
"-86 557 CURVE SMOOTH",
"-83 539 OFFCURVE",
"-73 523 OFFCURVE",
"-56 518 CURVE",
"-32 570 OFFCURVE",
"-1 617 OFFCURVE",
"61 617 CURVE SMOOTH",
"231 617 OFFCURVE",
"277 404 OFFCURVE",
"277 178 CURVE SMOOTH",
"277 101 OFFCURVE",
"262 36 OFFCURVE",
"246 -2 CURVE",
"246 -6 OFFCURVE",
"249 -9 OFFCURVE",
"253 -13 CURVE"
);
}
);
width = 585;
}
);
note = Y;
unicode = 0059;
},
{
glyphname = Z;
lastChange = "2018-02-28 10:35:10 +0000";
layers = (
{
anchors = (
{
name = bottom;
position = "{356, 0}";
},
{
name = top;
position = "{356, 680}";
}
);
layerId = "0B1DFD06-3317-40CA-B510-4969A0718C16";
paths = (
{
closed = 1;
nodes = (
"1082 -175 OFFCURVE",
"1062 -58 OFFCURVE",
"1019 -37 CURVE",
"1013 -84 OFFCURVE",
"961 -101 OFFCURVE",
"870 -101 CURVE SMOOTH",
"668 -101 OFFCURVE",
"360 14 OFFCURVE",
"135 50 CURVE",
"143 35 LINE",
"175 58 OFFCURVE",
"193 83 OFFCURVE",
"211 105 CURVE SMOOTH",
"352 278 OFFCURVE",
"520 485 OFFCURVE",
"634 634 CURVE SMOOTH",
"647 651 OFFCURVE",
"659 657 OFFCURVE",
"672 659 CURVE",
"669 672 OFFCURVE",
"664 697 OFFCURVE",
"643 697 CURVE SMOOTH",
"536 697 OFFCURVE",
"241 703 OFFCURVE",
"108 692 CURVE SMOOTH",
"96 691 OFFCURVE",
"89 684 OFFCURVE",
"89 669 CURVE SMOOTH",
"89 648 OFFCURVE",
"94 602 OFFCURVE",
"93 580 CURVE",
"98 576 OFFCURVE",
"105 571 OFFCURVE",
"113 571 CURVE",
"116 583 OFFCURVE",
"117 603 OFFCURVE",
"125 620 CURVE SMOOTH",
"148 669 OFFCURVE",
"369 660 OFFCURVE",
"600 653 CURVE",
"587 663 LINE",
"474 515 OFFCURVE",
"189 141 OFFCURVE",
"121 77 CURVE SMOOTH",
"106 63 OFFCURVE",
"76 50 OFFCURVE",
"47 50 CURVE SMOOTH",
"40 50 OFFCURVE",
"40 42 OFFCURVE",
"42 33 CURVE SMOOTH",
"45 19 OFFCURVE",
"56 2 OFFCURVE",
"61 2 CURVE SMOOTH",
"403 2 OFFCURVE",
"715 -170 OFFCURVE",
"933 -173 CURVE SMOOTH"
);
}
);
width = 732;
},
{
anchors = (
{
name = bottom;
position = "{310, 0}";
},
{
name = top;
position = "{433, 700}";
}
);
layerId = "4C458150-A1D2-4ED7-A293-C8767657F79E";
paths = (
{
closed = 1;
nodes = (
"1005 -175 OFFCURVE",
"1005 -58 OFFCURVE",
"966 -37 CURVE",
"952 -84 OFFCURVE",
"897 -101 OFFCURVE",
"806 -101 CURVE SMOOTH",
"604 -101 OFFCURVE",
"336 14 OFFCURVE",
"117 50 CURVE",
"123 35 LINE",
"159 58 OFFCURVE",
"183 82 OFFCURVE",
"203 105 CURVE SMOOTH",
"380 308 OFFCURVE",
"559 485 OFFCURVE",
"699 634 CURVE SMOOTH",
"715 651 OFFCURVE",
"729 657 OFFCURVE",
"742 659 CURVE",
"741 672 OFFCURVE",
"741 697 OFFCURVE",
"720 697 CURVE SMOOTH",
"613 697 OFFCURVE",
"289 703 OFFCURVE",
"154 692 CURVE SMOOTH",
"142 691 OFFCURVE",
"133 684 OFFCURVE",
"131 669 CURVE SMOOTH",
"128 648 OFFCURVE",
"124 602 OFFCURVE",
"119 580 CURVE",
"123 576 OFFCURVE",
"129 571 OFFCURVE",
"137 571 CURVE",
"142 583 OFFCURVE",
"147 603 OFFCURVE",
"158 620 CURVE SMOOTH",
"190 669 OFFCURVE",
"439 660 OFFCURVE",
"669 653 CURVE",
"658 663 LINE",
"520 525 OFFCURVE",
"187 142 OFFCURVE",
"108 77 CURVE SMOOTH",
"91 63 OFFCURVE",
"68 50 OFFCURVE",
"39 50 CURVE SMOOTH",
"32 50 OFFCURVE",
"31 42 OFFCURVE",
"31 33 CURVE SMOOTH",
"32 19 OFFCURVE",
"40 2 OFFCURVE",
"45 2 CURVE SMOOTH",
"387 2 OFFCURVE",
"639 -170 OFFCURVE",
"856 -173 CURVE SMOOTH"
);
}
);
width = 732;
},
{
anchors = (
{
name = bottom;
position = "{356, 0}";
},
{
name = top;
position = "{356, 680}";
}
);
layerId = "D07BE892-06F6-46A5-91A1-F9C5A6E66C70";
paths = (
{
closed = 1;
nodes = (
"1082 -215 OFFCURVE",
"1062 -58 OFFCURVE",
"1019 -37 CURVE",
"1013 -84 OFFCURVE",
"961 -101 OFFCURVE",
"870 -101 CURVE SMOOTH",
"668 -101 OFFCURVE",
"360 29 OFFCURVE",
"135 65 CURVE",
"138 47 LINE",
"185 59 OFFCURVE",
"212 74 OFFCURVE",
"246 120 CURVE SMOOTH",
"412 341 OFFCURVE",
"520 465 OFFCURVE",
"634 614 CURVE SMOOTH",
"647 631 OFFCURVE",
"659 637 OFFCURVE",
"672 639 CURVE",
"669 652 OFFCURVE",
"664 697 OFFCURVE",
"643 697 CURVE SMOOTH",
"536 697 OFFCURVE",
"241 703 OFFCURVE",
"108 692 CURVE SMOOTH",
"96 691 OFFCURVE",
"89 684 OFFCURVE",
"89 669 CURVE SMOOTH",
"89 648 OFFCURVE",
"104 571 OFFCURVE",
"103 549 CURVE",
"108 545 OFFCURVE",
"125 537 OFFCURVE",
"133 537 CURVE",
"136 549 OFFCURVE",
"137 569 OFFCURVE",
"145 586 CURVE SMOOTH",
"168 635 OFFCURVE",
"351 650 OFFCURVE",
"582 643 CURVE",
"557 663 LINE",
"444 515 OFFCURVE",
"189 161 OFFCURVE",
"121 97 CURVE SMOOTH",
"106 83 OFFCURVE",
"76 70 OFFCURVE",
"47 70 CURVE SMOOTH",
"40 70 OFFCURVE",
"40 52 OFFCURVE",
"42 43 CURVE SMOOTH",
"45 29 OFFCURVE",
"56 2 OFFCURVE",
"61 2 CURVE SMOOTH",
"403 2 OFFCURVE",
"715 -210 OFFCURVE",
"933 -213 CURVE SMOOTH"
);
}
);
width = 732;
}
);
note = Z;
unicode = 005A;
},
{
color = 4;
glyphname = a;
lastChange = "2018-03-02 07:52:42 +0000";
layers = (
{
anchors = (
{
name = bottom;
position = "{275, 0}";
},
{
name = ogonek;
position = "{493, 10}";
},
{
name = top;
position = "{273, 420}";
}
);
layerId = "0B1DFD06-3317-40CA-B510-4969A0718C16";
paths = (
{
closed = 1;
nodes = (
"552 -12 OFFCURVE",
"650 97 OFFCURVE",
"650 194 CURVE SMOOTH",
"650 215 OFFCURVE",
"646 241 OFFCURVE",
"631 241 CURVE",
"619 107 OFFCURVE",
"510 31 OFFCURVE",
"455 31 CURVE SMOOTH",
"387 31 OFFCURVE",
"374 109 OFFCURVE",
"374 195 CURVE SMOOTH",
"374 241 OFFCURVE",
"378 299 OFFCURVE",
"387 377 CURVE SMOOTH",
"389 395 OFFCURVE",
"394 414 OFFCURVE",
"407 427 CURVE",
"404 429 LINE",
"358 424 LINE SMOOTH",
"344 422 OFFCURVE",
"343 416 OFFCURVE",
"336 382 CURVE SMOOTH",
"330 354 OFFCURVE",
"325 179 OFFCURVE",
"322 137 CURVE SMOOTH",
"318 75 OFFCURVE",
"261 37 OFFCURVE",
"225 37 CURVE SMOOTH",
"203 37 OFFCURVE",
"156 69 OFFCURVE",
"147 103 CURVE",
"149 162 OFFCURVE",
"149 213 OFFCURVE",
"151 284 CURVE SMOOTH",
"152 318 OFFCURVE",
"183 380 OFFCURVE",
"258 380 CURVE SMOOTH",
"291 380 OFFCURVE",
"334 355 OFFCURVE",
"354 328 CURVE",
"361 364 LINE",
"343 385 OFFCURVE",
"294 418 OFFCURVE",
"248 418 CURVE SMOOTH",
"161 418 OFFCURVE",
"103 342 OFFCURVE",
"103 303 CURVE SMOOTH",
"103 220 OFFCURVE",
"99 165 OFFCURVE",
"95 95 CURVE",
"106 47 OFFCURVE",
"166 -8 OFFCURVE",
"225 -8 CURVE SMOOTH",
"278 -8 OFFCURVE",
"366 61 OFFCURVE",
"357 158 CURVE",
"334 157 LINE",
"334 147 OFFCURVE",
"333 138 OFFCURVE",
"333 130 CURVE SMOOTH",
"333 57 OFFCURVE",
"380 -12 OFFCURVE",
"446 -12 CURVE SMOOTH"
);
}
);
width = 520;
},
{
anchors = (
{
name = bottom;
position = "{238, 0}";
},
{
name = ogonek;
position = "{458, 10}";
},
{
name = top;
position = "{310, 420}";
}
);
layerId = "4C458150-A1D2-4ED7-A293-C8767657F79E";
paths = (
{
closed = 1;
nodes = (
"505 -12 OFFCURVE",
"648 108 OFFCURVE",
"648 209 CURVE SMOOTH",
"648 219 OFFCURVE",
"644 231 OFFCURVE",
"635 231 CURVE",
"591 107 OFFCURVE",
"474 28 OFFCURVE",
"414 28 CURVE SMOOTH",
"376 28 OFFCURVE",
"365 54 OFFCURVE",
"365 114 CURVE SMOOTH",
"365 171 OFFCURVE",
"384 245 OFFCURVE",
"419 377 CURVE SMOOTH",
"424 395 OFFCURVE",
"432 414 OFFCURVE",
"448 427 CURVE",
"445 429 LINE",
"396 424 LINE SMOOTH",
"382 423 OFFCURVE",
"380 416 OFFCURVE",
"367 382 CURVE SMOOTH",
"356 354 OFFCURVE",
"320 179 OFFCURVE",
"309 137 CURVE SMOOTH",
"292 75 OFFCURVE",
"225 39 OFFCURVE",
"189 39 CURVE SMOOTH",
"167 39 OFFCURVE",
"136 70 OFFCURVE",
"133 104 CURVE",
"145 163 OFFCURVE",
"158 211 OFFCURVE",
"173 282 CURVE SMOOTH",
"179 311 OFFCURVE",
"218 380 OFFCURVE",
"295 380 CURVE SMOOTH",
"328 380 OFFCURVE",
"362 355 OFFCURVE",
"377 328 CURVE",
"390 364 LINE",
"376 385 OFFCURVE",
"338 418 OFFCURVE",
"292 418 CURVE SMOOTH",
"205 418 OFFCURVE",
"134 342 OFFCURVE",
"127 303 CURVE SMOOTH",
"112 220 OFFCURVE",
"94 171 OFFCURVE",
"78 101 CURVE",
"81 53 OFFCURVE",
"132 -8 OFFCURVE",
"191 -8 CURVE SMOOTH",
"244 -8 OFFCURVE",
"342 61 OFFCURVE",
"350 158 CURVE",
"327 157 LINE",
"322 132 OFFCURVE",
"318 116 OFFCURVE",
"318 92 CURVE SMOOTH",
"318 38 OFFCURVE",
"345 -12 OFFCURVE",
"399 -12 CURVE SMOOTH"
);
}
);
width = 520;
},
{
anchors = (
{
name = bottom;
position = "{275, 0}";
},
{
name = ogonek;
position = "{493, 10}";
},
{
name = top;
position = "{273, 420}";
}
);
layerId = "D07BE892-06F6-46A5-91A1-F9C5A6E66C70";
paths = (
{
closed = 1;
nodes = (
"550 -12 OFFCURVE",
"650 97 OFFCURVE",
"650 194 CURVE SMOOTH",
"650 225 OFFCURVE",
"640 241 OFFCURVE",
"625 241 CURVE",
"613 117 OFFCURVE",
"528 36 OFFCURVE",
"463 36 CURVE SMOOTH",
"415 36 OFFCURVE",
"394 104 OFFCURVE",
"394 150 CURVE SMOOTH",
"394 196 OFFCURVE",
"398 299 OFFCURVE",
"407 377 CURVE SMOOTH",
"409 395 OFFCURVE",
"414 414 OFFCURVE",
"427 427 CURVE",
"424 429 LINE",
"338 424 LINE SMOOTH",
"324 423 OFFCURVE",
"323 416 OFFCURVE",
"316 382 CURVE SMOOTH",
"310 354 OFFCURVE",
"310 199 OFFCURVE",
"307 157 CURVE SMOOTH",
"303 95 OFFCURVE",
"256 52 OFFCURVE",
"230 52 CURVE SMOOTH",
"208 52 OFFCURVE",
"176 84 OFFCURVE",
"167 118 CURVE",
"169 177 OFFCURVE",
"169 198 OFFCURVE",
"171 269 CURVE SMOOTH",
"172 303 OFFCURVE",
"183 365 OFFCURVE",
"258 365 CURVE SMOOTH",
"291 365 OFFCURVE",
"334 350 OFFCURVE",
"354 323 CURVE",
"361 364 LINE",
"343 385 OFFCURVE",
"294 418 OFFCURVE",
"248 418 CURVE SMOOTH",
"161 418 OFFCURVE",
"81 332 OFFCURVE",
"81 293 CURVE SMOOTH",
"81 210 OFFCURVE",
"79 165 OFFCURVE",
"75 95 CURVE",
"86 47 OFFCURVE",
"156 -8 OFFCURVE",
"205 -8 CURVE SMOOTH",
"268 -8 OFFCURVE",
"360 61 OFFCURVE",
"351 158 CURVE",
"314 157 LINE",
"314 147 OFFCURVE",
"313 138 OFFCURVE",
"313 130 CURVE SMOOTH",
"313 57 OFFCURVE",
"378 -12 OFFCURVE",
"444 -12 CURVE SMOOTH"
);
}
);
width = 520;
}
);
note = a;
unicode = 0061;
},
{
color = 4;
glyphname = b;
lastChange = "2018-03-03 05:18:16 +0000";
layers = (
{
layerId = "0B1DFD06-3317-40CA-B510-4969A0718C16";
paths = (
{
closed = 1;
nodes = (
"287 -12 OFFCURVE",
"349 44 OFFCURVE",
"349 160 CURVE SMOOTH",
"349 237 OFFCURVE",
"329 281 OFFCURVE",
"289 347 CURVE",
"280 336 LINE",
"311 286 OFFCURVE",
"386 252 OFFCURVE",
"452 252 CURVE SMOOTH",
"537 252 OFFCURVE",
"605 291 OFFCURVE",
"605 330 CURVE SMOOTH",
"605 340 OFFCURVE",
"602 344 OFFCURVE",
"598 348 CURVE",
"565 310 OFFCURVE",
"529 292 OFFCURVE",
"460 292 CURVE SMOOTH",
"353 292 OFFCURVE",
"301 363 OFFCURVE",
"266 409 CURVE",
"255 406 OFFCURVE",
"231 380 OFFCURVE",
"234 366 CURVE",
"270 322 OFFCURVE",
"303 238 OFFCURVE",
"303 172 CURVE SMOOTH",
"303 80 OFFCURVE",
"255 36 OFFCURVE",
"216 36 CURVE SMOOTH",
"184 36 OFFCURVE",
"140 69 OFFCURVE",
"134 104 CURVE",
"134 229 OFFCURVE",
"138 299 OFFCURVE",
"151 537 CURVE SMOOTH",
"170 867 OFFCURVE",
"297 1004 OFFCURVE",
"434 1004 CURVE SMOOTH",
"481 1004 OFFCURVE",
"513 1000 OFFCURVE",
"562 981 CURVE",
"561 990 LINE",
"541 1036 OFFCURVE",
"470 1068 OFFCURVE",
"417 1068 CURVE SMOOTH",
"226 1068 OFFCURVE",
"125 907 OFFCURVE",
"102 546 CURVE SMOOTH",
"87 313 OFFCURVE",
"86 218 OFFCURVE",
"85 93 CURVE",
"94 41 OFFCURVE",
"153 -12 OFFCURVE",
"214 -12 CURVE SMOOTH"
);
}
);
width = 475;
},
{
layerId = "4C458150-A1D2-4ED7-A293-C8767657F79E";
paths = (
{
closed = 1;
nodes = (
"282 -12 OFFCURVE",
"361 72 OFFCURVE",
"361 243 CURVE SMOOTH",
"361 275 OFFCURVE",
"344 319 OFFCURVE",
"332 347 CURVE",
"321 336 LINE",
"343 286 OFFCURVE",
"407 252 OFFCURVE",
"473 252 CURVE SMOOTH",
"562 252 OFFCURVE",
"641 295 OFFCURVE",
"641 336 CURVE SMOOTH",
"641 342 OFFCURVE",
"639 345 OFFCURVE",
"636 348 CURVE",
"597 310 OFFCURVE",
"557 292 OFFCURVE",
"488 292 CURVE SMOOTH",
"381 292 OFFCURVE",
"347 363 OFFCURVE",
"320 409 CURVE",
"308 406 OFFCURVE",
"280 380 OFFCURVE",
"280 366 CURVE",
"298 339 OFFCURVE",
"316 279 OFFCURVE",
"316 229 CURVE SMOOTH",
"316 116 OFFCURVE",
"250 36 OFFCURVE",
"204 36 CURVE SMOOTH",
"172 36 OFFCURVE",
"138 69 OFFCURVE",
"138 104 CURVE",
"158 225 OFFCURVE",
"174 307 OFFCURVE",
"227 534 CURVE SMOOTH",
"304 864 OFFCURVE",
"456 1004 OFFCURVE",
"593 1004 CURVE SMOOTH",
"640 1004 OFFCURVE",
"671 1000 OFFCURVE",
"717 981 CURVE",
"717 990 LINE",
"706 1036 OFFCURVE",
"640 1068 OFFCURVE",
"587 1068 CURVE SMOOTH",
"396 1068 OFFCURVE",
"268 907 OFFCURVE",
"180 546 CURVE SMOOTH",
"123 313 OFFCURVE",
"108 228 OFFCURVE",
"85 103 CURVE",
"85 51 OFFCURVE",
"133 -12 OFFCURVE",
"194 -12 CURVE SMOOTH"
);
}
);
width = 489;
},
{
layerId = "D07BE892-06F6-46A5-91A1-F9C5A6E66C70";
paths = (
{
closed = 1;
nodes = (
"297 -12 OFFCURVE",
"384 44 OFFCURVE",
"384 160 CURVE SMOOTH",
"384 237 OFFCURVE",
"359 281 OFFCURVE",
"319 347 CURVE",
"290 326 LINE",
"321 276 OFFCURVE",
"406 252 OFFCURVE",
"472 252 CURVE SMOOTH",
"557 252 OFFCURVE",
"625 291 OFFCURVE",
"625 330 CURVE SMOOTH",
"625 340 OFFCURVE",
"622 344 OFFCURVE",
"618 348 CURVE",
"585 310 OFFCURVE",
"549 302 OFFCURVE",
"480 302 CURVE SMOOTH",
"373 302 OFFCURVE",
"311 373 OFFCURVE",
"276 419 CURVE",
"265 416 OFFCURVE",
"231 370 OFFCURVE",
"234 356 CURVE",
"270 312 OFFCURVE",
"298 238 OFFCURVE",
"298 172 CURVE SMOOTH",
"298 80 OFFCURVE",
"270 46 OFFCURVE",
"226 46 CURVE SMOOTH",
"194 46 OFFCURVE",
"174 79 OFFCURVE",
"168 114 CURVE",
"168 244 OFFCURVE",
"169 347 OFFCURVE",
"178 585 CURVE SMOOTH",
"190 915 OFFCURVE",
"287 984 OFFCURVE",
"444 984 CURVE SMOOTH",
"491 984 OFFCURVE",
"523 980 OFFCURVE",
"572 961 CURVE",
"571 970 LINE",
"551 1016 OFFCURVE",
"500 1068 OFFCURVE",
"427 1068 CURVE SMOOTH",
"236 1068 OFFCURVE",
"105 907 OFFCURVE",
"88 546 CURVE SMOOTH",
"77 313 OFFCURVE",
"76 218 OFFCURVE",
"75 93 CURVE",
"84 41 OFFCURVE",
"163 -12 OFFCURVE",
"224 -12 CURVE SMOOTH"
);
}
);
width = 495;
}
);
note = b;
unicode = 0062;
},
{
color = 4;
glyphname = c;
lastChange = "2018-02-28 10:57:15 +0000";
layers = (
{
anchors = (
{
name = bottom;
position = "{204, 0}";
},
{
name = top;
position = "{215, 420}";
}
);
layerId = "0B1DFD06-3317-40CA-B510-4969A0718C16";
paths = (
{
closed = 1;
nodes = (
"512 112 OFFCURVE",
"512 201 CURVE SMOOTH",
"512 223 OFFCURVE",
"499 232 OFFCURVE",
"487 232 CURVE",
"450 68 OFFCURVE",
"336 40 OFFCURVE",
"255 40 CURVE SMOOTH",
"208 40 OFFCURVE",
"149 84 OFFCURVE",
"141 121 CURVE",
"143 192 OFFCURVE",
"145 256 OFFCURVE",
"145 312 CURVE SMOOTH",
"145 340 OFFCURVE",
"198 382 OFFCURVE",
"227 382 CURVE SMOOTH",
"261 382 OFFCURVE",
"305 352 OFFCURVE",
"316 307 CURVE",
"321 306 LINE",
"337 320 OFFCURVE",
"344 340 OFFCURVE",
"338 360 CURVE SMOOTH",
"326 399 OFFCURVE",
"261 425 OFFCURVE",
"218 425 CURVE SMOOTH",
"180 425 OFFCURVE",
"100 370 OFFCURVE",
"100 327 CURVE SMOOTH",
"100 259 OFFCURVE",
"97 198 OFFCURVE",
"89 112 CURVE",
"99 70 OFFCURVE",
"181 -5 OFFCURVE",
"245 -5 CURVE SMOOTH",
"404 -5 OFFCURVE"
);
}
);
width = 382;
},
{
anchors = (
{
name = bottom;
position = "{168, 0}";
},
{
name = top;
position = "{253, 420}";
}
);
layerId = "4C458150-A1D2-4ED7-A293-C8767657F79E";
paths = (
{
closed = 1;
nodes = (
"518 132 OFFCURVE",
"511 221 CURVE SMOOTH",
"510 233 OFFCURVE",
"507 242 OFFCURVE",
"495 242 CURVE",
"429 78 OFFCURVE",
"293 40 OFFCURVE",
"221 40 CURVE SMOOTH",
"174 40 OFFCURVE",
"128 84 OFFCURVE",
"126 121 CURVE",
"141 192 OFFCURVE",
"157 265 OFFCURVE",
"167 321 CURVE SMOOTH",
"172 349 OFFCURVE",
"220 372 OFFCURVE",
"249 372 CURVE SMOOTH",
"283 372 OFFCURVE",
"317 337 OFFCURVE",
"320 292 CURVE",
"325 291 LINE",
"344 305 OFFCURVE",
"354 325 OFFCURVE",
"352 345 CURVE SMOOTH",
"348 384 OFFCURVE",
"291 415 OFFCURVE",
"248 415 CURVE SMOOTH",
"210 415 OFFCURVE",
"133 381 OFFCURVE",
"125 338 CURVE SMOOTH",
"112 270 OFFCURVE",
"96 200 OFFCURVE",
"73 114 CURVE",
"76 72 OFFCURVE",
"140 -5 OFFCURVE",
"204 -5 CURVE SMOOTH",
"364 -5 OFFCURVE"
);
}
);
width = 382;
},
{
anchors = (
{
name = bottom;
position = "{204, 0}";
},
{
name = top;
position = "{215, 420}";
}
);
layerId = "D07BE892-06F6-46A5-91A1-F9C5A6E66C70";
paths = (
{
closed = 1;
nodes = (
"522 112 OFFCURVE",
"522 201 CURVE SMOOTH",
"522 223 OFFCURVE",
"509 232 OFFCURVE",
"497 232 CURVE",
"460 68 OFFCURVE",
"346 50 OFFCURVE",
"265 50 CURVE SMOOTH",
"218 50 OFFCURVE",
"179 84 OFFCURVE",
"171 121 CURVE",
"173 192 OFFCURVE",
"175 256 OFFCURVE",
"175 312 CURVE SMOOTH",
"175 340 OFFCURVE",
"208 382 OFFCURVE",
"237 382 CURVE SMOOTH",
"271 382 OFFCURVE",
"305 332 OFFCURVE",
"316 287 CURVE",
"321 286 LINE",
"357 300 OFFCURVE",
"368 320 OFFCURVE",
"368 340 CURVE SMOOTH",
"368 401 OFFCURVE",
"291 425 OFFCURVE",
"228 425 CURVE SMOOTH",
"190 425 OFFCURVE",
"90 370 OFFCURVE",
"90 327 CURVE SMOOTH",
"90 259 OFFCURVE",
"87 198 OFFCURVE",
"79 112 CURVE",
"89 70 OFFCURVE",
"191 -5 OFFCURVE",
"255 -5 CURVE SMOOTH",
"414 -5 OFFCURVE"
);
}
);
width = 392;
}
);
note = c;
unicode = 0063;
},
{
color = 4;
glyphname = d;
lastChange = "2018-03-03 05:11:19 +0000";
layers = (
{
anchors = (
{
name = bottom;
position = "{260, 0}";
},
{
name = center;
position = "{259, 235}";
},
{
name = top;
position = "{252, 420}";
},
{
name = topright;
position = "{451, 420}";
}
);
layerId = "0B1DFD06-3317-40CA-B510-4969A0718C16";
paths = (
{
closed = 1;
nodes = (
"327 87 LINE",
"338 34 OFFCURVE",
"370 -5 OFFCURVE",
"425 -5 CURVE SMOOTH",
"520 -5 OFFCURVE",
"607 114 OFFCURVE",
"607 193 CURVE SMOOTH",
"607 205 OFFCURVE",
"598 214 OFFCURVE",
"590 214 CURVE",
"555 100 OFFCURVE",
"489 42 OFFCURVE",
"424 42 CURVE SMOOTH",
"382 42 OFFCURVE",
"372 92 OFFCURVE",
"372 159 CURVE SMOOTH",
"372 257 OFFCURVE",
"370 307 OFFCURVE",
"389 534 CURVE SMOOTH",
"416 861 OFFCURVE",
"532 1003 OFFCURVE",
"669 1003 CURVE SMOOTH",
"716 1003 OFFCURVE",
"753 997 OFFCURVE",
"803 975 CURVE",
"801 984 LINE",
"782 1030 OFFCURVE",
"711 1058 OFFCURVE",
"658 1058 CURVE SMOOTH",
"472 1058 OFFCURVE",
"375 904 OFFCURVE",
"341 546 CURVE SMOOTH",
"319 313 OFFCURVE",
"323 284 OFFCURVE",
"323 159 CURVE SMOOTH",
"323 81 OFFCURVE",
"282 34 OFFCURVE",
"226 34 CURVE SMOOTH",
"199 34 OFFCURVE",
"152 70 OFFCURVE",
"146 104 CURVE",
"152 163 OFFCURVE",
"147 227 OFFCURVE",
"152 297 CURVE SMOOTH",
"155 344 OFFCURVE",
"173 378 OFFCURVE",
"250 378 CURVE SMOOTH",
"271 378 OFFCURVE",
"335 357 OFFCURVE",
"351 337 CURVE",
"361 377 LINE",
"345 397 OFFCURVE",
"265 421 OFFCURVE",
"242 421 CURVE SMOOTH",
"150 421 OFFCURVE",
"105 349 OFFCURVE",
"104 310 CURVE SMOOTH",
"102 227 OFFCURVE",
"103 171 OFFCURVE",
"95 101 CURVE",
"103 53 OFFCURVE",
"163 -8 OFFCURVE",
"222 -8 CURVE SMOOTH",
"288 -8 OFFCURVE",
"336 40 OFFCURVE",
"347 99 CURVE"
);
}
);
width = 475;
},
{
anchors = (
{
name = bottom;
position = "{167, 0}";
},
{
name = center;
position = "{208, 235}";
},
{
name = top;
position = "{245, 420}";
},
{
name = topright;
position = "{432, 420}";
}
);
layerId = "4C458150-A1D2-4ED7-A293-C8767657F79E";
paths = (
{
closed = 1;
nodes = (
"301 97 LINE",
"301 34 OFFCURVE",
"332 -5 OFFCURVE",
"382 -5 CURVE SMOOTH",
"482 -5 OFFCURVE",
"599 114 OFFCURVE",
"599 193 CURVE SMOOTH",
"599 205 OFFCURVE",
"593 214 OFFCURVE",
"585 214 CURVE",
"530 100 OFFCURVE",
"449 42 OFFCURVE",
"389 42 CURVE SMOOTH",
"360 42 OFFCURVE",
"351 62 OFFCURVE",
"351 101 CURVE SMOOTH",
"351 116 OFFCURVE",
"353 135 OFFCURVE",
"357 159 CURVE SMOOTH",
"373 257 OFFCURVE",
"383 307 OFFCURVE",
"442 534 CURVE SMOOTH",
"527 861 OFFCURVE",
"670 1003 OFFCURVE",
"807 1003 CURVE SMOOTH",
"854 1003 OFFCURVE",
"886 997 OFFCURVE",
"932 975 CURVE",
"932 984 LINE",
"921 1030 OFFCURVE",
"855 1058 OFFCURVE",
"802 1058 CURVE SMOOTH",
"611 1058 OFFCURVE",
"496 906 OFFCURVE",
"395 546 CURVE SMOOTH",
"343 360 OFFCURVE",
"332 287 OFFCURVE",
"308 163 CURVE SMOOTH",
"294 92 OFFCURVE",
"241 33 OFFCURVE",
"187 33 CURVE SMOOTH",
"165 33 OFFCURVE",
"123 70 OFFCURVE",
"123 104 CURVE",
"139 163 OFFCURVE",
"147 229 OFFCURVE",
"167 300 CURVE SMOOTH",
"175 329 OFFCURVE",
"210 378 OFFCURVE",
"287 378 CURVE SMOOTH",
"308 378 OFFCURVE",
"355 357 OFFCURVE",
"368 337 CURVE",
"385 377 LINE",
"372 397 OFFCURVE",
"310 421 OFFCURVE",
"287 421 CURVE SMOOTH",
"195 421 OFFCURVE",
"130 355 OFFCURVE",
"122 316 CURVE SMOOTH",
"105 233 OFFCURVE",
"91 171 OFFCURVE",
"70 101 CURVE",
"70 53 OFFCURVE",
"127 -8 OFFCURVE",
"186 -8 CURVE SMOOTH",
"236 -8 OFFCURVE",
"306 41 OFFCURVE",
"327 100 CURVE"
);
}
);
width = 475;
},
{
anchors = (
{
name = bottom;
position = "{260, 0}";
},
{
name = center;
position = "{246, 235}";
},
{
name = top;
position = "{196, 420}";
},
{
name = topright;
position = "{371, 420}";
}
);
layerId = "D07BE892-06F6-46A5-91A1-F9C5A6E66C70";
paths = (
{
closed = 1;
nodes = (
"279 -8 OFFCURVE",
"350 86 OFFCURVE",
"357 145 CURVE",
"321 146 LINE",
"332 59 OFFCURVE",
"382 -5 OFFCURVE",
"451 -5 CURVE SMOOTH",
"579 -5 OFFCURVE",
"657 120 OFFCURVE",
"657 185 CURVE SMOOTH",
"657 204 OFFCURVE",
"649 212 OFFCURVE",
"640 214 CURVE",
"603 120 OFFCURVE",
"536 52 OFFCURVE",
"475 52 CURVE SMOOTH",
"435 52 OFFCURVE",
"412 92 OFFCURVE",
"412 199 CURVE SMOOTH",
"412 297 OFFCURVE",
"410 442 OFFCURVE",
"430 671 CURVE SMOOTH",
"453 940 OFFCURVE",
"552 973 OFFCURVE",
"689 973 CURVE SMOOTH",
"736 973 OFFCURVE",
"783 967 OFFCURVE",
"833 945 CURVE",
"831 954 LINE",
"812 1020 OFFCURVE",
"751 1058 OFFCURVE",
"678 1058 CURVE SMOOTH",
"492 1058 OFFCURVE",
"352 915 OFFCURVE",
"332 556 CURVE SMOOTH",
"324 414 OFFCURVE",
"326 315 OFFCURVE",
"323 235 CURVE SMOOTH",
"319 119 OFFCURVE",
"270 52 OFFCURVE",
"219 52 CURVE SMOOTH",
"197 52 OFFCURVE",
"172 80 OFFCURVE",
"166 114 CURVE",
"170 162 OFFCURVE",
"167 227 OFFCURVE",
"172 287 CURVE SMOOTH",
"176 334 OFFCURVE",
"208 368 OFFCURVE",
"250 368 CURVE SMOOTH",
"281 368 OFFCURVE",
"335 347 OFFCURVE",
"351 327 CURVE",
"361 367 LINE",
"345 387 OFFCURVE",
"284 421 OFFCURVE",
"241 421 CURVE SMOOTH",
"149 421 OFFCURVE",
"85 339 OFFCURVE",
"84 300 CURVE SMOOTH",
"82 227 OFFCURVE",
"86 160 OFFCURVE",
"80 101 CURVE",
"88 53 OFFCURVE",
"146 -8 OFFCURVE",
"205 -8 CURVE SMOOTH"
);
}
);
width = 525;
}
);
note = d;
unicode = 0064;
},
{
color = 4;
glyphname = e;
lastChange = "2018-03-02 10:18:23 +0000";
layers = (
{
anchors = (
{
name = bottom;
position = "{221, 0}";
},
{
name = ogonek;
position = "{305, 10}";
},
{
name = top;
position = "{211, 420}";
}
);
layerId = "0B1DFD06-3317-40CA-B510-4969A0718C16";
paths = (
{
closed = 1;
nodes = (
"359 -5 OFFCURVE",
"446 75 OFFCURVE",
"491 173 CURVE SMOOTH",
"497 186 OFFCURVE",
"499 196 OFFCURVE",
"498 211 CURVE SMOOTH",
"497 222 OFFCURVE",
"486 228 OFFCURVE",
"476 229 CURVE",
"447 146 OFFCURVE",
"373 42 OFFCURVE",
"232 42 CURVE SMOOTH",
"197 42 OFFCURVE",
"137 86 OFFCURVE",
"129 123 CURVE",
"131 194 OFFCURVE",
"132 260 OFFCURVE",
"134 316 CURVE SMOOTH",
"135 344 OFFCURVE",
"184 378 OFFCURVE",
"208 378 CURVE SMOOTH",
"232 378 OFFCURVE",
"275 346 OFFCURVE",
"275 315 CURVE SMOOTH",
"275 268 OFFCURVE",
"227 225 OFFCURVE",
"116 225 CURVE",
"114 190 LINE",
"253 186 OFFCURVE",
"321 244 OFFCURVE",
"321 320 CURVE SMOOTH",
"321 372 OFFCURVE",
"255 420 OFFCURVE",
"208 420 CURVE SMOOTH",
"170 420 OFFCURVE",
"89 371 OFFCURVE",
"88 328 CURVE SMOOTH",
"86 260 OFFCURVE",
"88 193 OFFCURVE",
"80 107 CURVE",
"91 65 OFFCURVE",
"171 -5 OFFCURVE",
"232 -5 CURVE SMOOTH"
);
}
);
width = 368;
},
{
anchors = (
{
name = bottom;
position = "{194, 0}";
},
{
name = ogonek;
position = "{280, 10}";
},
{
name = top;
position = "{258, 420}";
}
);
layerId = "4C458150-A1D2-4ED7-A293-C8767657F79E";
paths = (
{
closed = 1;
nodes = (
"322 -5 OFFCURVE",
"435 84 OFFCURVE",
"496 183 CURVE SMOOTH",
"504 196 OFFCURVE",
"509 206 OFFCURVE",
"509 221 CURVE SMOOTH",
"509 232 OFFCURVE",
"500 238 OFFCURVE",
"491 239 CURVE",
"447 156 OFFCURVE",
"343 38 OFFCURVE",
"212 38 CURVE SMOOTH",
"177 38 OFFCURVE",
"125 86 OFFCURVE",
"123 123 CURVE",
"138 194 OFFCURVE",
"150 260 OFFCURVE",
"162 316 CURVE SMOOTH",
"168 344 OFFCURVE",
"223 379 OFFCURVE",
"247 379 CURVE SMOOTH",
"271 379 OFFCURVE",
"299 345 OFFCURVE",
"299 325 CURVE SMOOTH",
"299 272 OFFCURVE",
"251 225 OFFCURVE",
"128 225 CURVE",
"120 190 LINE",
"274 186 OFFCURVE",
"345 252 OFFCURVE",
"345 342 CURVE SMOOTH",
"345 375 OFFCURVE",
"298 420 OFFCURVE",
"254 420 CURVE SMOOTH",
"216 420 OFFCURVE",
"128 371 OFFCURVE",
"119 328 CURVE SMOOTH",
"105 260 OFFCURVE",
"96 200 OFFCURVE",
"73 114 CURVE",
"76 72 OFFCURVE",
"144 -5 OFFCURVE",
"205 -5 CURVE SMOOTH"
);
}
);
width = 378;
},
{
anchors = (
{
name = bottom;
position = "{241, 0}";
},
{
name = ogonek;
position = "{305, 10}";
},
{
name = top;
position = "{221, 420}";
}
);
layerId = "D07BE892-06F6-46A5-91A1-F9C5A6E66C70";
paths = (
{
closed = 1;
nodes = (
"393 -5 OFFCURVE",
"538 103 OFFCURVE",
"538 203 CURVE SMOOTH",
"538 217 OFFCURVE",
"526 226 OFFCURVE",
"516 229 CURVE",
"477 126 OFFCURVE",
"383 52 OFFCURVE",
"252 52 CURVE SMOOTH",
"207 52 OFFCURVE",
"157 91 OFFCURVE",
"149 128 CURVE",
"150 165 OFFCURVE",
"150 277 OFFCURVE",
"151 306 CURVE SMOOTH",
"152 334 OFFCURVE",
"181 378 OFFCURVE",
"215 378 CURVE SMOOTH",
"249 378 OFFCURVE",
"275 346 OFFCURVE",
"275 315 CURVE SMOOTH",
"275 268 OFFCURVE",
"237 215 OFFCURVE",
"136 215 CURVE",
"134 170 LINE",
"263 166 OFFCURVE",
"361 244 OFFCURVE",
"361 320 CURVE SMOOTH",
"361 372 OFFCURVE",
"272 420 OFFCURVE",
"215 420 CURVE SMOOTH",
"167 420 OFFCURVE",
"66 361 OFFCURVE",
"65 318 CURVE SMOOTH",
"65 231 OFFCURVE",
"65 164 OFFCURVE",
"60 107 CURVE",
"71 65 OFFCURVE",
"161 -5 OFFCURVE",
"232 -5 CURVE SMOOTH"
);
}
);
width = 408;
}
);
note = e;
unicode = 0065;
},
{
color = 4;
glyphname = f;
lastChange = "2018-02-28 11:10:44 +0000";
layers = (
{
layerId = "0B1DFD06-3317-40CA-B510-4969A0718C16";
paths = (
{
closed = 1;
nodes = (
"147 -577 OFFCURVE",
"182 -382 OFFCURVE",
"206 -30 CURVE SMOOTH",
"213 74 OFFCURVE",
"212 232 OFFCURVE",
"218 360 CURVE SMOOTH",
"239 829 OFFCURVE",
"252 936 OFFCURVE",
"348 936 CURVE SMOOTH",
"393 936 OFFCURVE",
"433 924 OFFCURVE",
"465 901 CURVE",
"476 908 OFFCURVE",
"483 921 OFFCURVE",
"479 939 CURVE SMOOTH",
"473 968 OFFCURVE",
"444 990 OFFCURVE",
"395 990 CURVE SMOOTH",
"354 990 OFFCURVE",
"318 973 OFFCURVE",
"289 951 CURVE SMOOTH",
"188 875 OFFCURVE",
"188 773 OFFCURVE",
"167 365 CURVE SMOOTH",
"161 242 OFFCURVE",
"159 14 OFFCURVE",
"152 -98 CURVE SMOOTH",
"132 -410 OFFCURVE",
"105 -527 OFFCURVE",
"-9 -527 CURVE SMOOTH",
"-96 -527 OFFCURVE",
"-163 -419 OFFCURVE",
"-198 -286 CURVE",
"-210 -310 OFFCURVE",
"-222 -328 OFFCURVE",
"-222 -366 CURVE SMOOTH",
"-222 -463 OFFCURVE",
"-117 -577 OFFCURVE",
"-26 -577 CURVE SMOOTH"
);
},
{
closed = 1;
nodes = (
"17 335 OFFCURVE",
"37 343 OFFCURVE",
"197 347 CURVE SMOOTH",
"267 349 OFFCURVE",
"368 352 OFFCURVE",
"396 352 CURVE SMOOTH",
"409 352 OFFCURVE",
"425 361 OFFCURVE",
"425 376 CURVE SMOOTH",
"425 380 OFFCURVE",
"424 385 OFFCURVE",
"422 390 CURVE",
"344 390 OFFCURVE",
"260 387 OFFCURVE",
"205 387 CURVE SMOOTH",
"157 387 OFFCURVE",
"77 384 OFFCURVE",
"33 376 CURVE SMOOTH",
"5 371 OFFCURVE",
"-9 350 OFFCURVE",
"-10 270 CURVE",
"4 266 LINE"
);
}
);
width = 360;
},
{
layerId = "4C458150-A1D2-4ED7-A293-C8767657F79E";
paths = (
{
closed = 1;
nodes = (
"-1 -577 OFFCURVE",
"78 -382 OFFCURVE",
"164 -30 CURVE SMOOTH",
"190 74 OFFCURVE",
"227 232 OFFCURVE",
"255 360 CURVE SMOOTH",
"359 829 OFFCURVE",
"402 936 OFFCURVE",
"508 936 CURVE SMOOTH",
"553 936 OFFCURVE",
"591 924 OFFCURVE",
"618 901 CURVE",
"631 908 OFFCURVE",
"640 921 OFFCURVE",
"639 939 CURVE SMOOTH",
"637 968 OFFCURVE",
"608 990 OFFCURVE",
"559 990 CURVE SMOOTH",
"518 990 OFFCURVE",
"474 974 OFFCURVE",
"441 951 CURVE SMOOTH",
"326 871 OFFCURVE",
"298 773 OFFCURVE",
"205 365 CURVE SMOOTH",
"177 242 OFFCURVE",
"125 14 OFFCURVE",
"98 -98 CURVE SMOOTH",
"23 -410 OFFCURVE",
"-33 -517 OFFCURVE",
"-157 -517 CURVE SMOOTH",
"-234 -517 OFFCURVE",
"-273 -409 OFFCURVE",
"-290 -286 CURVE",
"-306 -315 OFFCURVE",
"-334 -342 OFFCURVE",
"-331 -379 CURVE SMOOTH",
"-325 -456 OFFCURVE",
"-265 -577 OFFCURVE",
"-174 -577 CURVE SMOOTH"
);
},
{
closed = 1;
nodes = (
"40 335 OFFCURVE",
"61 343 OFFCURVE",
"222 347 CURVE SMOOTH",
"292 349 OFFCURVE",
"404 352 OFFCURVE",
"432 352 CURVE SMOOTH",
"445 352 OFFCURVE",
"466 365 OFFCURVE",
"466 381 CURVE SMOOTH",
"466 384 OFFCURVE",
"466 387 OFFCURVE",
"464 390 CURVE",
"386 390 OFFCURVE",
"292 387 OFFCURVE",
"237 387 CURVE SMOOTH",
"189 387 OFFCURVE",
"108 384 OFFCURVE",
"63 376 CURVE SMOOTH",
"34 371 OFFCURVE",
"16 350 OFFCURVE",
"1 270 CURVE",
"14 266 LINE"
);
}
);
width = 388;
},
{
layerId = "D07BE892-06F6-46A5-91A1-F9C5A6E66C70";
paths = (
{
closed = 1;
nodes = (
"127 -577 OFFCURVE",
"202 -382 OFFCURVE",
"226 -30 CURVE SMOOTH",
"233 74 OFFCURVE",
"232 232 OFFCURVE",
"238 360 CURVE SMOOTH",
"259 829 OFFCURVE",
"252 916 OFFCURVE",
"348 916 CURVE SMOOTH",
"403 916 OFFCURVE",
"443 899 OFFCURVE",
"485 876 CURVE",
"496 883 OFFCURVE",
"505 903 OFFCURVE",
"505 926 CURVE SMOOTH",
"505 966 OFFCURVE",
"454 990 OFFCURVE",
"405 990 CURVE SMOOTH",
"360 990 OFFCURVE",
"318 973 OFFCURVE",
"289 951 CURVE SMOOTH",
"188 875 OFFCURVE",
"168 773 OFFCURVE",
"147 365 CURVE SMOOTH",
"141 242 OFFCURVE",
"139 14 OFFCURVE",
"132 -98 CURVE SMOOTH",
"112 -410 OFFCURVE",
"85 -517 OFFCURVE",
"-9 -517 CURVE SMOOTH",
"-86 -517 OFFCURVE",
"-123 -429 OFFCURVE",
"-158 -296 CURVE",
"-170 -320 OFFCURVE",
"-222 -348 OFFCURVE",
"-222 -386 CURVE SMOOTH",
"-222 -483 OFFCURVE",
"-117 -577 OFFCURVE",
"-26 -577 CURVE SMOOTH"
);
},
{
closed = 1;
nodes = (
"27 325 OFFCURVE",
"37 333 OFFCURVE",
"197 337 CURVE SMOOTH",
"267 339 OFFCURVE",
"368 346 OFFCURVE",
"396 346 CURVE SMOOTH",
"409 346 OFFCURVE",
"425 361 OFFCURVE",
"425 376 CURVE SMOOTH",
"425 380 OFFCURVE",
"424 385 OFFCURVE",
"422 390 CURVE",
"344 390 OFFCURVE",
"260 387 OFFCURVE",
"205 387 CURVE SMOOTH",
"157 387 OFFCURVE",
"77 384 OFFCURVE",
"33 376 CURVE SMOOTH",
"5 371 OFFCURVE",
"-9 350 OFFCURVE",
"-10 270 CURVE",
"4 266 LINE"
);
}
);
width = 360;
}
);
note = f;
unicode = 0066;
},
{
color = 4;
glyphname = g;
lastChange = "2018-02-28 10:46:04 +0000";
layers = (
{
anchors = (
{
name = bottom;
position = "{173, 0}";
},
{
name = top;
position = "{204, 420}";
}
);
layerId = "0B1DFD06-3317-40CA-B510-4969A0718C16";
paths = (
{
closed = 1;
nodes = (
"233 -585 OFFCURVE",
"369 -394 OFFCURVE",
"369 34 CURVE SMOOTH",
"369 161 OFFCURVE",
"380 370 OFFCURVE",
"380 397 CURVE SMOOTH",
"380 413 OFFCURVE",
"376 418 OFFCURVE",
"366 424 CURVE SMOOTH",
"354 431 OFFCURVE",
"344 438 OFFCURVE",
"332 451 CURVE",
"328 450 LINE",
"329 391 OFFCURVE",
"329 366 OFFCURVE",
"329 318 CURVE SMOOTH",
"328 148 LINE SMOOTH",
"328 83 OFFCURVE",
"261 38 OFFCURVE",
"224 38 CURVE SMOOTH",
"197 38 OFFCURVE",
"143 68 OFFCURVE",
"137 102 CURVE",
"138 159 OFFCURVE",
"136 236 OFFCURVE",
"139 306 CURVE SMOOTH",
"141 350 OFFCURVE",
"197 383 OFFCURVE",
"240 383 CURVE SMOOTH",
"263 383 OFFCURVE",
"305 366 OFFCURVE",
"342 310 CURVE",
"352 352 LINE",
"321 400 OFFCURVE",
"267 428 OFFCURVE",
"236 428 CURVE SMOOTH",
"172 428 OFFCURVE",
"91 364 OFFCURVE",
"91 319 CURVE SMOOTH",
"91 236 OFFCURVE",
"89 167 OFFCURVE",
"85 99 CURVE",
"93 51 OFFCURVE",
"162 -8 OFFCURVE",
"221 -8 CURVE SMOOTH",
"254 -8 OFFCURVE",
"320 25 OFFCURVE",
"345 86 CURVE",
"326 93 LINE",
"326 71 OFFCURVE",
"326 40 OFFCURVE",
"325 20 CURVE SMOOTH",
"307 -341 OFFCURVE",
"224 -527 OFFCURVE",
"22 -527 CURVE SMOOTH",
"-81 -527 OFFCURVE",
"-160 -472 OFFCURVE",
"-213 -376 CURVE",
"-217 -386 OFFCURVE",
"-221 -397 OFFCURVE",
"-220 -407 CURVE SMOOTH",
"-210 -502 OFFCURVE",
"-111 -585 OFFCURVE",
"4 -585 CURVE SMOOTH"
);
}
);
width = 450;
},
{
anchors = (
{
name = bottom;
position = "{190, 0}";
},
{
name = top;
position = "{295, 420}";
}
);
layerId = "4C458150-A1D2-4ED7-A293-C8767657F79E";
paths = (
{
closed = 1;
nodes = (
"138 -605 OFFCURVE",
"234 -416 OFFCURVE",
"336 1 CURVE SMOOTH",
"367 128 OFFCURVE",
"395 257 OFFCURVE",
"429 390 CURVE SMOOTH",
"431 396 OFFCURVE",
"433 403 OFFCURVE",
"433 410 CURVE SMOOTH",
"433 429 OFFCURVE",
"418 429 OFFCURVE",
"392 455 CURVE",
"388 454 LINE",
"379 395 OFFCURVE",
"375 366 OFFCURVE",
"364 318 CURVE SMOOTH",
"322 137 LINE SMOOTH",
"307 72 OFFCURVE",
"216 38 OFFCURVE",
"180 38 CURVE SMOOTH",
"158 38 OFFCURVE",
"126 70 OFFCURVE",
"126 104 CURVE",
"137 161 OFFCURVE",
"149 236 OFFCURVE",
"164 306 CURVE SMOOTH",
"173 348 OFFCURVE",
"232 383 OFFCURVE",
"275 383 CURVE SMOOTH",
"294 383 OFFCURVE",
"337 351 OFFCURVE",
"364 295 CURVE",
"382 337 LINE",
"359 385 OFFCURVE",
"311 428 OFFCURVE",
"280 428 CURVE SMOOTH",
"216 428 OFFCURVE",
"130 370 OFFCURVE",
"120 327 CURVE SMOOTH",
"101 244 OFFCURVE",
"86 169 OFFCURVE",
"70 101 CURVE",
"70 53 OFFCURVE",
"119 -8 OFFCURVE",
"178 -8 CURVE SMOOTH",
"211 -8 OFFCURVE",
"294 22 OFFCURVE",
"330 83 CURVE",
"312 90 LINE",
"305 59 OFFCURVE",
"297 29 OFFCURVE",
"290 0 CURVE SMOOTH",
"205 -338 OFFCURVE",
"112 -547 OFFCURVE",
"-103 -547 CURVE SMOOTH",
"-216 -547 OFFCURVE",
"-297 -502 OFFCURVE",
"-340 -386 CURVE",
"-346 -396 OFFCURVE",
"-352 -407 OFFCURVE",
"-352 -417 CURVE SMOOTH",
"-352 -541 OFFCURVE",
"-226 -605 OFFCURVE",
"-131 -605 CURVE SMOOTH"
);
}
);
width = 454;
},
{
anchors = (
{
name = bottom;
position = "{173, 0}";
},
{
name = top;
position = "{204, 420}";
}
);
layerId = "D07BE892-06F6-46A5-91A1-F9C5A6E66C70";
paths = (
{
closed = 1;
nodes = (
"213 -585 OFFCURVE",
"389 -364 OFFCURVE",
"389 34 CURVE SMOOTH",
"389 161 OFFCURVE",
"400 370 OFFCURVE",
"400 397 CURVE SMOOTH",
"400 413 OFFCURVE",
"396 418 OFFCURVE",
"386 424 CURVE SMOOTH",
"374 431 OFFCURVE",
"324 438 OFFCURVE",
"312 451 CURVE",
"308 450 LINE",
"309 391 OFFCURVE",
"309 366 OFFCURVE",
"309 318 CURVE SMOOTH",
"308 148 LINE SMOOTH",
"308 83 OFFCURVE",
"261 48 OFFCURVE",
"224 48 CURVE SMOOTH",
"197 48 OFFCURVE",
"163 78 OFFCURVE",
"157 112 CURVE",
"158 169 OFFCURVE",
"156 216 OFFCURVE",
"159 286 CURVE SMOOTH",
"161 330 OFFCURVE",
"197 373 OFFCURVE",
"240 373 CURVE SMOOTH",
"263 373 OFFCURVE",
"305 366 OFFCURVE",
"342 310 CURVE",
"352 352 LINE",
"321 400 OFFCURVE",
"257 428 OFFCURVE",
"226 428 CURVE SMOOTH",
"162 428 OFFCURVE",
"71 354 OFFCURVE",
"71 309 CURVE SMOOTH",
"71 226 OFFCURVE",
"69 167 OFFCURVE",
"65 99 CURVE",
"73 51 OFFCURVE",
"162 -8 OFFCURVE",
"221 -8 CURVE SMOOTH",
"254 -8 OFFCURVE",
"320 25 OFFCURVE",
"345 86 CURVE",
"306 93 LINE",
"306 71 OFFCURVE",
"305 -9 OFFCURVE",
"305 -29 CURVE SMOOTH",
"305 -327 OFFCURVE",
"204 -477 OFFCURVE",
"12 -477 CURVE SMOOTH",
"-71 -477 OFFCURVE",
"-160 -442 OFFCURVE",
"-213 -356 CURVE",
"-217 -366 OFFCURVE",
"-220 -377 OFFCURVE",
"-220 -407 CURVE SMOOTH",
"-220 -503 OFFCURVE",
"-131 -585 OFFCURVE",
"-16 -585 CURVE SMOOTH"
);
}
);
width = 450;
}
);
note = g;
unicode = 0067;
},
{
color = 4;
glyphname = h;
lastChange = "2018-02-28 11:12:22 +0000";
layers = (
{
anchors = (
{
name = bottom;
position = "{237, 0}";
},
{
name = center;
position = "{286, 210}";
},
{
name = top;
position = "{330, 420}";
}
);
layerId = "0B1DFD06-3317-40CA-B510-4969A0718C16";
paths = (
{
closed = 1;
nodes = (
"506 -12 OFFCURVE",
"613 106 OFFCURVE",
"613 200 CURVE SMOOTH",
"613 221 OFFCURVE",
"602 228 OFFCURVE",
"593 231 CURVE",
"578 149 OFFCURVE",
"504 30 OFFCURVE",
"410 30 CURVE SMOOTH",
"370 30 OFFCURVE",
"360 50 OFFCURVE",
"354 83 CURVE SMOOTH",
"346 125 OFFCURVE",
"356 315 OFFCURVE",
"364 380 CURVE",
"362 390 OFFCURVE",
"329 417 OFFCURVE",
"319 417 CURVE SMOOTH",
"270 417 OFFCURVE",
"165 300 OFFCURVE",
"132 227 CURVE",
"141 215 LINE",
"144 278 OFFCURVE",
"143 341 OFFCURVE",
"148 420 CURVE SMOOTH",
"171 789 OFFCURVE",
"270 1028 OFFCURVE",
"464 1028 CURVE SMOOTH",
"549 1028 OFFCURVE",
"613 988 OFFCURVE",
"659 895 CURVE",
"664 907 LINE",
"662 916 OFFCURVE",
"661 925 OFFCURVE",
"658 933 CURVE SMOOTH",
"613 1052 OFFCURVE",
"536 1088 OFFCURVE",
"456 1088 CURVE SMOOTH",
"245 1088 OFFCURVE",
"124 856 OFFCURVE",
"103 421 CURVE SMOOTH",
"99 344 OFFCURVE",
"100 151 OFFCURVE",
"94 49 CURVE SMOOTH",
"93 32 OFFCURVE",
"93 21 OFFCURVE",
"93 11 CURVE SMOOTH",
"93 -2 OFFCURVE",
"123 -4 OFFCURVE",
"135 -4 CURVE SMOOTH",
"143 -4 OFFCURVE",
"144 7 OFFCURVE",
"144 29 CURVE SMOOTH",
"144 54 OFFCURVE",
"144 115 OFFCURVE",
"144 161 CURVE",
"169 248 OFFCURVE",
"281 359 OFFCURVE",
"301 359 CURVE SMOOTH",
"305 359 OFFCURVE",
"310 356 OFFCURVE",
"312 351 CURVE",
"308 295 OFFCURVE",
"295 145 OFFCURVE",
"308 72 CURVE SMOOTH",
"318 17 OFFCURVE",
"352 -12 OFFCURVE",
"398 -12 CURVE SMOOTH"
);
}
);
width = 484;
},
{
anchors = (
{
name = bottom;
position = "{186, 0}";
},
{
name = center;
position = "{228, 210}";
},
{
name = top;
position = "{372, 420}";
}
);
layerId = "4C458150-A1D2-4ED7-A293-C8767657F79E";
paths = (
{
closed = 1;
nodes = (
"443 -12 OFFCURVE",
"548 79 OFFCURVE",
"607 187 CURVE SMOOTH",
"613 198 OFFCURVE",
"616 211 OFFCURVE",
"615 218 CURVE SMOOTH",
"613 232 OFFCURVE",
"608 237 OFFCURVE",
"599 240 CURVE",
"573 187 OFFCURVE",
"477 30 OFFCURVE",
"368 30 CURVE SMOOTH",
"328 30 OFFCURVE",
"322 50 OFFCURVE",
"322 83 CURVE SMOOTH",
"322 125 OFFCURVE",
"371 314 OFFCURVE",
"393 379 CURVE",
"393 389 OFFCURVE",
"364 416 OFFCURVE",
"354 416 CURVE SMOOTH",
"305 416 OFFCURVE",
"186 302 OFFCURVE",
"141 229 CURVE",
"147 217 LINE",
"162 280 OFFCURVE",
"175 341 OFFCURVE",
"194 420 CURVE SMOOTH",
"283 789 OFFCURVE",
"404 1028 OFFCURVE",
"598 1028 CURVE SMOOTH",
"683 1028 OFFCURVE",
"750 988 OFFCURVE",
"780 895 CURVE",
"787 907 LINE",
"787 916 OFFCURVE",
"787 925 OFFCURVE",
"786 933 CURVE SMOOTH",
"771 1055 OFFCURVE",
"681 1088 OFFCURVE",
"601 1088 CURVE SMOOTH",
"390 1088 OFFCURVE",
"242 816 OFFCURVE",
"150 421 CURVE SMOOTH",
"132 344 OFFCURVE",
"87 154 OFFCURVE",
"63 52 CURVE SMOOTH",
"59 35 OFFCURVE",
"57 22 OFFCURVE",
"57 14 CURVE SMOOTH",
"57 1 OFFCURVE",
"87 -7 OFFCURVE",
"99 -7 CURVE SMOOTH",
"107 -7 OFFCURVE",
"109 2 OFFCURVE",
"113 24 CURVE SMOOTH",
"118 49 OFFCURVE",
"126 109 OFFCURVE",
"138 155 CURVE",
"179 242 OFFCURVE",
"297 353 OFFCURVE",
"317 353 CURVE SMOOTH",
"321 353 OFFCURVE",
"327 348 OFFCURVE",
"329 343 CURVE",
"315 287 OFFCURVE",
"272 145 OFFCURVE",
"272 72 CURVE SMOOTH",
"272 17 OFFCURVE",
"303 -12 OFFCURVE",
"349 -12 CURVE SMOOTH"
);
}
);
width = 484;
},
{
anchors = (
{
name = bottom;
position = "{237, 0}";
},
{
name = center;
position = "{286, 210}";
},
{
name = top;
position = "{330, 420}";
}
);
layerId = "D07BE892-06F6-46A5-91A1-F9C5A6E66C70";
paths = (
{
closed = 1;
nodes = (
"536 -12 OFFCURVE",
"643 106 OFFCURVE",
"643 200 CURVE SMOOTH",
"643 221 OFFCURVE",
"632 228 OFFCURVE",
"623 231 CURVE",
"608 149 OFFCURVE",
"534 40 OFFCURVE",
"440 40 CURVE SMOOTH",
"399 40 OFFCURVE",
"381 74 OFFCURVE",
"381 151 CURVE SMOOTH",
"381 225 OFFCURVE",
"388 332 OFFCURVE",
"394 380 CURVE",
"392 390 OFFCURVE",
"329 417 OFFCURVE",
"319 417 CURVE SMOOTH",
"270 417 OFFCURVE",
"175 290 OFFCURVE",
"142 217 CURVE",
"161 205 LINE",
"164 268 OFFCURVE",
"163 341 OFFCURVE",
"168 420 CURVE SMOOTH",
"191 789 OFFCURVE",
"270 988 OFFCURVE",
"464 988 CURVE SMOOTH",
"549 988 OFFCURVE",
"613 948 OFFCURVE",
"659 855 CURVE",
"664 877 LINE",
"664 997 OFFCURVE",
"594 1088 OFFCURVE",
"456 1088 CURVE SMOOTH",
"255 1088 OFFCURVE",
"106 886 OFFCURVE",
"83 421 CURVE SMOOTH",
"79 344 OFFCURVE",
"80 155 OFFCURVE",
"74 53 CURVE SMOOTH",
"73 36 OFFCURVE",
"73 25 OFFCURVE",
"73 15 CURVE SMOOTH",
"73 2 OFFCURVE",
"113 -4 OFFCURVE",
"149 -4 CURVE SMOOTH",
"162 -4 OFFCURVE",
"164 7 OFFCURVE",
"164 29 CURVE SMOOTH",
"164 54 OFFCURVE",
"164 115 OFFCURVE",
"164 161 CURVE",
"189 248 OFFCURVE",
"271 329 OFFCURVE",
"291 329 CURVE SMOOTH",
"295 329 OFFCURVE",
"300 326 OFFCURVE",
"302 321 CURVE",
"299 283 OFFCURVE",
"292 215 OFFCURVE",
"292 152 CURVE SMOOTH",
"292 52 OFFCURVE",
"330 -12 OFFCURVE",
"428 -12 CURVE SMOOTH"
);
}
);
width = 484;
}
);
note = h;
unicode = 0068;
},
{
color = 4;
glyphname = i;
lastChange = "2018-03-03 11:03:20 +0000";
layers = (
{
components = (
{
name = idotless;
},
{
name = dotaccentcomb;
transform = "{1, 0, 0, 1, 137, 0}";
}
);
layerId = "0B1DFD06-3317-40CA-B510-4969A0718C16";
width = 300;
},
{
layerId = "4C458150-A1D2-4ED7-A293-C8767657F79E";
paths = (
{
closed = 1;
nodes = (
"242 -7 OFFCURVE",
"345 75 OFFCURVE",
"413 182 CURVE SMOOTH",
"420 193 OFFCURVE",
"423 206 OFFCURVE",
"423 213 CURVE SMOOTH",
"423 227 OFFCURVE",
"422 232 OFFCURVE",
"413 235 CURVE",
"384 182 OFFCURVE",
"265 36 OFFCURVE",
"166 36 CURVE SMOOTH",
"137 36 OFFCURVE",
"117 52 OFFCURVE",
"117 84 CURVE",
"135 148 OFFCURVE",
"178 335 OFFCURVE",
"198 408 CURVE",
"191 412 OFFCURVE",
"178 416 OFFCURVE",
"169 416 CURVE SMOOTH",
"160 416 OFFCURVE",
"151 411 OFFCURVE",
"147 396 CURVE SMOOTH",
"133 342 OFFCURVE",
"90 157 OFFCURVE",
"68 86 CURVE",
"68 19 OFFCURVE",
"117 -7 OFFCURVE",
"158 -7 CURVE SMOOTH"
);
},
{
closed = 1;
nodes = (
"241 543 OFFCURVE",
"260 569 OFFCURVE",
"260 594 CURVE SMOOTH",
"260 610 OFFCURVE",
"252 630 OFFCURVE",
"230 630 CURVE SMOOTH",
"201 630 OFFCURVE",
"183 605 OFFCURVE",
"183 578 CURVE SMOOTH",
"183 559 OFFCURVE",
"194 543 OFFCURVE",
"213 543 CURVE SMOOTH"
);
}
);
width = 302;
},
{
components = (
{
name = idotless;
},
{
name = dotaccentcomb;
transform = "{1, 0, 0, 1, 150, 0}";
}
);
layerId = "D07BE892-06F6-46A5-91A1-F9C5A6E66C70";
width = 312;
}
);
note = i;
unicode = 0069;
},
{
color = 4;
glyphname = k;
lastChange = "2018-03-02 07:53:50 +0000";
layers = (
{
layerId = "0B1DFD06-3317-40CA-B510-4969A0718C16";
paths = (
{
closed = 1;
nodes = (
"337 320 OFFCURVE",
"435 404 CURVE",
"419 417 OFFCURVE",
"399 424 OFFCURVE",
"387 424 CURVE SMOOTH",
"364 424 OFFCURVE",
"185 171 OFFCURVE",
"126 58 CURVE",
"137 50 LINE",
"143 223 OFFCURVE",
"146 399 OFFCURVE",
"172 534 CURVE SMOOTH",
"232 844 OFFCURVE",
"347 1038 OFFCURVE",
"484 1038 CURVE SMOOTH",
"571 1038 OFFCURVE",
"646 1006 OFFCURVE",
"705 908 CURVE",
"707 910 OFFCURVE",
"708 914 OFFCURVE",
"708 917 CURVE SMOOTH",
"708 1057 OFFCURVE",
"581 1108 OFFCURVE",
"488 1108 CURVE SMOOTH",
"297 1108 OFFCURVE",
"189 888 OFFCURVE",
"127 546 CURVE SMOOTH",
"100 396 OFFCURVE",
"83 60 OFFCURVE",
"93 20 CURVE SMOOTH",
"96 8 OFFCURVE",
"124 -14 OFFCURVE",
"135 -14 CURVE SMOOTH",
"140 -14 OFFCURVE",
"146 0 OFFCURVE",
"149 6 CURVE SMOOTH",
"204 117 OFFCURVE"
);
},
{
closed = 1;
nodes = (
"318 135 OFFCURVE",
"276 270 CURVE",
"250 224 LINE",
"275 135 OFFCURVE",
"347 -12 OFFCURVE",
"431 -12 CURVE SMOOTH",
"536 -12 OFFCURVE",
"643 166 OFFCURVE",
"643 243 CURVE SMOOTH",
"643 273 OFFCURVE",
"627 281 OFFCURVE",
"615 281 CURVE",
"608 170 OFFCURVE",
"507 30 OFFCURVE",
"446 30 CURVE SMOOTH",
"380 30 OFFCURVE"
);
}
);
width = 516;
},
{
layerId = "4C458150-A1D2-4ED7-A293-C8767657F79E";
paths = (
{
closed = 1;
nodes = (
"351 323 OFFCURVE",
"463 407 CURVE",
"450 420 OFFCURVE",
"432 427 OFFCURVE",
"410 427 CURVE SMOOTH",
"387 427 OFFCURVE",
"172 171 OFFCURVE",
"93 58 CURVE",
"102 50 LINE",
"139 223 OFFCURVE",
"173 399 OFFCURVE",
"223 534 CURVE SMOOTH",
"338 844 OFFCURVE",
"487 1038 OFFCURVE",
"624 1038 CURVE SMOOTH",
"711 1038 OFFCURVE",
"780 1006 OFFCURVE",
"822 908 CURVE",
"824 910 OFFCURVE",
"826 914 OFFCURVE",
"826 917 CURVE SMOOTH",
"826 1055 OFFCURVE",
"733 1108 OFFCURVE",
"640 1108 CURVE SMOOTH",
"449 1108 OFFCURVE",
"301 888 OFFCURVE",
"180 546 CURVE SMOOTH",
"127 396 OFFCURVE",
"50 60 OFFCURVE",
"53 20 CURVE SMOOTH",
"54 8 OFFCURVE",
"78 -14 OFFCURVE",
"89 -14 CURVE SMOOTH",
"94 -14 OFFCURVE",
"103 0 OFFCURVE",
"107 6 CURVE SMOOTH",
"181 117 OFFCURVE"
);
},
{
closed = 1;
nodes = (
"313 172 OFFCURVE",
"286 276 CURVE",
"246 224 LINE",
"292 85 OFFCURVE",
"331 -12 OFFCURVE",
"425 -12 CURVE SMOOTH",
"530 -12 OFFCURVE",
"657 182 OFFCURVE",
"652 243 CURVE SMOOTH",
"650 266 OFFCURVE",
"642 281 OFFCURVE",
"631 281 CURVE",
"605 146 OFFCURVE",
"489 30 OFFCURVE",
"438 30 CURVE SMOOTH",
"342 30 OFFCURVE"
);
}
);
width = 516;
},
{
layerId = "D07BE892-06F6-46A5-91A1-F9C5A6E66C70";
paths = (
{
closed = 1;
nodes = (
"140 -14 OFFCURVE",
"145 0 OFFCURVE",
"149 6 CURVE SMOOTH",
"254 177 OFFCURVE",
"377 310 OFFCURVE",
"475 394 CURVE",
"459 417 OFFCURVE",
"389 434 OFFCURVE",
"377 434 CURVE SMOOTH",
"354 434 OFFCURVE",
"221 221 OFFCURVE",
"162 108 CURVE",
"173 100 LINE",
"179 273 OFFCURVE",
"185 355 OFFCURVE",
"202 514 CURVE SMOOTH",
"236 830 OFFCURVE",
"347 1008 OFFCURVE",
"484 1008 CURVE SMOOTH",
"571 1008 OFFCURVE",
"646 976 OFFCURVE",
"705 908 CURVE",
"707 910 OFFCURVE",
"708 914 OFFCURVE",
"708 917 CURVE SMOOTH",
"708 1057 OFFCURVE",
"581 1108 OFFCURVE",
"488 1108 CURVE SMOOTH",
"297 1108 OFFCURVE",
"154 922 OFFCURVE",
"117 576 CURVE SMOOTH",
"100 416 OFFCURVE",
"83 60 OFFCURVE",
"93 20 CURVE SMOOTH",
"96 8 OFFCURVE",
"124 -14 OFFCURVE",
"135 -14 CURVE SMOOTH"
);
},
{
closed = 1;
nodes = (
"546 -12 OFFCURVE",
"663 146 OFFCURVE",
"663 223 CURVE SMOOTH",
"663 246 OFFCURVE",
"653 265 OFFCURVE",
"631 265 CURVE",
"614 144 OFFCURVE",
"517 50 OFFCURVE",
"446 50 CURVE SMOOTH",
"380 50 OFFCURVE",
"328 125 OFFCURVE",
"306 270 CURVE",
"250 224 LINE",
"275 85 OFFCURVE",
"337 -12 OFFCURVE",
"431 -12 CURVE SMOOTH"
);
}
);
width = 536;
}
);
note = k;
unicode = 006B;
},
{
color = 4;
glyphname = l;
lastChange = "2018-02-28 11:09:00 +0000";
layers = (
{
layerId = "0B1DFD06-3317-40CA-B510-4969A0718C16";
paths = (
{
closed = 1;
nodes = (
"414 -7 OFFCURVE",
"511 163 OFFCURVE",
"511 209 CURVE SMOOTH",
"511 231 OFFCURVE",
"500 250 OFFCURVE",
"482 250 CURVE",
"461 153 OFFCURVE",
"364 38 OFFCURVE",
"252 38 CURVE SMOOTH",
"203 38 OFFCURVE",
"169 58 OFFCURVE",
"157 124 CURVE SMOOTH",
"149 166 OFFCURVE",
"146 237 OFFCURVE",
"146 319 CURVE SMOOTH",
"146 483 OFFCURVE",
"157 695 OFFCURVE",
"171 835 CURVE SMOOTH",
"184 966 OFFCURVE",
"203 970 OFFCURVE",
"221 970 CURVE SMOOTH",
"262 970 OFFCURVE",
"274 870 OFFCURVE",
"274 799 CURVE SMOOTH",
"274 667 OFFCURVE",
"243 472 OFFCURVE",
"143 320 CURVE",
"141 246 LINE",
"274 419 OFFCURVE",
"321 635 OFFCURVE",
"321 792 CURVE SMOOTH",
"321 890 OFFCURVE",
"292 1025 OFFCURVE",
"209 1025 CURVE SMOOTH",
"164 1025 OFFCURVE",
"135 966 OFFCURVE",
"126 878 CURVE SMOOTH",
"110 722 OFFCURVE",
"98 523 OFFCURVE",
"98 334 CURVE SMOOTH",
"98 262 OFFCURVE",
"101 160 OFFCURVE",
"108 118 CURVE SMOOTH",
"122 38 OFFCURVE",
"162 -7 OFFCURVE",
"236 -7 CURVE SMOOTH"
);
}
);
width = 381;
},
{
layerId = "4C458150-A1D2-4ED7-A293-C8767657F79E";
paths = (
{
closed = 1;
nodes = (
"309 -7 OFFCURVE",
"444 86 OFFCURVE",
"506 209 CURVE SMOOTH",
"512 221 OFFCURVE",
"516 234 OFFCURVE",
"516 246 CURVE SMOOTH",
"516 265 OFFCURVE",
"508 280 OFFCURVE",
"494 280 CURVE",
"450 153 OFFCURVE",
"317 38 OFFCURVE",
"225 38 CURVE SMOOTH",
"176 38 OFFCURVE",
"145 58 OFFCURVE",
"145 124 CURVE SMOOTH",
"145 198 OFFCURVE",
"180 358 OFFCURVE",
"221 519 CURVE SMOOTH",
"249 633 OFFCURVE",
"280 748 OFFCURVE",
"304 835 CURVE SMOOTH",
"340 966 OFFCURVE",
"360 970 OFFCURVE",
"378 970 CURVE SMOOTH",
"395 970 OFFCURVE",
"411 937 OFFCURVE",
"411 897 CURVE SMOOTH",
"411 785 OFFCURVE",
"329 517 OFFCURVE",
"166 320 CURVE",
"151 246 LINE",
"356 463 OFFCURVE",
"457 749 OFFCURVE",
"457 899 CURVE SMOOTH",
"457 978 OFFCURVE",
"410 1025 OFFCURVE",
"376 1025 CURVE SMOOTH",
"331 1025 OFFCURVE",
"303 986 OFFCURVE",
"278 898 CURVE SMOOTH",
"251 803 OFFCURVE",
"211 666 OFFCURVE",
"176 527 CURVE SMOOTH",
"135 363 OFFCURVE",
"95 203 OFFCURVE",
"95 118 CURVE SMOOTH",
"95 38 OFFCURVE",
"127 -7 OFFCURVE",
"201 -7 CURVE SMOOTH"
);
}
);
width = 381;
},
{
layerId = "D07BE892-06F6-46A5-91A1-F9C5A6E66C70";
paths = (
{
closed = 1;
nodes = (
"444 -7 OFFCURVE",
"531 163 OFFCURVE",
"531 209 CURVE SMOOTH",
"531 231 OFFCURVE",
"520 250 OFFCURVE",
"502 250 CURVE",
"481 153 OFFCURVE",
"394 48 OFFCURVE",
"282 48 CURVE SMOOTH",
"233 48 OFFCURVE",
"210 78 OFFCURVE",
"197 144 CURVE SMOOTH",
"189 186 OFFCURVE",
"186 257 OFFCURVE",
"186 339 CURVE SMOOTH",
"186 503 OFFCURVE",
"197 685 OFFCURVE",
"211 825 CURVE SMOOTH",
"222 936 OFFCURVE",
"228 950 OFFCURVE",
"243 950 CURVE SMOOTH",
"264 950 OFFCURVE",
"284 870 OFFCURVE",
"284 799 CURVE SMOOTH",
"284 667 OFFCURVE",
"233 436 OFFCURVE",
"153 274 CURVE",
"153 186 LINE",
"264 369 OFFCURVE",
"351 635 OFFCURVE",
"351 792 CURVE SMOOTH",
"351 910 OFFCURVE",
"312 1025 OFFCURVE",
"229 1025 CURVE SMOOTH",
"174 1025 OFFCURVE",
"128 966 OFFCURVE",
"119 838 CURVE SMOOTH",
"108 682 OFFCURVE",
"98 543 OFFCURVE",
"98 354 CURVE SMOOTH",
"98 282 OFFCURVE",
"101 170 OFFCURVE",
"108 128 CURVE SMOOTH",
"122 48 OFFCURVE",
"192 -7 OFFCURVE",
"266 -7 CURVE SMOOTH"
);
}
);
width = 401;
}
);
note = l;
unicode = 006C;
},
{
color = 4;
glyphname = m;
lastChange = "2018-02-28 10:47:36 +0000";
layers = (
{
anchors = (
{
name = bottom;
position = "{289, 0}";
},
{
name = top;
position = "{299, 420}";
}
);
layerId = "0B1DFD06-3317-40CA-B510-4969A0718C16";
paths = (
{
closed = 1;
nodes = (
"710 -2 OFFCURVE",
"778 144 OFFCURVE",
"778 207 CURVE SMOOTH",
"778 233 OFFCURVE",
"764 244 OFFCURVE",
"746 244 CURVE",
"734 126 OFFCURVE",
"676 41 OFFCURVE",
"597 41 CURVE SMOOTH",
"550 41 OFFCURVE",
"528 79 OFFCURVE",
"528 131 CURVE SMOOTH",
"528 215 OFFCURVE",
"542 307 OFFCURVE",
"551 376 CURVE",
"547 397 OFFCURVE",
"515 413 OFFCURVE",
"494 413 CURVE SMOOTH",
"447 413 OFFCURVE",
"353 270 OFFCURVE",
"330 221 CURVE",
"339 215 LINE",
"343 243 OFFCURVE",
"347 347 OFFCURVE",
"347 370 CURVE",
"345 380 OFFCURVE",
"308 402 OFFCURVE",
"293 402 CURVE SMOOTH",
"265 402 OFFCURVE",
"184 346 OFFCURVE",
"138 194 CURVE",
"145 194 LINE",
"155 293 OFFCURVE",
"164 374 OFFCURVE",
"166 403 CURVE",
"160 408 OFFCURVE",
"133 419 OFFCURVE",
"124 419 CURVE SMOOTH",
"116 419 OFFCURVE",
"114 413 OFFCURVE",
"113 402 CURVE SMOOTH",
"105 293 OFFCURVE",
"96 168 OFFCURVE",
"89 57 CURVE SMOOTH",
"88 42 OFFCURVE",
"86 18 OFFCURVE",
"87 12 CURVE SMOOTH",
"89 2 OFFCURVE",
"123 -9 OFFCURVE",
"133 -9 CURVE",
"133 17 OFFCURVE",
"135 64 OFFCURVE",
"140 118 CURVE",
"173 232 OFFCURVE",
"253 360 OFFCURVE",
"284 360 CURVE SMOOTH",
"289 360 OFFCURVE",
"296 357 OFFCURVE",
"301 352 CURVE",
"300 330 OFFCURVE",
"294 175 OFFCURVE",
"283 71 CURVE SMOOTH",
"280 42 OFFCURVE",
"278 24 OFFCURVE",
"283 16 CURVE",
"290 5 OFFCURVE",
"309 -10 OFFCURVE",
"320 -10 CURVE SMOOTH",
"328 -10 OFFCURVE",
"328 2 OFFCURVE",
"329 19 CURVE SMOOTH",
"331 53 OFFCURVE",
"335 131 OFFCURVE",
"339 163 CURVE",
"356 211 OFFCURVE",
"458 360 OFFCURVE",
"484 360 CURVE SMOOTH",
"490 360 OFFCURVE",
"498 356 OFFCURVE",
"499 352 CURVE",
"497 313 OFFCURVE",
"477 223 OFFCURVE",
"477 129 CURVE SMOOTH",
"477 56 OFFCURVE",
"511 -2 OFFCURVE",
"586 -2 CURVE SMOOTH"
);
}
);
width = 648;
},
{
anchors = (
{
name = bottom;
position = "{245, 0}";
},
{
name = top;
position = "{329, 420}";
}
);
layerId = "4C458150-A1D2-4ED7-A293-C8767657F79E";
paths = (
{
closed = 1;
nodes = (
"648 -2 OFFCURVE",
"777 174 OFFCURVE",
"774 232 CURVE SMOOTH",
"773 250 OFFCURVE",
"763 264 OFFCURVE",
"748 264 CURVE",
"710 151 OFFCURVE",
"631 41 OFFCURVE",
"540 41 CURVE SMOOTH",
"507 41 OFFCURVE",
"497 63 OFFCURVE",
"497 96 CURVE SMOOTH",
"497 177 OFFCURVE",
"538 296 OFFCURVE",
"564 376 CURVE",
"563 397 OFFCURVE",
"535 413 OFFCURVE",
"514 413 CURVE SMOOTH",
"467 413 OFFCURVE",
"347 273 OFFCURVE",
"316 224 CURVE",
"324 218 LINE",
"333 246 OFFCURVE",
"354 347 OFFCURVE",
"358 370 CURVE",
"358 380 OFFCURVE",
"328 402 OFFCURVE",
"313 402 CURVE SMOOTH",
"285 402 OFFCURVE",
"191 351 OFFCURVE",
"119 197 CURVE",
"133 199 LINE",
"155 298 OFFCURVE",
"179 374 OFFCURVE",
"186 403 CURVE",
"181 408 OFFCURVE",
"156 419 OFFCURVE",
"147 419 CURVE SMOOTH",
"139 419 OFFCURVE",
"136 413 OFFCURVE",
"133 402 CURVE SMOOTH",
"106 293 OFFCURVE",
"77 182 OFFCURVE",
"48 71 CURVE SMOOTH",
"44 56 OFFCURVE",
"38 32 OFFCURVE",
"38 26 CURVE SMOOTH",
"38 16 OFFCURVE",
"70 5 OFFCURVE",
"80 5 CURVE",
"85 31 OFFCURVE",
"95 78 OFFCURVE",
"107 118 CURVE",
"160 232 OFFCURVE",
"266 360 OFFCURVE",
"297 360 CURVE SMOOTH",
"302 360 OFFCURVE",
"308 357 OFFCURVE",
"312 352 CURVE",
"307 330 OFFCURVE",
"273 189 OFFCURVE",
"244 85 CURVE SMOOTH",
"236 56 OFFCURVE",
"231 38 OFFCURVE",
"235 30 CURVE",
"240 19 OFFCURVE",
"256 4 OFFCURVE",
"267 4 CURVE SMOOTH",
"275 4 OFFCURVE",
"277 16 OFFCURVE",
"281 33 CURVE SMOOTH",
"289 67 OFFCURVE",
"304 131 OFFCURVE",
"314 163 CURVE",
"339 211 OFFCURVE",
"469 360 OFFCURVE",
"495 360 CURVE SMOOTH",
"501 360 OFFCURVE",
"508 356 OFFCURVE",
"508 352 CURVE",
"498 307 OFFCURVE",
"445 193 OFFCURVE",
"445 84 CURVE SMOOTH",
"445 36 OFFCURVE",
"483 -2 OFFCURVE",
"532 -2 CURVE SMOOTH"
);
}
);
width = 641;
},
{
anchors = (
{
name = bottom;
position = "{309, 0}";
},
{
name = top;
position = "{319, 420}";
}
);
layerId = "D07BE892-06F6-46A5-91A1-F9C5A6E66C70";
paths = (
{
closed = 1;
nodes = (
"760 -2 OFFCURVE",
"828 144 OFFCURVE",
"828 207 CURVE SMOOTH",
"828 233 OFFCURVE",
"814 244 OFFCURVE",
"796 244 CURVE",
"784 126 OFFCURVE",
"726 51 OFFCURVE",
"647 51 CURVE SMOOTH",
"600 51 OFFCURVE",
"578 89 OFFCURVE",
"578 141 CURVE SMOOTH",
"578 225 OFFCURVE",
"592 307 OFFCURVE",
"601 376 CURVE",
"597 397 OFFCURVE",
"535 413 OFFCURVE",
"514 413 CURVE SMOOTH",
"467 413 OFFCURVE",
"403 280 OFFCURVE",
"380 231 CURVE",
"389 225 LINE",
"393 253 OFFCURVE",
"397 347 OFFCURVE",
"397 370 CURVE",
"395 380 OFFCURVE",
"328 402 OFFCURVE",
"313 402 CURVE SMOOTH",
"285 402 OFFCURVE",
"214 356 OFFCURVE",
"168 204 CURVE",
"175 204 LINE",
"185 303 OFFCURVE",
"188 374 OFFCURVE",
"190 403 CURVE",
"184 408 OFFCURVE",
"117 419 OFFCURVE",
"108 419 CURVE SMOOTH",
"100 419 OFFCURVE",
"98 413 OFFCURVE",
"97 402 CURVE SMOOTH",
"87 281 OFFCURVE",
"83 169 OFFCURVE",
"79 57 CURVE SMOOTH",
"78 42 OFFCURVE",
"76 18 OFFCURVE",
"77 12 CURVE SMOOTH",
"79 2 OFFCURVE",
"153 -9 OFFCURVE",
"163 -9 CURVE",
"163 17 OFFCURVE",
"165 64 OFFCURVE",
"170 118 CURVE",
"203 232 OFFCURVE",
"263 340 OFFCURVE",
"294 340 CURVE SMOOTH",
"299 340 OFFCURVE",
"306 337 OFFCURVE",
"311 332 CURVE",
"310 310 OFFCURVE",
"304 175 OFFCURVE",
"293 71 CURVE SMOOTH",
"290 42 OFFCURVE",
"288 24 OFFCURVE",
"293 16 CURVE",
"300 5 OFFCURVE",
"359 -10 OFFCURVE",
"370 -10 CURVE SMOOTH",
"378 -10 OFFCURVE",
"378 2 OFFCURVE",
"379 19 CURVE SMOOTH",
"381 53 OFFCURVE",
"385 131 OFFCURVE",
"389 163 CURVE",
"406 211 OFFCURVE",
"468 340 OFFCURVE",
"494 340 CURVE SMOOTH",
"500 340 OFFCURVE",
"508 336 OFFCURVE",
"509 332 CURVE",
"507 293 OFFCURVE",
"487 223 OFFCURVE",
"487 129 CURVE SMOOTH",
"487 56 OFFCURVE",
"561 -2 OFFCURVE",
"636 -2 CURVE SMOOTH"
);
}
);
width = 698;
}
);
note = m;
unicode = 006D;
},
{
color = 4;
glyphname = n;
lastChange = "2018-03-03 05:26:07 +0000";
layers = (
{
anchors = (
{
name = bottom;
position = "{224, 0}";
},
{
name = top;
position = "{223, 420}";
}
);
layerId = "0B1DFD06-3317-40CA-B510-4969A0718C16";
paths = (
{
closed = 1;
nodes = (
"506 -12 OFFCURVE",
"580 137 OFFCURVE",
"580 192 CURVE SMOOTH",
"580 210 OFFCURVE",
"571 224 OFFCURVE",
"556 224 CURVE",
"540 135 OFFCURVE",
"480 28 OFFCURVE",
"398 28 CURVE SMOOTH",
"359 28 OFFCURVE",
"333 53 OFFCURVE",
"333 109 CURVE SMOOTH",
"333 183 OFFCURVE",
"343 276 OFFCURVE",
"353 384 CURVE",
"348 394 OFFCURVE",
"320 413 OFFCURVE",
"310 413 CURVE SMOOTH",
"273 413 OFFCURVE",
"168 296 OFFCURVE",
"115 206 CURVE",
"128 190 LINE",
"141 291 OFFCURVE",
"143 385 OFFCURVE",
"144 400 CURVE",
"139 412 OFFCURVE",
"117 415 OFFCURVE",
"108 415 CURVE SMOOTH",
"100 415 OFFCURVE",
"96 412 OFFCURVE",
"96 405 CURVE SMOOTH",
"96 335 OFFCURVE",
"89 237 OFFCURVE",
"90 158 CURVE",
"87 85 OFFCURVE",
"85 32 OFFCURVE",
"85 8 CURVE",
"86 1 OFFCURVE",
"118 0 OFFCURVE",
"128 0 CURVE SMOOTH",
"133 0 OFFCURVE",
"132 5 OFFCURVE",
"132 14 CURVE SMOOTH",
"132 62 OFFCURVE",
"133 106 OFFCURVE",
"135 151 CURVE",
"149 208 OFFCURVE",
"244 320 OFFCURVE",
"286 352 CURVE SMOOTH",
"294 358 OFFCURVE",
"300 355 OFFCURVE",
"304 349 CURVE",
"300 281 OFFCURVE",
"283 190 OFFCURVE",
"283 105 CURVE SMOOTH",
"283 28 OFFCURVE",
"335 -12 OFFCURVE",
"393 -12 CURVE SMOOTH"
);
}
);
width = 450;
},
{
anchors = (
{
name = bottom;
position = "{182, 0}";
},
{
name = top;
position = "{256, 420}";
}
);
layerId = "4C458150-A1D2-4ED7-A293-C8767657F79E";
paths = (
{
closed = 1;
nodes = (
"447 -12 OFFCURVE",
"574 147 OFFCURVE",
"574 212 CURVE SMOOTH",
"574 230 OFFCURVE",
"570 244 OFFCURVE",
"555 244 CURVE",
"512 145 OFFCURVE",
"428 28 OFFCURVE",
"334 28 CURVE SMOOTH",
"308 28 OFFCURVE",
"300 43 OFFCURVE",
"299 68 CURVE SMOOTH",
"298 99 OFFCURVE",
"347 274 OFFCURVE",
"389 384 CURVE",
"386 394 OFFCURVE",
"361 413 OFFCURVE",
"351 413 CURVE SMOOTH",
"314 413 OFFCURVE",
"197 306 OFFCURVE",
"122 216 CURVE",
"129 190 LINE",
"160 292 OFFCURVE",
"182 383 OFFCURVE",
"184 398 CURVE",
"181 410 OFFCURVE",
"159 415 OFFCURVE",
"150 415 CURVE SMOOTH",
"142 415 OFFCURVE",
"137 412 OFFCURVE",
"136 405 CURVE SMOOTH",
"126 335 OFFCURVE",
"99 237 OFFCURVE",
"76 158 CURVE",
"53 85 OFFCURVE",
"35 32 OFFCURVE",
"35 8 CURVE",
"35 1 OFFCURVE",
"65 0 OFFCURVE",
"75 0 CURVE SMOOTH",
"80 0 OFFCURVE",
"80 5 OFFCURVE",
"82 14 CURVE SMOOTH",
"91 62 OFFCURVE",
"99 106 OFFCURVE",
"119 151 CURVE",
"153 208 OFFCURVE",
"263 316 OFFCURVE",
"311 348 CURVE SMOOTH",
"320 354 OFFCURVE",
"325 351 OFFCURVE",
"328 345 CURVE",
"313 305 OFFCURVE",
"246 134 OFFCURVE",
"249 54 CURVE SMOOTH",
"251 8 OFFCURVE",
"281 -12 OFFCURVE",
"322 -12 CURVE SMOOTH"
);
}
);
width = 445;
},
{
anchors = (
{
name = bottom;
position = "{244, 0}";
},
{
name = top;
position = "{243, 420}";
}
);
layerId = "D07BE892-06F6-46A5-91A1-F9C5A6E66C70";
paths = (
{
closed = 1;
nodes = (
"565 -12 OFFCURVE",
"630 137 OFFCURVE",
"630 192 CURVE SMOOTH",
"630 210 OFFCURVE",
"621 224 OFFCURVE",
"606 224 CURVE",
"590 135 OFFCURVE",
"509 38 OFFCURVE",
"437 38 CURVE SMOOTH",
"398 38 OFFCURVE",
"382 63 OFFCURVE",
"382 119 CURVE SMOOTH",
"382 193 OFFCURVE",
"392 276 OFFCURVE",
"402 384 CURVE",
"397 394 OFFCURVE",
"329 413 OFFCURVE",
"319 413 CURVE SMOOTH",
"282 413 OFFCURVE",
"188 296 OFFCURVE",
"135 206 CURVE",
"148 190 LINE",
"161 291 OFFCURVE",
"163 385 OFFCURVE",
"164 400 CURVE",
"159 412 OFFCURVE",
"97 415 OFFCURVE",
"88 415 CURVE SMOOTH",
"80 415 OFFCURVE",
"76 412 OFFCURVE",
"76 405 CURVE SMOOTH",
"76 335 OFFCURVE",
"69 237 OFFCURVE",
"70 158 CURVE",
"67 85 OFFCURVE",
"65 32 OFFCURVE",
"65 8 CURVE",
"66 1 OFFCURVE",
"138 0 OFFCURVE",
"148 0 CURVE SMOOTH",
"153 0 OFFCURVE",
"152 5 OFFCURVE",
"152 14 CURVE SMOOTH",
"152 62 OFFCURVE",
"153 106 OFFCURVE",
"155 151 CURVE",
"169 208 OFFCURVE",
"253 300 OFFCURVE",
"295 332 CURVE SMOOTH",
"303 338 OFFCURVE",
"309 335 OFFCURVE",
"313 329 CURVE",
"309 261 OFFCURVE",
"292 190 OFFCURVE",
"292 105 CURVE SMOOTH",
"292 28 OFFCURVE",
"354 -12 OFFCURVE",
"412 -12 CURVE SMOOTH"
);
}
);
width = 500;
}
);
note = n;
unicode = 006E;
},
{
color = 4;
glyphname = o;
lastChange = "2018-03-03 05:32:10 +0000";
layers = (
{
anchors = (
{
name = bottom;
position = "{232, 0}";
},
{
name = center;
position = "{232, 210}";
},
{
name = ogonek;
position = "{247, 10}";
},
{
name = top;
position = "{252, 420}";
},
{
name = topright;
position = "{350, 362}";
}
);
layerId = "0B1DFD06-3317-40CA-B510-4969A0718C16";
paths = (
{
closed = 1;
nodes = (
"292 -8 OFFCURVE",
"357 44 OFFCURVE",
"365 74 CURVE",
"364 86 OFFCURVE",
"364 98 OFFCURVE",
"364 110 CURVE SMOOTH",
"364 177 OFFCURVE",
"368 211 OFFCURVE",
"368 283 CURVE",
"322 343 LINE",
"322 295 OFFCURVE",
"319 155 OFFCURVE",
"319 91 CURVE",
"314 68 OFFCURVE",
"266 36 OFFCURVE",
"234 36 CURVE SMOOTH",
"202 36 OFFCURVE",
"152 60 OFFCURVE",
"142 114 CURVE",
"144 185 OFFCURVE",
"142 227 OFFCURVE",
"145 304 CURVE SMOOTH",
"146 329 OFFCURVE",
"181 369 OFFCURVE",
"244 369 CURVE SMOOTH",
"253 369 OFFCURVE",
"263 367 OFFCURVE",
"273 365 CURVE SMOOTH",
"279 364 OFFCURVE",
"280 362 OFFCURVE",
"282 356 CURVE SMOOTH",
"309 276 OFFCURVE",
"389 231 OFFCURVE",
"477 231 CURVE SMOOTH",
"547 231 OFFCURVE",
"600 285 OFFCURVE",
"600 346 CURVE SMOOTH",
"600 354 OFFCURVE",
"593 361 OFFCURVE",
"587 363 CURVE",
"571 301 OFFCURVE",
"532 270 OFFCURVE",
"474 270 CURVE SMOOTH",
"382 270 OFFCURVE",
"318 336 OFFCURVE",
"318 429 CURVE SMOOTH",
"318 436 OFFCURVE",
"318 443 OFFCURVE",
"319 448 CURVE",
"314 450 OFFCURVE",
"302 453 OFFCURVE",
"296 453 CURVE SMOOTH",
"278 453 OFFCURVE",
"263 444 OFFCURVE",
"263 425 CURVE SMOOTH",
"263 415 OFFCURVE",
"267 396 OFFCURVE",
"269 388 CURVE",
"294 404 LINE",
"279 407 OFFCURVE",
"258 410 OFFCURVE",
"242 410 CURVE SMOOTH",
"155 410 OFFCURVE",
"98 351 OFFCURVE",
"97 315 CURVE SMOOTH",
"95 226 OFFCURVE",
"97 191 OFFCURVE",
"90 111 CURVE",
"102 43 OFFCURVE",
"171 -8 OFFCURVE",
"230 -8 CURVE SMOOTH"
);
}
);
width = 470;
},
{
anchors = (
{
name = bottom;
position = "{193, 0}";
},
{
name = center;
position = "{230, 210}";
},
{
name = ogonek;
position = "{210, 10}";
},
{
name = top;
position = "{287, 420}";
},
{
name = topright;
position = "{375, 362}";
}
);
layerId = "4C458150-A1D2-4ED7-A293-C8767657F79E";
paths = (
{
closed = 1;
nodes = (
"258 -8 OFFCURVE",
"319 41 OFFCURVE",
"332 71 CURVE",
"342 142 OFFCURVE",
"373 229 OFFCURVE",
"380 283 CURVE",
"343 343 LINE",
"338 256 OFFCURVE",
"302 166 OFFCURVE",
"288 88 CURVE",
"279 65 OFFCURVE",
"234 36 OFFCURVE",
"202 36 CURVE SMOOTH",
"170 36 OFFCURVE",
"123 60 OFFCURVE",
"123 114 CURVE",
"142 185 OFFCURVE",
"148 228 OFFCURVE",
"167 303 CURVE SMOOTH",
"176 339 OFFCURVE",
"215 371 OFFCURVE",
"262 371 CURVE SMOOTH",
"280 371 OFFCURVE",
"289 369 OFFCURVE",
"299 365 CURVE SMOOTH",
"305 363 OFFCURVE",
"306 361 OFFCURVE",
"307 355 CURVE SMOOTH",
"320 275 OFFCURVE",
"390 221 OFFCURVE",
"477 221 CURVE SMOOTH",
"548 221 OFFCURVE",
"621 276 OFFCURVE",
"621 336 CURVE SMOOTH",
"621 344 OFFCURVE",
"617 351 OFFCURVE",
"611 353 CURVE",
"584 291 OFFCURVE",
"540 260 OFFCURVE",
"481 260 CURVE SMOOTH",
"400 260 OFFCURVE",
"352 322 OFFCURVE",
"352 401 CURVE SMOOTH",
"352 412 OFFCURVE",
"354 429 OFFCURVE",
"357 446 CURVE",
"348 448 OFFCURVE",
"340 449 OFFCURVE",
"334 449 CURVE SMOOTH",
"305 449 OFFCURVE",
"298 439 OFFCURVE",
"298 416 CURVE SMOOTH",
"298 408 OFFCURVE",
"299 399 OFFCURVE",
"300 389 CURVE",
"328 400 LINE",
"315 404 OFFCURVE",
"288 412 OFFCURVE",
"268 412 CURVE SMOOTH",
"197 412 OFFCURVE",
"131 362 OFFCURVE",
"121 315 CURVE SMOOTH",
"102 227 OFFCURVE",
"97 191 OFFCURVE",
"71 111 CURVE",
"71 43 OFFCURVE",
"137 -8 OFFCURVE",
"196 -8 CURVE SMOOTH"
);
}
);
width = 470;
},
{
anchors = (
{
name = bottom;
position = "{242, 0}";
},
{
name = center;
position = "{242, 210}";
},
{
name = ogonek;
position = "{257, 10}";
},
{
name = top;
position = "{262, 420}";
},
{
name = topright;
position = "{360, 362}";
}
);
layerId = "D07BE892-06F6-46A5-91A1-F9C5A6E66C70";
paths = (
{
closed = 1;
nodes = (
"319 -8 OFFCURVE",
"387 56 OFFCURVE",
"395 86 CURVE",
"392 125 OFFCURVE",
"397 247 OFFCURVE",
"397 283 CURVE",
"309 343 LINE",
"318 259 OFFCURVE",
"309 185 OFFCURVE",
"309 93 CURVE",
"304 70 OFFCURVE",
"275 46 OFFCURVE",
"248 46 CURVE SMOOTH",
"221 46 OFFCURVE",
"178 70 OFFCURVE",
"168 114 CURVE",
"172 184 OFFCURVE",
"173 212 OFFCURVE",
"175 289 CURVE SMOOTH",
"176 327 OFFCURVE",
"198 359 OFFCURVE",
"248 359 CURVE SMOOTH",
"254 359 OFFCURVE",
"261 358 OFFCURVE",
"264 357 CURVE SMOOTH",
"269 355 OFFCURVE",
"270 352 OFFCURVE",
"272 346 CURVE SMOOTH",
"299 266 OFFCURVE",
"393 231 OFFCURVE",
"481 231 CURVE SMOOTH",
"551 231 OFFCURVE",
"640 275 OFFCURVE",
"640 336 CURVE SMOOTH",
"640 351 OFFCURVE",
"634 359 OFFCURVE",
"623 363 CURVE",
"607 301 OFFCURVE",
"546 280 OFFCURVE",
"488 280 CURVE SMOOTH",
"399 280 OFFCURVE",
"345 326 OFFCURVE",
"345 408 CURVE SMOOTH",
"345 418 OFFCURVE",
"346 429 OFFCURVE",
"347 437 CURVE",
"341 444 OFFCURVE",
"325 450 OFFCURVE",
"306 450 CURVE SMOOTH",
"273 450 OFFCURVE",
"262 442 OFFCURVE",
"262 410 CURVE SMOOTH",
"262 402 OFFCURVE",
"263 392 OFFCURVE",
"265 383 CURVE",
"306 409 LINE",
"289 413 OFFCURVE",
"264 415 OFFCURVE",
"246 415 CURVE SMOOTH",
"167 415 OFFCURVE",
"86 349 OFFCURVE",
"85 300 CURVE SMOOTH",
"83 211 OFFCURVE",
"87 191 OFFCURVE",
"80 111 CURVE",
"92 43 OFFCURVE",
"181 -8 OFFCURVE",
"250 -8 CURVE SMOOTH"
);
}
);
width = 500;
}
);
note = o;
unicode = 006F;
},
{
color = 4;
glyphname = p;
lastChange = "2018-03-03 05:25:18 +0000";
layers = (
{
layerId = "0B1DFD06-3317-40CA-B510-4969A0718C16";
paths = (
{
closed = 1;
nodes = (
"95 -624 OFFCURVE",
"138 -646 OFFCURVE",
"141 -567 CURVE SMOOTH",
"154 -217 OFFCURVE",
"130 -50 OFFCURVE",
"145 229 CURVE SMOOTH",
"150 320 OFFCURVE",
"227 366 OFFCURVE",
"248 366 CURVE SMOOTH",
"267 366 OFFCURVE",
"324 333 OFFCURVE",
"327 315 CURVE",
"329 169 OFFCURVE",
"339 31 OFFCURVE",
"210 31 CURVE SMOOTH",
"195 31 OFFCURVE",
"172 34 OFFCURVE",
"160 36 CURVE",
"159 30 OFFCURVE",
"160 24 OFFCURVE",
"161 19 CURVE SMOOTH",
"164 2 OFFCURVE",
"190 -6 OFFCURVE",
"213 -6 CURVE SMOOTH",
"362 -6 OFFCURVE",
"503 30 OFFCURVE",
"571 148 CURVE SMOOTH",
"579 162 OFFCURVE",
"586 172 OFFCURVE",
"583 186 CURVE SMOOTH",
"580 198 OFFCURVE",
"572 204 OFFCURVE",
"560 210 CURVE",
"478 64 OFFCURVE",
"387 44 OFFCURVE",
"266 28 CURVE",
"274 17 LINE",
"397 64 OFFCURVE",
"386 183 OFFCURVE",
"386 322 CURVE",
"377 362 OFFCURVE",
"284 420 OFFCURVE",
"255 420 CURVE SMOOTH",
"210 420 OFFCURVE",
"152 365 OFFCURVE",
"132 318 CURVE",
"143 309 LINE",
"149 407 OFFCURVE",
"151 460 OFFCURVE",
"155 491 CURVE SMOOTH",
"156 498 OFFCURVE",
"159 508 OFFCURVE",
"160 511 CURVE",
"158 513 OFFCURVE",
"154 516 OFFCURVE",
"151 517 CURVE",
"139 504 OFFCURVE",
"123 499 OFFCURVE",
"110 495 CURVE SMOOTH",
"103 493 OFFCURVE",
"98 491 OFFCURVE",
"99 478 CURVE SMOOTH",
"110 331 OFFCURVE",
"89 -171 OFFCURVE",
"82 -434 CURVE SMOOTH",
"78 -571 OFFCURVE",
"78 -603 OFFCURVE",
"-22 -652 CURVE",
"-11 -657 LINE"
);
}
);
width = 454;
},
{
layerId = "4C458150-A1D2-4ED7-A293-C8767657F79E";
paths = (
{
closed = 1;
nodes = (
"-87 -624 OFFCURVE",
"-48 -646 OFFCURVE",
"-28 -567 CURVE SMOOTH",
"61 -217 OFFCURVE",
"79 -50 OFFCURVE",
"159 229 CURVE SMOOTH",
"185 320 OFFCURVE",
"272 366 OFFCURVE",
"293 366 CURVE SMOOTH",
"312 366 OFFCURVE",
"348 333 OFFCURVE",
"348 315 CURVE",
"318 199 OFFCURVE",
"285 31 OFFCURVE",
"169 31 CURVE SMOOTH",
"154 31 OFFCURVE",
"141 34 OFFCURVE",
"130 36 CURVE",
"128 30 OFFCURVE",
"127 24 OFFCURVE",
"127 19 CURVE SMOOTH",
"127 2 OFFCURVE",
"140 -6 OFFCURVE",
"163 -6 CURVE SMOOTH",
"299 -6 OFFCURVE",
"443 18 OFFCURVE",
"560 135 CURVE SMOOTH",
"571 146 OFFCURVE",
"577 162 OFFCURVE",
"577 176 CURVE SMOOTH",
"577 188 OFFCURVE",
"572 199 OFFCURVE",
"562 205 CURVE",
"436 59 OFFCURVE",
"345 44 OFFCURVE",
"220 28 CURVE",
"226 17 LINE",
"360 64 OFFCURVE",
"378 213 OFFCURVE",
"408 322 CURVE",
"408 362 OFFCURVE",
"342 420 OFFCURVE",
"313 420 CURVE SMOOTH",
"268 420 OFFCURVE",
"197 365 OFFCURVE",
"167 318 CURVE",
"175 309 LINE",
"203 407 OFFCURVE",
"223 476 OFFCURVE",
"235 507 CURVE SMOOTH",
"237 512 OFFCURVE",
"240 515 OFFCURVE",
"240 518 CURVE SMOOTH",
"240 518 OFFCURVE",
"240 519 OFFCURVE",
"240 519 CURVE",
"237 523 OFFCURVE",
"234 526 OFFCURVE",
"231 527 CURVE",
"215 525 OFFCURVE",
"201 519 OFFCURVE",
"190 516 CURVE SMOOTH",
"183 514 OFFCURVE",
"177 511 OFFCURVE",
"174 498 CURVE SMOOTH",
"140 351 OFFCURVE",
"28 -101 OFFCURVE",
"-56 -434 CURVE SMOOTH",
"-91 -571 OFFCURVE",
"-99 -603 OFFCURVE",
"-210 -652 CURVE",
"-199 -657 LINE"
);
}
);
width = 454;
},
{
layerId = "D07BE892-06F6-46A5-91A1-F9C5A6E66C70";
paths = (
{
closed = 1;
nodes = (
"75 -624 OFFCURVE",
"158 -646 OFFCURVE",
"161 -567 CURVE SMOOTH",
"174 -217 OFFCURVE",
"150 -50 OFFCURVE",
"165 229 CURVE SMOOTH",
"170 320 OFFCURVE",
"233 351 OFFCURVE",
"254 351 CURVE SMOOTH",
"273 351 OFFCURVE",
"320 323 OFFCURVE",
"323 305 CURVE",
"325 159 OFFCURVE",
"334 51 OFFCURVE",
"240 51 CURVE SMOOTH",
"209 51 OFFCURVE",
"193 56 OFFCURVE",
"181 60 CURVE",
"179 52 OFFCURVE",
"177 45 OFFCURVE",
"177 34 CURVE SMOOTH",
"177 17 OFFCURVE",
"200 -6 OFFCURVE",
"263 -6 CURVE SMOOTH",
"422 -6 OFFCURVE",
"527 32 OFFCURVE",
"591 132 CURVE SMOOTH",
"600 146 OFFCURVE",
"606 166 OFFCURVE",
"603 180 CURVE SMOOTH",
"600 192 OFFCURVE",
"592 204 OFFCURVE",
"580 210 CURVE",
"517 99 OFFCURVE",
"436 50 OFFCURVE",
"316 48 CURVE",
"314 37 LINE",
"428 81 OFFCURVE",
"422 183 OFFCURVE",
"422 322 CURVE",
"413 362 OFFCURVE",
"320 420 OFFCURVE",
"271 420 CURVE SMOOTH",
"226 420 OFFCURVE",
"168 361 OFFCURVE",
"148 314 CURVE",
"163 309 LINE",
"169 407 OFFCURVE",
"171 460 OFFCURVE",
"175 491 CURVE SMOOTH",
"176 498 OFFCURVE",
"183 528 OFFCURVE",
"184 531 CURVE",
"182 533 OFFCURVE",
"178 536 OFFCURVE",
"175 537 CURVE",
"163 524 OFFCURVE",
"113 499 OFFCURVE",
"100 495 CURVE SMOOTH",
"85 491 OFFCURVE",
"78 477 OFFCURVE",
"79 458 CURVE SMOOTH",
"90 311 OFFCURVE",
"70 -141 OFFCURVE",
"62 -404 CURVE SMOOTH",
"58 -541 OFFCURVE",
"58 -573 OFFCURVE",
"-42 -652 CURVE",
"-31 -657 LINE"
);
}
);
width = 474;
}
);
note = p;
unicode = 0070;
},
{
color = 4;
glyphname = q;
lastChange = "2018-02-28 11:23:41 +0000";
layers = (
{
layerId = "0B1DFD06-3317-40CA-B510-4969A0718C16";
paths = (
{
closed = 1;
nodes = (
"439 -565 OFFCURVE",
"476 -485 OFFCURVE",
"476 -385 CURVE SMOOTH",
"476 -287 OFFCURVE",
"430 -101 OFFCURVE",
"366 -37 CURVE",
"364 -55 LINE",
"462 -4 OFFCURVE",
"645 104 OFFCURVE",
"645 202 CURVE SMOOTH",
"645 219 OFFCURVE",
"639 242 OFFCURVE",
"621 254 CURVE",
"589 129 OFFCURVE",
"454 35 OFFCURVE",
"326 -31 CURVE",
"325 -50 LINE",
"388 -116 OFFCURVE",
"428 -258 OFFCURVE",
"428 -361 CURVE SMOOTH",
"428 -451 OFFCURVE",
"397 -518 OFFCURVE",
"359 -518 CURVE SMOOTH",
"331 -518 OFFCURVE",
"320 -483 OFFCURVE",
"320 -442 CURVE SMOOTH",
"320 -382 OFFCURVE",
"332 -272 OFFCURVE",
"350 -33 CURVE SMOOTH",
"358 71 OFFCURVE",
"364 199 OFFCURVE",
"375 353 CURVE SMOOTH",
"378 396 OFFCURVE",
"378 410 OFFCURVE",
"382 448 CURVE",
"373 457 OFFCURVE",
"340 475 OFFCURVE",
"330 475 CURVE",
"331 442 OFFCURVE",
"330 420 OFFCURVE",
"327 379 CURVE SMOOTH",
"323 328 OFFCURVE",
"318 204 OFFCURVE",
"313 137 CURVE SMOOTH",
"308 75 OFFCURVE",
"251 39 OFFCURVE",
"215 39 CURVE SMOOTH",
"190 39 OFFCURVE",
"157 61 OFFCURVE",
"146 101 CURVE",
"148 160 OFFCURVE",
"143 226 OFFCURVE",
"147 297 CURVE SMOOTH",
"150 345 OFFCURVE",
"186 380 OFFCURVE",
"241 380 CURVE SMOOTH",
"280 380 OFFCURVE",
"341 348 OFFCURVE",
"359 328 CURVE",
"366 364 LINE",
"348 384 OFFCURVE",
"285 418 OFFCURVE",
"234 418 CURVE SMOOTH",
"169 418 OFFCURVE",
"100 363 OFFCURVE",
"98 314 CURVE SMOOTH",
"94 230 OFFCURVE",
"96 163 OFFCURVE",
"92 98 CURVE",
"105 44 OFFCURVE",
"153 -8 OFFCURVE",
"215 -8 CURVE SMOOTH",
"258 -8 OFFCURVE",
"328 37 OFFCURVE",
"346 106 CURVE",
"318 118 LINE",
"301 -111 OFFCURVE",
"268 -296 OFFCURVE",
"268 -448 CURVE SMOOTH",
"268 -510 OFFCURVE",
"301 -565 OFFCURVE",
"359 -565 CURVE SMOOTH"
);
}
);
width = 510;
},
{
layerId = "4C458150-A1D2-4ED7-A293-C8767657F79E";
paths = (
{
closed = 1;
nodes = (
"329 -565 OFFCURVE",
"383 -436 OFFCURVE",
"383 -301 CURVE SMOOTH",
"383 -184 OFFCURVE",
"366 -84 OFFCURVE",
"327 -37 CURVE",
"322 -55 LINE",
"438 0 OFFCURVE",
"653 121 OFFCURVE",
"639 226 CURVE SMOOTH",
"637 241 OFFCURVE",
"632 248 OFFCURVE",
"624 254 CURVE",
"571 139 OFFCURVE",
"429 40 OFFCURVE",
"289 -26 CURVE",
"284 -50 LINE",
"332 -111 OFFCURVE",
"338 -192 OFFCURVE",
"338 -288 CURVE SMOOTH",
"338 -411 OFFCURVE",
"284 -518 OFFCURVE",
"236 -518 CURVE SMOOTH",
"217 -518 OFFCURVE",
"206 -504 OFFCURVE",
"206 -482 CURVE SMOOTH",
"206 -433 OFFCURVE",
"230 -338 OFFCURVE",
"312 -33 CURVE SMOOTH",
"340 71 OFFCURVE",
"376 199 OFFCURVE",
"415 353 CURVE SMOOTH",
"426 396 OFFCURVE",
"428 410 OFFCURVE",
"439 448 CURVE",
"432 457 OFFCURVE",
"402 475 OFFCURVE",
"392 475 CURVE",
"387 442 OFFCURVE",
"382 420 OFFCURVE",
"372 379 CURVE SMOOTH",
"360 328 OFFCURVE",
"327 204 OFFCURVE",
"310 137 CURVE SMOOTH",
"294 75 OFFCURVE",
"226 39 OFFCURVE",
"190 39 CURVE SMOOTH",
"165 39 OFFCURVE",
"134 71 OFFCURVE",
"131 111 CURVE",
"143 170 OFFCURVE",
"152 226 OFFCURVE",
"171 297 CURVE SMOOTH",
"184 345 OFFCURVE",
"219 380 OFFCURVE",
"289 380 CURVE SMOOTH",
"338 380 OFFCURVE",
"380 348 OFFCURVE",
"395 328 CURVE",
"408 364 LINE",
"394 384 OFFCURVE",
"337 418 OFFCURVE",
"286 418 CURVE SMOOTH",
"206 418 OFFCURVE",
"138 363 OFFCURVE",
"125 314 CURVE SMOOTH",
"103 230 OFFCURVE",
"92 178 OFFCURVE",
"76 108 CURVE",
"79 54 OFFCURVE",
"130 -8 OFFCURVE",
"192 -8 CURVE SMOOTH",
"235 -8 OFFCURVE",
"307 37 OFFCURVE",
"338 106 CURVE",
"312 118 LINE",
"309 98 OFFCURVE",
"154 -389 OFFCURVE",
"154 -482 CURVE SMOOTH",
"154 -533 OFFCURVE",
"203 -565 OFFCURVE",
"227 -565 CURVE SMOOTH"
);
}
);
width = 510;
},
{
layerId = "D07BE892-06F6-46A5-91A1-F9C5A6E66C70";
paths = (
{
closed = 1;
nodes = (
"469 -565 OFFCURVE",
"536 -510 OFFCURVE",
"536 -355 CURVE SMOOTH",
"536 -166 OFFCURVE",
"460 -81 OFFCURVE",
"406 -37 CURVE",
"404 -55 LINE",
"552 -4 OFFCURVE",
"665 104 OFFCURVE",
"665 202 CURVE SMOOTH",
"665 219 OFFCURVE",
"659 242 OFFCURVE",
"641 254 CURVE",
"609 129 OFFCURVE",
"504 35 OFFCURVE",
"356 -31 CURVE",
"355 -50 LINE",
"418 -116 OFFCURVE",
"458 -208 OFFCURVE",
"458 -341 CURVE SMOOTH",
"458 -451 OFFCURVE",
"437 -498 OFFCURVE",
"409 -498 CURVE SMOOTH",
"386 -498 OFFCURVE",
"370 -483 OFFCURVE",
"370 -442 CURVE SMOOTH",
"370 -382 OFFCURVE",
"368 -272 OFFCURVE",
"386 -33 CURVE",
"394 71 OFFCURVE",
"394 199 OFFCURVE",
"405 353 CURVE SMOOTH",
"408 396 OFFCURVE",
"410 424 OFFCURVE",
"412 448 CURVE",
"403 457 OFFCURVE",
"330 475 OFFCURVE",
"320 475 CURVE",
"321 442 OFFCURVE",
"321 410 OFFCURVE",
"321 369 CURVE SMOOTH",
"321 318 OFFCURVE",
"318 204 OFFCURVE",
"312 137 CURVE SMOOTH",
"307 85 OFFCURVE",
"265 49 OFFCURVE",
"229 49 CURVE SMOOTH",
"204 49 OFFCURVE",
"172 74 OFFCURVE",
"163 106 CURVE",
"164 165 OFFCURVE",
"163 221 OFFCURVE",
"167 292 CURVE SMOOTH",
"170 340 OFFCURVE",
"206 370 OFFCURVE",
"241 370 CURVE SMOOTH",
"280 370 OFFCURVE",
"321 333 OFFCURVE",
"339 308 CURVE",
"346 354 LINE",
"328 379 OFFCURVE",
"285 418 OFFCURVE",
"234 418 CURVE SMOOTH",
"179 418 OFFCURVE",
"80 353 OFFCURVE",
"78 304 CURVE SMOOTH",
"74 220 OFFCURVE",
"75 163 OFFCURVE",
"72 98 CURVE",
"82 45 OFFCURVE",
"153 -8 OFFCURVE",
"215 -8 CURVE SMOOTH",
"258 -8 OFFCURVE",
"328 37 OFFCURVE",
"346 106 CURVE",
"317 108 LINE",
"298 -81 OFFCURVE",
"288 -276 OFFCURVE",
"288 -428 CURVE SMOOTH",
"288 -490 OFFCURVE",
"331 -565 OFFCURVE",
"389 -565 CURVE SMOOTH"
);
}
);
width = 530;
}
);
note = q;
unicode = 0071;
},
{
color = 4;
glyphname = r;
lastChange = "2018-03-03 05:10:48 +0000";
layers = (
{
anchors = (
{
name = bottom;
position = "{125, 0}";
},
{
name = top;
position = "{180, 420}";
}
);
layerId = "0B1DFD06-3317-40CA-B510-4969A0718C16";
paths = (
{
closed = 1;
nodes = (
"138 1 OFFCURVE",
"139 3 OFFCURVE",
"139 7 CURVE SMOOTH",
"139 86 OFFCURVE",
"143 129 OFFCURVE",
"147 185 CURVE SMOOTH",
"152 260 OFFCURVE",
"188 356 OFFCURVE",
"260 356 CURVE",
"250 362 LINE",
"272 294 OFFCURVE",
"323 256 OFFCURVE",
"391 256 CURVE SMOOTH",
"446 256 OFFCURVE",
"500 293 OFFCURVE",
"500 338 CURVE SMOOTH",
"500 348 OFFCURVE",
"495 354 OFFCURVE",
"489 357 CURVE",
"470 311 OFFCURVE",
"436 295 OFFCURVE",
"393 295 CURVE SMOOTH",
"334 295 OFFCURVE",
"308 328 OFFCURVE",
"290 382 CURVE SMOOTH",
"289 385 OFFCURVE",
"289 388 OFFCURVE",
"288 391 CURVE",
"283 394 OFFCURVE",
"267 398 OFFCURVE",
"253 398 CURVE SMOOTH",
"196 398 OFFCURVE",
"144 328 OFFCURVE",
"130 257 CURVE",
"144 250 LINE",
"148 301 OFFCURVE",
"152 374 OFFCURVE",
"158 408 CURVE",
"147 412 OFFCURVE",
"123 416 OFFCURVE",
"118 416 CURVE SMOOTH",
"110 416 OFFCURVE",
"109 412 OFFCURVE",
"108 401 CURVE SMOOTH",
"104 357 OFFCURVE",
"94 185 OFFCURVE",
"94 55 CURVE SMOOTH",
"94 41 OFFCURVE",
"94 22 OFFCURVE",
"95 12 CURVE SMOOTH",
"96 1 OFFCURVE",
"125 1 OFFCURVE",
"131 1 CURVE SMOOTH"
);
}
);
width = 370;
},
{
anchors = (
{
name = bottom;
position = "{84, 0}";
},
{
name = top;
position = "{217, 420}";
}
);
layerId = "4C458150-A1D2-4ED7-A293-C8767657F79E";
paths = (
{
closed = 1;
nodes = (
"91 -4 OFFCURVE",
"92 -2 OFFCURVE",
"93 2 CURVE SMOOTH",
"106 81 OFFCURVE",
"119 129 OFFCURVE",
"133 185 CURVE SMOOTH",
"152 260 OFFCURVE",
"208 355 OFFCURVE",
"276 355 CURVE",
"267 361 LINE",
"277 294 OFFCURVE",
"331 256 OFFCURVE",
"399 256 CURVE SMOOTH",
"464 256 OFFCURVE",
"533 296 OFFCURVE",
"533 340 CURVE SMOOTH",
"533 348 OFFCURVE",
"529 355 OFFCURVE",
"523 357 CURVE",
"496 311 OFFCURVE",
"461 295 OFFCURVE",
"408 295 CURVE SMOOTH",
"349 295 OFFCURVE",
"311 327 OFFCURVE",
"311 382 CURVE SMOOTH",
"311 385 OFFCURVE",
"311 388 OFFCURVE",
"311 391 CURVE",
"306 394 OFFCURVE",
"291 398 OFFCURVE",
"277 398 CURVE SMOOTH",
"209 398 OFFCURVE",
"157 328 OFFCURVE",
"130 257 CURVE",
"142 250 LINE",
"155 301 OFFCURVE",
"172 362 OFFCURVE",
"184 396 CURVE",
"172 406 OFFCURVE",
"151 416 OFFCURVE",
"146 416 CURVE SMOOTH",
"138 416 OFFCURVE",
"136 412 OFFCURVE",
"133 401 CURVE SMOOTH",
"121 357 OFFCURVE",
"82 182 OFFCURVE",
"54 52 CURVE SMOOTH",
"51 38 OFFCURVE",
"49 25 OFFCURVE",
"49 15 CURVE SMOOTH",
"49 4 OFFCURVE",
"78 -4 OFFCURVE",
"84 -4 CURVE SMOOTH"
);
}
);
width = 370;
},
{
anchors = (
{
name = bottom;
position = "{124, 0}";
},
{
name = top;
position = "{180, 420}";
}
);
layerId = "D07BE892-06F6-46A5-91A1-F9C5A6E66C70";
paths = (
{
closed = 1;
nodes = (
"141 0 OFFCURVE",
"159 3 OFFCURVE",
"159 10 CURVE SMOOTH",
"159 89 OFFCURVE",
"158 159 OFFCURVE",
"162 215 CURVE SMOOTH",
"166 272 OFFCURVE",
"206 346 OFFCURVE",
"281 346 CURVE",
"271 352 LINE",
"282 292 OFFCURVE",
"332 250 OFFCURVE",
"412 250 CURVE SMOOTH",
"481 250 OFFCURVE",
"530 293 OFFCURVE",
"530 338 CURVE SMOOTH",
"530 348 OFFCURVE",
"525 354 OFFCURVE",
"519 357 CURVE",
"500 319 OFFCURVE",
"479 295 OFFCURVE",
"424 295 CURVE SMOOTH",
"375 295 OFFCURVE",
"338 337 OFFCURVE",
"338 397 CURVE",
"332 405 OFFCURVE",
"314 412 OFFCURVE",
"293 412 CURVE SMOOTH",
"213 412 OFFCURVE",
"154 328 OFFCURVE",
"140 227 CURVE",
"164 230 LINE",
"168 281 OFFCURVE",
"172 372 OFFCURVE",
"178 406 CURVE",
"165 411 OFFCURVE",
"142 416 OFFCURVE",
"123 416 CURVE SMOOTH",
"97 416 OFFCURVE",
"82 413 OFFCURVE",
"80 391 CURVE SMOOTH",
"77 347 OFFCURVE",
"74 185 OFFCURVE",
"74 55 CURVE SMOOTH",
"74 41 OFFCURVE",
"74 23 OFFCURVE",
"75 13 CURVE SMOOTH",
"76 2 OFFCURVE",
"98 0 OFFCURVE",
"124 0 CURVE SMOOTH"
);
}
);
width = 400;
}
);
note = r;
unicode = 0072;
},
{
color = 4;
glyphname = s;
lastChange = "2018-02-28 06:20:45 +0000";
layers = (
{
anchors = (
{
name = bottom;
position = "{180, 0}";
},
{
name = top;
position = "{222, 417}";
}
);
layerId = "0B1DFD06-3317-40CA-B510-4969A0718C16";
paths = (
{
closed = 1;
nodes = (
"262 -13 OFFCURVE",
"313 50 OFFCURVE",
"313 115 CURVE SMOOTH",
"313 213 OFFCURVE",
"155 246 OFFCURVE",
"155 317 CURVE SMOOTH",
"155 350 OFFCURVE",
"175 377 OFFCURVE",
"206 377 CURVE SMOOTH",
"240 377 OFFCURVE",
"267 359 OFFCURVE",
"290 329 CURVE",
"298 338 OFFCURVE",
"306 351 OFFCURVE",
"306 364 CURVE SMOOTH",
"306 398 OFFCURVE",
"257 417 OFFCURVE",
"222 417 CURVE SMOOTH",
"159 417 OFFCURVE",
"107 371 OFFCURVE",
"107 308 CURVE SMOOTH",
"107 214 OFFCURVE",
"263 185 OFFCURVE",
"263 100 CURVE SMOOTH",
"263 59 OFFCURVE",
"234 25 OFFCURVE",
"179 25 CURVE SMOOTH",
"131 25 OFFCURVE",
"92 49 OFFCURVE",
"68 101 CURVE",
"57 99 OFFCURVE",
"45 89 OFFCURVE",
"45 71 CURVE SMOOTH",
"45 29 OFFCURVE",
"107 -13 OFFCURVE",
"170 -13 CURVE SMOOTH"
);
}
);
width = 360;
},
{
anchors = (
{
name = bottom;
position = "{149, 0}";
},
{
name = top;
position = "{229, 420}";
}
);
layerId = "4C458150-A1D2-4ED7-A293-C8767657F79E";
paths = (
{
closed = 1;
nodes = (
"343 -6 OFFCURVE",
"489 71 OFFCURVE",
"489 163 CURVE SMOOTH",
"489 176 OFFCURVE",
"484 185 OFFCURVE",
"474 192 CURVE",
"448 113 OFFCURVE",
"369 46 OFFCURVE",
"168 15 CURVE",
"185 9 LINE",
"228 14 OFFCURVE",
"277 81 OFFCURVE",
"277 125 CURVE SMOOTH",
"277 214 OFFCURVE",
"205 268 OFFCURVE",
"205 343 CURVE SMOOTH",
"205 378 OFFCURVE",
"220 397 OFFCURVE",
"250 412 CURVE",
"245 417 OFFCURVE",
"234 420 OFFCURVE",
"222 420 CURVE SMOOTH",
"193 420 OFFCURVE",
"162 389 OFFCURVE",
"162 352 CURVE SMOOTH",
"162 252 OFFCURVE",
"229 199 OFFCURVE",
"229 115 CURVE SMOOTH",
"229 72 OFFCURVE",
"181 26 OFFCURVE",
"141 26 CURVE SMOOTH",
"80 26 OFFCURVE",
"41 76 OFFCURVE",
"41 143 CURVE SMOOTH",
"41 162 OFFCURVE",
"45 182 OFFCURVE",
"53 203 CURVE",
"32 203 OFFCURVE",
"4 173 OFFCURVE",
"4 130 CURVE SMOOTH",
"4 42 OFFCURVE",
"59 -13 OFFCURVE",
"184 -10 CURVE"
);
},
{
closed = 1;
nodes = (
"107 134 OFFCURVE",
"165 232 OFFCURVE",
"192 306 CURVE",
"185 368 LINE",
"155 293 OFFCURVE",
"95 176 OFFCURVE",
"34 128 CURVE",
"44 86 LINE"
);
}
);
width = 360;
},
{
anchors = (
{
name = bottom;
position = "{190, 0}";
},
{
name = top;
position = "{232, 417}";
}
);
layerId = "D07BE892-06F6-46A5-91A1-F9C5A6E66C70";
paths = (
{
closed = 1;
nodes = (
"276 -13 OFFCURVE",
"353 50 OFFCURVE",
"353 115 CURVE SMOOTH",
"353 213 OFFCURVE",
"185 246 OFFCURVE",
"185 317 CURVE SMOOTH",
"185 350 OFFCURVE",
"206 367 OFFCURVE",
"233 367 CURVE SMOOTH",
"267 367 OFFCURVE",
"287 349 OFFCURVE",
"310 319 CURVE",
"328 328 OFFCURVE",
"336 341 OFFCURVE",
"336 354 CURVE SMOOTH",
"336 388 OFFCURVE",
"277 417 OFFCURVE",
"232 417 CURVE SMOOTH",
"169 417 OFFCURVE",
"97 371 OFFCURVE",
"97 308 CURVE SMOOTH",
"97 214 OFFCURVE",
"263 185 OFFCURVE",
"263 100 CURVE SMOOTH",
"263 59 OFFCURVE",
"234 35 OFFCURVE",
"193 35 CURVE SMOOTH",
"145 35 OFFCURVE",
"107 69 OFFCURVE",
"83 121 CURVE",
"62 119 OFFCURVE",
"45 103 OFFCURVE",
"45 75 CURVE SMOOTH",
"45 33 OFFCURVE",
"111 -13 OFFCURVE",
"184 -13 CURVE SMOOTH"
);
}
);
width = 390;
}
);
note = s;
unicode = 0073;
},
